<?xml version="1.0" encoding="utf-8"?>
<!-- Generator: Adobe Illustrator 23.0.0, SVG Export Plug-In . SVG Version: 6.00 Build 0)  -->
<svg version="1.1" xmlns="http://www.w3.org/2000/svg" xmlns:xlink="http://www.w3.org/1999/xlink" x="0px" y="0px"
	 viewBox="0 0 720 540" style="enable-background:new 0 0 720 540;" xml:space="preserve">
<style type="text/css">
	.st0{fill:#C5B297;}
	.st1{clip-path:url(#XMLID_6_);fill:#AD936B;}
	.st2{clip-path:url(#XMLID_11_);fill:#A1996B;}
	.st3{fill:#222222;}
	.st4{clip-path:url(#XMLID_12_);fill:#AD936B;}
	.st5{fill:#C1BB1D;}
	.st6{fill:#EFEFD3;}
	.st7{clip-path:url(#XMLID_13_);}
	.st8{clip-path:url(#XMLID_14_);fill:#1E511C;}
	.st9{fill:#484D35;}
	.st10{fill:#F6EAA6;}
	.st11{clip-path:url(#XMLID_15_);fill:#AD936B;}
	.st12{fill:#508E50;}
	.st13{fill:#DACE60;}
	.st14{clip-path:url(#XMLID_16_);fill:#A1996B;}
	.st15{clip-path:url(#XMLID_17_);fill:#AD936B;}
</style>
<g id="Layer_2">
	<polygon id="legs" class="st0" points="222.5,528.3 212.3,547.3 361.7,543.2 375.7,529.5 340.7,496.8 	"/>
	<g id="arm-l">
		<defs>
			<path id="XMLID_4_" d="M173.6,318.9c0,0-8.6,6.1-21.1,18.1s-33.4,32.9-39.2,40.2c-8.3,10.4,29.7-0.9,29.7-0.9s2.5-3.8,14.1-10.6
				s26.5-15,32.8-20.5S173.6,318.9,173.6,318.9z"/>
		</defs>
		<use xlink:href="#XMLID_4_"  style="overflow:visible;fill:#C6B397;"/>
		<clipPath id="XMLID_6_">
			<use xlink:href="#XMLID_4_"  style="overflow:visible;"/>
		</clipPath>
		<path id="shadow_4_" class="st1" d="M109,403c0,0,14.9,0,18,0.1c3.1,0.1,3.8,0,4,0s0.3-2.7,0.3-2.7s4.6,3,7.6,5.3
			c3,2.3,3.6,2.5,3.6,2.5l6.4,1.3l-0.3,8.1l-42.7-1.1L109,403z"/>
	</g>
	<g id="shirt">
		<defs>
			<path id="XMLID_3_" d="M222.3,269.2c0,0-4.7-0.9-9.5,5.3c-4.8,6.3-17.8,21.8-22.4,27.1c-4.6,5.3-7.2,8.6-9.6,8.6
				c-2.4,0-6.5,0.2-6.5,0.2s-2.6,1.6-2.5,12.2c0.1,10.6,2.8,15.5,7.7,20.1c4.8,4.6,6.6,3.6,10.5,5.5c5,2.4,13.7,2,13.7,2l0.3-8.7
				c0,0-1.9-1.3-1.5-2.3s5.8-4.5,5.8-4.5s-1.8,0.2-1.4-4.1c0.4-4.3,8.9-9.8,12.4-12.3c3.5-2.4,19.8-11.6,19.8-11.6L344,385.5
				l25.8-29.6l1.9-18.7l-38.3-62.9l-36.7-2.5c0,0-64.5-13.7-64.7-13.2S222.3,269.2,222.3,269.2z"/>
		</defs>
		<use xlink:href="#XMLID_3_"  style="overflow:visible;fill:#F2EBBA;"/>
		<clipPath id="XMLID_11_">
			<use xlink:href="#XMLID_3_"  style="overflow:visible;"/>
		</clipPath>
		<path id="shadow_3_" class="st2" d="M218.1,296.6l-10.1-0.6c0,0-0.9-1.4,0.1-3.3c-3.9,0.6-8.8,3.9-15.7,10.7s-9.8,10.2-9.6,17.6
			c-0.9-0.6-1.3-2.6-1.3-2.6s-4.3-0.8-4.3,1.7s2.4,4.8,3.9,7.6s1.8,4.3,1.8,4.3s-2.6,1.2-5.9-0.8s-7.1-5.4-7.1-5.4l2.4,16.1
			l2.6,16.9l40.3-2.5l155.5,19l4-31L320,301l-15.4,0.4l-7.5-28.7l-35.1-6l-35.3,0.8L218.1,296.6z"/>
	</g>
	<g id="head_1_">
		<path class="st3" d="M342.3,192.7c0,0,8.7,17.7,4,40.3c-4.7,22.7-14.3,28.7-14.3,28.7s3-14.7,2.7-30c-0.3-15.3-5-26.5-5-26.5
			L342.3,192.7z"/>
		<g id="face">
			<defs>
				<path id="XMLID_2_" d="M336.4,223.6c0,0-0.5,5.8-2.9,11.9s-13.1,28.5-16.4,29.6c-0.7,0.3-13.3-1.2-15.1-1.4l-1.5,10.8
					c0,0-6.3,8.7-20.5,9.8s-37.8-9-37.8-9l23.4-52.6l46.8-24.5l17.2,7L336.4,223.6z"/>
			</defs>
			<use xlink:href="#XMLID_2_"  style="overflow:visible;fill:#C6B397;"/>
			<clipPath id="XMLID_12_">
				<use xlink:href="#XMLID_2_"  style="overflow:visible;"/>
			</clipPath>
			<path id="shadow_2_" class="st4" d="M332.1,223.6c0,0-2.6,3.6-8.7,3.8c-6.1,0.3-9.3,0.3-9.3,0.3s0.6-3.3,0.6-4.6
				c-3.5,1.3-9.3,6.4-9.3,6.4l1.2-13.3l-7,10.3c0,0-5.1,5.7-5.7,12.6c-0.6,6.9,0.6,20.7,0.6,20.7l4.9,3.5c0,0,2.2,0.9,7.9,1.5
				c5.7,0.6,10.7,1.2,10.7,1.2l-3.3,6.1l-34.4,19.8L229.5,273l43.8-43.3l38.2-35.4l22.9,7.3l5.2,18.8L332.1,223.6z"/>
		</g>
		<path class="st5" d="M309,135.7c0,0,34.7,2.3,36.7,34s-3.7,39.7-20.3,55.3C308.7,240.7,309,135.7,309,135.7z"/>
		<path class="st6" d="M333.3,199.4c-1.1-0.2-2.1-0.2-3.2,0c-1.3,0.4-1.9,1.1-1.9,1.9c-0.2,0.4-0.2,0.9,0,1.3
			c-0.6,0-1.3,0.1-1.9,0.3c-1.1,0.4-1.9,1.2-2.6,2.2c-0.4,0.9-0.5,1.8-0.3,2.9c0.2,0.6,0.4,1.2,0.6,1.6c-0.4,0-0.9,0-1.3,0
			c-0.9,0.4-1.3,1.3-1.3,2.6c0,2.1,0.6,4.3,1.9,6.4l-0.6,3.2c0.2,2.6,1.3,4.5,3.2,5.7c1.7,1.3,3.1,1.8,4.1,1.6
			c0.6-0.2,1.1-0.5,1.3-1l1.3,2.2c1.5,1.3,3.1,1.8,4.8,1.6c1.9-0.4,3.4-1.5,4.5-3.2l1.3-2.2h2.2c1.7-0.2,3.1-1.2,4.1-2.9
			c1.3-1.9,1.6-3.8,1-5.7l-1.3-2.6c0.6-0.9,1-1.8,1-2.9c0.4-2.1,0.3-3.8-0.3-5.1c-0.9-1.3-2-2.4-3.5-3.5l-1.9-1
			c-0.2-0.4-0.6-1.1-1.3-1.9c-1.1-1.3-2.3-2.3-3.8-3.2c-1.3-0.6-2.3-0.4-3.2,0.6c-0.6,0.4-1.1,1-1.3,1.6
			C334.5,199.8,333.9,199.6,333.3,199.4z"/>
		<g>
			<defs>
				<path id="XMLID_5_" d="M203.6,146.4c-28.4,45.4-23.5,102.9,25.7,116.3c49.3,13.4,83-18.1,96-37.7c13-19.6,27.9-52.9-1.8-96.4
					S229,105.8,203.6,146.4z"/>
			</defs>
			<use xlink:href="#XMLID_5_"  style="overflow:visible;fill:#222222;"/>
			<clipPath id="XMLID_13_">
				<use xlink:href="#XMLID_5_"  style="overflow:visible;"/>
			</clipPath>
			<path class="st7" d="M348,160.5c0,0-14,65.3-76.7,73.3s-101.7-15-101.7-15l2.7,55l192.3,10L348,160.5z"/>
		</g>
	</g>
	<g id="overalls">
		<defs>
			<path id="XMLID_9_" d="M219.5,271c0,0-2,12.6-2.6,17s-1.3,8-0.1,8.9s8.5,8.1,16,16.5s12.6,15.5,17.6,27.5s4.9,14.4,4.9,23.3
				c0,2.2,1,12.2-3.3,24.9c-1.1,3.3-2.1,20.3-3.3,24c-2.1,6-5.5,17.7-8,24.3c-3,7.8,3.7,10.8,0.3,18.3
				c-12.1,26.7-26.8,36.4-30.8,39.7s-3.3,7-5.9,11.8s-3.8,7.6-6,9.5c5.6,3,17.3,10.1,24.3,15.1s13.3,11.1,13.3,11.1l74-1.4
				c0,0,12.5-9.9,21.3-18.7s11.3-11.5,13-14.8c3.6,2.3,5.8,3.9,8.1,6.8c2.3,2.9,2.8,6.3,4.1,7.4c1.3,1.2,3.8,0.5,10.3,6
				s17.6,14.3,17.6,14.3l18.4-0.8c0,0,16.2-6.8,27.9-11s15.4-4.8,16.5-5.9c1.1-1.1,6.3-11.6,16.3-22.5
				c10.1-10.9,14.6-13.6,20.9-14.5c-5-10.1-22.4-29-22.4-29l-25.3-26.9c0,0-10.8-8.4-16.1-12.2s-8-5.8-11.1-8.5
				c-3.1-2.8-6.7-10.2-11.7-16.3c-5-6.1-12.3-15.4-12.3-15.4l-4.4-5.6c0,0-0.9-1.8-1.8-2.4s-2.1-0.5-2.3-1s-3.3-18.1-3.3-18.1
				l-5.4-4.3c0,0-4.6,4.5-8.4,7.9s-9.2,8.8-11.4,8.9s-8.3-2.8-15.1-9.3s-12.9-11.9-16.3-19.6s-3-13.1-4.3-20.3s-2.2-9.3-1.8-14.2
				s8.8-14.5,8.8-14.5l17.9-9.8c0,0-0.2-4-0.4-4.5c-0.2-0.5-5.5-0.2-6-0.2c-1.7-0.1-1.7-3.3-1.7-3.3s-1.9,1-6.2,0.6
				c-4.3-0.3-4.3-0.3-4.3-0.3l-18.6,4.9c0,0-14,7.4-21.3,16.5s-14.5,13.3-17.7,13.6c-3.2,0.3-8.5-1-16.9-6.2s-12.3-7.6-12.5-14
				s3.6-7.7,3.6-7.7l6.8-6.9l-14.1-1.5L219.5,271z"/>
		</defs>
		<use xlink:href="#XMLID_9_"  style="overflow:visible;fill:#518F50;"/>
		<clipPath id="XMLID_14_">
			<use xlink:href="#XMLID_9_"  style="overflow:visible;"/>
		</clipPath>
		<path id="shadow_12_" class="st8" d="M216.6,276.8c0,0,5.6,6.1,8.2,9.2s5.4,7.2,6.1,7.6s1.4,0.4,2.9,1.6s6.3,6.6,13.4,10.8
			s13.1,7.5,15.4,8.2s2.3-0.3,2.3-0.3s1.1-3.8,5.1-7.8s10.3-11.4,14.4-16.6s5.9-10.1,5.9-10.1l-2.9-16l-73.3-1.3L216.6,276.8z"/>
		<path id="shadow_11_" class="st8" d="M232.3,314.9c0,0,6.6,2.1,15.9,10.3s11.1,11.9,19.4,16.8s14.2,4.6,14.2,4.6s-1.7,4.1-7.7,4.4
			s-7.2,0.1-7.2,0.1s0.6,4,6.6,7.6s14,6.9,14,6.9s-4.6,0.4-9.6-1s-8.5-3-13-2.4s-7.9,2.9-7.9,2.9l-8.9-6.6L232.3,314.9z"/>
		<path id="shadow_10_" class="st8" d="M376.1,357.3c0,0-10.2,10-12.6,12.5s-3.8,4.8-5.7,7.8c-1.8,2.9-5.7,8.9-14.6,16.1
			c-8.9,7.2-14.1,10.1-17.7,10.4c-3.6,0.3-17-5.6-17-5.6s10.4,6.7,20.3,8.3c9.8,1.6,23.7,1.8,25.3,1.8c1.6,0,1.4-1.1,3.3-3.8
			c1.8-2.8,7.1-9.2,13.7-14.6c6.6-5.4,10.4-9.1,10.4-9.1l8.6-10.6L376.1,357.3z"/>
		<path id="shadow_9_" class="st8" d="M281.5,440.6c0,0,17.8-0.3,20.5-0.4s4.9,1.9,8.3,5.8s7.4,12.9,7.4,12.9s-33.8-0.1-34.1,0.5
			s-0.4,5.8,1.3,10.9s5.3,10.3,5.3,10.3s-6.3,1.5-12.9,6s-7.9,8.3-6.9,9.1s6.3,1.6,17.4,1.5s25.8-3.9,25.8-3.9s0.1,3.2,0.4,3.6
			s2.1,1.4,8.9,0.3s14.9-4.8,27.1-4.6s18,6.1,20.6,14.1s6.4,15.9,8.3,16.1s15.1-6.3,22.3-9.9s12.6-6.8,16.6-9.7
			c0.8,10.7,1.3,30.8,1.6,30.8s6.4-8.4,20.1-17.2s26.6-14.4,26.6-14.4L451,542.7l-168,11l-1.1-12.8c0,0-0.3-5.9-8.7-10.8
			s-11.1-5.1-16.3-8.6s-5.8-5.2-5.8-5.2s1.9-4,11.3-5s10.1-1,10.3-1.5s-1.3-1.4-1.6-2.4s-0.4-2-0.4-2s-5.1-0.6-6.8-0.4
			s-10.4,6.8-21.6,6.1s-14.7-4-17.3-6.2s-4.9-4.3-5.8-4.3s-2.1,3.6-5.8,9.6s-7.2,9.3-7.2,9.3s0.3-5.9-0.7-7.7s-4.6-2.9-4.6-2.9
			l30.7-69.6L281.5,440.6z"/>
	</g>
	<path id="belt" class="st9" d="M253,369c-0.6,0.6-7.8,37.8-7.5,39.8s37.5,10.3,78.8,7.5s72.5-21.3,72.3-25.5s-16.8-32-19-32.3
		s-19.3,12.8-56,16.8C275.9,380.2,254.5,367.5,253,369z"/>
	<g id="studs">
		<circle class="st10" cx="383.6" cy="390.1" r="4.6"/>
		<circle class="st10" cx="261.1" cy="381.1" r="4.6"/>
		<circle class="st10" cx="257.6" cy="401.8" r="4.6"/>
		<circle class="st10" cx="318.5" cy="384.2" r="4.6"/>
		<circle class="st10" cx="319.4" cy="407.1" r="4.6"/>
		<circle class="st10" cx="374.6" cy="368.9" r="4.6"/>
	</g>
	<g id="arm">
		<defs>
			<path id="XMLID_8_" d="M423.2,359.7c0,0,6.4,7.1,15.5,20c9.1,12.9,7.7,16.6,14.8,24.5c7.2,7.9,15.4,20.9,18.6,26.5
				c3.2,5.6,4.4,9.2,3.2,9.9s-3.3,0-5.2,2.3c-1.8,2.3-6.2,6.9-10.1,9.6c-3.9,2.7-4.5,4-9.7,3.6c-5.2-0.4-8.5-0.6-10.4-1
				c-1.9-0.4-2.1-1.6-0.8-3.5c1.3-1.9,1.9-4.9,1.6-7.8c-0.3-2.9-4.5-5.3-4.6-8.9c-0.1-3.7,1.5-12.4,1.5-13.7s0.2-1.3-1.8-2.8
				s-24-19.8-30-24.3s-18.4-16-18.4-16L423.2,359.7z"/>
		</defs>
		<use xlink:href="#XMLID_8_"  style="overflow:visible;fill:#C6B397;"/>
		<clipPath id="XMLID_15_">
			<use xlink:href="#XMLID_8_"  style="overflow:visible;"/>
		</clipPath>
		<path id="shadow_8_" class="st11" d="M394.6,377.8c0,0,4.3,6.8,15.8,16.4c12.9,10.8,32.3,20,32.3,20s-0.3,12.1-1.2,13.5
			s-7.3,6.7-7.3,6.7l-48.8-50.3L394.6,377.8z"/>
	</g>
	<g id="breacelet-r">
		<path class="st12" d="M435.8,418.3c0,0-2,11.9-2,14.4s4.3,4,15.2-0.2s12-7.7,17.7-11.2c5.7-3.5,4-6.7,4-6.7L451.8,403L435.8,418.3
			z"/>
		<path class="st9" d="M433.6,396.1c-7.2,5.7-15.3,8.8-15.3,8.8l17.8,14.9c0,0,3.9-0.4,11.5-6.5s7.8-8.8,7.8-8.8l-11-18.6
			C444.4,385.9,440.9,390.4,433.6,396.1z"/>
		<path class="st13" d="M433.3,394c-7.1,5.2-18.2,8.7-16.3,11s12.7-3.2,18.8-8c6.2-4.8,11.7-9.7,10-12
			C444.2,382.7,441.5,388,433.3,394z"/>
	</g>
	<g id="sleeve">
		<defs>
			<path id="XMLID_7_" d="M353.6,276.3c1.8,1,18.6,22.3,27.3,32.5s21.9,27.2,24.3,30.3s2.8,4.6,8.1,5.8s12.5,1.2,12.5,1.2
				s2.1,5,2.6,7.4s0.9,4.6-0.6,5.8s-10.2,9.4-17.6,14.1s-8.8,6.5-11.5,6.7s-5.3,0.9-7.6,3.1c-3.3,3.2-6.4,9.4-6.4,9.4
				s-5.9-3.4-6.3-10.1s2.6-11.6,2.9-12.6s0.4-2.5-0.3-3.4S370.2,350,356.5,338s-31.9-25-35.4-32.4s-5.4-11.6-4.6-16.3
				s4.6-12.1,19.9-13.5C346.8,274.9,352.8,275.8,353.6,276.3z"/>
		</defs>
		<use xlink:href="#XMLID_7_"  style="overflow:visible;fill:#F2EBBA;"/>
		<clipPath id="XMLID_16_">
			<use xlink:href="#XMLID_7_"  style="overflow:visible;"/>
		</clipPath>
		<path id="shadow_7_" class="st14" d="M317.5,301.1c0,0,11.2-0.4,16.3,0.2c5.2,0.6,8.3,1.3,8.2,2.7c-0.1,1.3-8.3,3.1-8.8,3.7
			c-0.5,0.6,6.4,6,10,9.5c3.6,3.5,10.2,9.3,13.2,10.1s6.5,1.3,6.5,1.3s-0.4,3.3,0.5,4.4c0.9,1.2,9,7.8,14.8,12.7
			c5.8,4.8,9.9,9.7,12.2,10.4s4.5,0.6,4.5,0.6s-3.7,2.2-4.8,6.4s-0.6,8.3-0.1,8.9c0.5,0.6,3-2.3,4.3-3.5c1.3-1.2,2.8-2.8,5.3-0.6
			c2.4,2.3,2.9,3.8,5.6,5.1s7.2,1.2,7.2,1.2l-8.7,20.4l-28.1-0.4l-67.9-91L317.5,301.1z"/>
	</g>
	<g id="hand-l">
		<defs>
			<path id="XMLID_10_" d="M113.3,377.2c-8.3,10.4-7.1,23.8-6.6,24.5s2.5,0.3,3.3,0.8s7.1,6.2,7.9,7.1s2.4,0.8,4.2,0.3
				s2.9-0.9,5-0.9s3.7,0.3,7.4,1.6s11.6,3.7,11.6,3.7s0.8-3-0.1-3.7s-3.7-1.9-3.7-2.7s1.5-10.4,2.3-13.4s1.9-9.1,1.8-11.5
				s-3.2-6.4-3.2-6.4S119.1,369.9,113.3,377.2z"/>
		</defs>
		<use xlink:href="#XMLID_10_"  style="overflow:visible;fill:#C6B397;"/>
		<clipPath id="XMLID_17_">
			<use xlink:href="#XMLID_10_"  style="overflow:visible;"/>
		</clipPath>
		<path id="shadow_13_" class="st15" d="M109,403c0,0,14.9,0,18,0.1c3.1,0.1,3.8,0,4,0s0.3-2.7,0.3-2.7s4.6,3,7.6,5.3
			c3,2.3,3.6,2.5,3.6,2.5l6.4,1.3l-0.3,8.1l-42.7-1.1L109,403z"/>
	</g>
	<g id="bracelet-l">
		<path class="st12" d="M110.5,372.4l14.5-8.5l18.6,10.9c0,0,3.1,2.9,3.1,9.5s-1,8.5-1,8.5s-8.9-1-12.5-4s-17.6-4.9-20.8-8.5
			S110.5,372.4,110.5,372.4z"/>
		<path class="st9" d="M123,364.3c0,0-1.5,5.9,6.6,10.3s14.8,1.8,14.8,1.8l16.5-11.8c0,0-6.6,0-13.8-7.3s-5.5-10.9-5.5-10.9
			L123,364.3z"/>
		<path class="st13" d="M145.6,358.3c7.9,7.2,15.3,8.4,16.8,6.5c1.9-2.4-6.5-0.8-14.1-8.3s-4.5-12-6.6-11.7
			C138.8,345.3,139.1,352.3,145.6,358.3z"/>
	</g>
</g>
<g id="Layer_1">
</g>
</svg>
