<?xml version="1.0" encoding="utf-8"?>
<!-- Generator: Adobe Illustrator 23.0.0, SVG Export Plug-In . SVG Version: 6.00 Build 0)  -->
<svg version="1.1" id="dm" xmlns="http://www.w3.org/2000/svg" xmlns:xlink="http://www.w3.org/1999/xlink" x="0px" y="0px"
	 viewBox="0 0 98 242" style="enable-background:new 0 0 98 242;" xml:space="preserve">
<style type="text/css">
	.st0{fill:#8B634B;}
	.st1{fill:#B39A77;}
	.st2{clip-path:url(#XMLID_10_);fill:#B39A77;}
	.st3{clip-path:url(#XMLID_10_);fill:#78B6FF;}
	.st4{fill:#BF6F6F;}
	.st5{display:none;}
	.st6{display:inline;}
	.st7{display:inline;clip-path:url(#XMLID_12_);}
	.st8{clip-path:url(#shadow_14_);fill:#4064B7;}
	.st9{display:inline;clip-path:url(#XMLID_13_);fill:#4064B7;}
	.st10{clip-path:url(#XMLID_14_);fill:#B39A77;}
	.st11{clip-path:url(#XMLID_15_);fill:#9E553F;}
	.st12{clip-path:url(#XMLID_16_);fill:#9E553F;}
	.st13{clip-path:url(#XMLID_17_);fill:#C38352;}
	.st14{clip-path:url(#XMLID_18_);fill:#9E553F;}
	.st15{clip-path:url(#XMLID_19_);fill:#B39A77;}
</style>
<path id="broom-handle_2_" class="st0" d="M-9.4,42.9c0.8,0.1,1.7,1,2.2,1.7c4.4,5.3,13,16.1,33.1,39.4
	c11.9,13.8,26.5,29.5,43.2,46.3c24.9,25,50.8,51.6,75.3,76.1c40.5,40.4,74.7,73.7,74.7,73.7l-40.8-15.4c0,0-13.8-17.3-35.6-41.6
	c-23.7-26.4-57.6-60.5-87.4-93.5C35.5,107.7,19.6,87.2,7.5,71.9C-4.2,57.3-12.6,47.3-12.7,47.1c-0.5-0.8,0.1-2.3,0.4-2.8
	C-12,43.9-10.6,42.8-9.4,42.9z"/>
<g id="staff">
	<path class="st0" d="M-22,37.7c0,0,75.9,91.6,99.6,118.1s127.9,137.5,127.9,137.5l11.5-12.6c0,0-78.9-84.3-123.8-128.5
		C50.4,110-15.9,32.9-15.9,32.9L-22,37.7z"/>
	
		<rect x="158.8" y="232.2" transform="matrix(3.045595e-02 -0.9995 0.9995 3.045595e-02 -78.486 408.4812)" class="st0" width="25.1" height="25.1"/>
	
		<rect x="1.2" y="58.7" transform="matrix(3.045595e-02 -0.9995 0.9995 3.045595e-02 -57.7527 72.8263)" class="st0" width="15" height="15"/>
</g>
<path id="hand-back_2_" class="st1" d="M29.5,109.5c0,0,7.3-11.7,8.7-13c1.4-1.3,3-1.8,3.5-1.9c0.7-0.1,5.1,3.8,9.2,8.5
	c4.2,4.8,7.3,9.9,7.3,9.9s-0.8,0.6-1.8,0.9c-1,0.3-2.4,0.7-3.5,2.4c-1.1,1.7-2.3,4.5-5.7,5.4c-3.4,0.9-6.7,0.4-6.7,0.4l-54.6,15
	c0,0-2.5,0.5-6.4-0.4s2.9-9.3,2.9-9.3L29.5,109.5z"/>
<path id="neck_2_" class="st1" d="M13.8,66.7c0,0-1.5,1-3.5,2.9C8.4,71.5,6,74.1,6,74.1l6.5,11.9l14.4,6.1c0,0,0-5.3,0.3-8
	c0.3-2.7,1.3-5.3,1.3-5.3L18.2,64.4L13.8,66.7z"/>
<g id="face_2_">
	<defs>
		<path id="XMLID_11_" d="M17.5,67.2c0,0,5.1,10.1,11,16.2c5.9,6,8.4,8.2,10.7,8.6c2.3,0.4,2.5-0.3,6.1-2.1s8.7-4.4,10.6-5.5
			c4.5-2.5,6.4-6.1,8.7-10.9c2.3-4.8,2-8.1,3.9-10c1.9-2,5.8-7.2,7.4-16.2c1.5-8.1,0.5-19.9-8.1-26.3C53.9,10.4,37.6,9.1,21.3,17.3
			s-11.8,30.1-7.7,35S17.5,67.2,17.5,67.2z"/>
	</defs>
	<use xlink:href="#XMLID_11_"  style="overflow:visible;fill:#C6B397;"/>
	<clipPath id="XMLID_10_">
		<use xlink:href="#XMLID_11_"  style="overflow:visible;"/>
	</clipPath>
	<path id="shadow_28_" class="st2" d="M19.2,66.2c0,0,2.4,6.1,5.8,10.3c3.4,4.2,6.2,8.1,8.8,11s4.5,4.7,4.5,4.7l-5.1,0.3l-21-25.5
		L19.2,66.2z"/>
	<path class="st3" d="M54.1,12.5c0,0,14.6,6.3,15.7,17.8c1.1,7.5-0.8,9-0.8,9l8.9,0.7c0,0-9.6,8.6-16.2,12.9
		c-2.5-4.9-13.4-16.1-13.4-16.1l10.6,1.1c0,0,1.3-4.7-2.7-12.5C47.7,11,29.9,12.9,29.9,12.9L41.8-2.3L54.1,12.5z"/>
</g>
<path id="nose_2_" class="st4" d="M59,67.8c6.2,1.2,9.6,4,7.9,11.3c-1,4.3-7.3,8.2-16.7,6.6C40.8,84.1,38,76,38.6,72.4
	C39.6,67.2,47.7,65.6,59,67.8z"/>
<g id="hat_2_" class="st5">
	<defs>
		<path id="XMLID_9_" d="M46.4,6.9c-1.8-0.2-3.5,1-5.3,1.6c-1.9,0.6-9.6,2.8-15.7,4.5s-12.1,4.7-14.8,5.8c-2.7,1.2-3.4,2.2-3.5,4.5
			c-0.1,2.4,0.4,7.2,0.6,10.1c0.2,2.9,2.1,16.1,2.1,16.1s10.2,2.3,15.9,3.5c5.8,1.1,52.3-1.4,52.3-1.4s2-4,3.6-8.4s3.4-8.8,3.8-10
			c0.4-1.2,0.4-2.1-1.1-3.6c-1.5-1.5-4.4-4.6-9.1-7.3s-11.2-6.2-14.4-8c-3.2-1.8-7.7-4.6-9.5-5.7C49.5,7.8,48.5,7.2,46.4,6.9z"/>
	</defs>
	<use xlink:href="#XMLID_9_"  style="display:inline;overflow:visible;fill:#819AD3;"/>
	<clipPath id="XMLID_12_" class="st6">
		<use xlink:href="#XMLID_9_"  style="overflow:visible;"/>
	</clipPath>
	<g id="shadow_12_" class="st7">
		<defs>
			<path id="shadow_13_" d="M5.7,22.2c0,0,10.4,1.6,14.4,2.7c4.1,1.1,8.6,2.1,11.7,2.6c3,0.5,10.5,0.8,17.5,1.5
				c8.6,0.9,17.5,4.3,19.4,4.7c2,0.5,9.1-1.1,14.2-0.1c5.1,0.9,5.4,1.3,5.4,1.3l-8.6,21.2L23.6,59L4.4,53.6L5.7,22.2z"/>
		</defs>
		<use xlink:href="#shadow_13_"  style="overflow:visible;fill:#466EC9;"/>
		<clipPath id="shadow_14_">
			<use xlink:href="#shadow_13_"  style="overflow:visible;"/>
		</clipPath>
		<path id="shadow2_2_" class="st8" d="M56.3,27.8c0,0,2.6,8.1,2.2,10.1c-0.4,2.1-2.4,2.6-4.4,3.7c-2,1.1-4.6,3-6.9,4s-5,0.9-9.3,3
			s-9.6,8.2-9.6,8.2L2.1,52.5L5.3,20L56.3,27.8z"/>
	</g>
</g>
<g id="bill_2_" class="st5">
	<defs>
		<path id="XMLID_8_" d="M28.2,53.7c-0.1,0.4,0.6,1.9,2.5,5.4S38,69.8,40,72c2,2.2,7.1,7.8,8.4,8.8s3.1,2,4.5,1.7
			c1.4-0.3,8.6-2.8,12.1-3.9s7.9-2.7,10.1-3.4c2.2-0.7,7.6-2.8,9.7-3.2c2.1-0.3,7.9,0.7,9.8,0.9c1.8,0.2,3.2,0.4,3.3-0.6
			c0.1-0.6-0.8-1.9-1.8-3c-2.3-2.4-5.8-6.5-8-9.2c-2.2-2.7-3.6-4.5-6.4-7.1c-2.7-2.6-2.7-2.6-3.2-2.8C78,50,72.5,48,71,47.3
			c-1.5-0.7-3.8-1.7-4.9-1.9c-1.1-0.2-4.5,0.5-8.3,0.8s-11.4,1.4-14.6,2c-3.2,0.5-7.4,2.2-9.9,3.3C30.8,52.6,28.3,53.3,28.2,53.7z"
			/>
	</defs>
	<use xlink:href="#XMLID_8_"  style="display:inline;overflow:visible;fill:#819AD3;"/>
	<clipPath id="XMLID_13_" class="st6">
		<use xlink:href="#XMLID_8_"  style="overflow:visible;"/>
	</clipPath>
	<path id="shadow_11_" class="st9" d="M28.5,52.2c0,0,0.7,2.8,3.1,6.5s4.2,6.3,7.1,9.5s5.7,7.1,7.5,8.9c1.9,1.8,2.9,2.7,4.2,2.9
		c1.2,0.2,3-0.2,7.1-1c4.1-0.8,10.5-2.7,13-3.3c2.5-0.6,7.8-2.9,10.1-3.7c2.3-0.9,5.1-1.6,7.4-1.2c2.3,0.4,3.5,1.2,5.4,1.6
		c1.9,0.4,5,0.7,5,0.7l-3.2,15.6l-56.1-6.3L26.8,53.9L28.5,52.2z"/>
</g>
<g id="ear_2_">
	<defs>
		<path id="XMLID_7_" d="M22.8,53.3c0,0-1.1-5.7-5.9-6.6s-7.6,4-7.8,10s3,11,6.4,11.5c3.4,0.4,4.1-0.7,4.1-0.7L22.8,53.3z"/>
	</defs>
	<use xlink:href="#XMLID_7_"  style="overflow:visible;fill:#C6B397;"/>
	<clipPath id="XMLID_14_">
		<use xlink:href="#XMLID_7_"  style="overflow:visible;"/>
	</clipPath>
	<path id="shadow_10_" class="st10" d="M17.2,53c0,0-0.2-2-2.2-2.1s-3.8,1.1-4.6,3.4c-0.8,2.2-0.6,3.9-0.6,3.9s0.9,0.3,2.3,0
		c1.4-0.4,1.8-0.9,1.8-0.9s-2.1-0.1-2.2-0.9c-0.1-0.8-0.4-1.8,1.2-2.9S16.4,52.4,17.2,53z"/>
	<path id="shadow_9_" class="st10" d="M15.3,59.3c0,0-1.3-0.2-2.3,0.3c-0.9,0.5-1.2,1.1-1.2,1.1s0.6,1.8,1.4,2.8
		c0.7,1-0.1,1.8,0.9,2.8c0.9,1,2.5,0.4,2.7-1c0.2-1.4-1.4-1.7-2-2.3c-0.5-0.6-1.5-2-1.2-2.3C13.8,60.1,15.3,59.3,15.3,59.3z"/>
</g>
<g id="collar_2_">
	<defs>
		<path id="XMLID_6_" d="M6.6,68.1c0,0-4.5,4.2-7.6,7.1s-6.4,8.1-6.4,8.1s1.7,1.2,6.8,3.5c5.2,2.4,12.2,4.9,17.7,8.1
			c5.5,3.2,19.6,12.9,19.6,12.9l0.4-3.3l4.5,4.8l4.8-8.2c0,0-4.5-3.6-7.3-4.8c-2.8-1.2-8.2-3.5-13.5-6.9c-5.4-3.4-9.6-7.5-9.3-9.8
			s1.4-2.8,1.4-2.8s-3.9-0.8-6.3-1.7C8.9,74.2,8.2,73.6,6.6,68.1z"/>
	</defs>
	<use xlink:href="#XMLID_6_"  style="overflow:visible;fill:#C16C4E;"/>
	<clipPath id="XMLID_15_">
		<use xlink:href="#XMLID_6_"  style="overflow:visible;"/>
	</clipPath>
	<path id="shadow_8_" class="st11" d="M12.3,74.3c0,0-3,1-6.3,2.2s-4.8,2.2-6.6,5s-4,6.5-4,6.5l-4.3-5L6.9,66.4L12.3,74.3z"/>
</g>
<g id="shirt_2_">
	<defs>
		<path id="XMLID_5_" d="M0,83.7c0,0-3.5,0.8-5.1,2.6s-7.2,8.5-7.9,10.2c-0.7,1.7-3.5,7.4-3.5,7.4s-3.2,3.2-6.2,5.6
			c-3,2.4-5.8,4.3-7.9,4.9c-2.1,0.6-2.8,0.2-2.9,0.4c-0.1,0.2-0.8,4.6-0.9,7.1c-0.1,2.5,0.1,4.3-0.5,4.3c-0.6,0.1-3.2-0.6-3.2-0.4
			c0,0.2-0.9,3.9,0.2,5.5c1,1.6,3.4,4.2,6.2,5.7c2.8,1.5,7.7,1.5,9.2,1.6c1.5,0.1,3.3,0,3.4-0.3c0-0.3,0-3.7,0.2-4.3
			c0.3-0.5,1.2-0.8,1.7-1.1c0.5-0.3,1-1,1-1s0.5,0.2,1.2,3.8c0.8,3.5,2.9,12.1,3.5,16.1c0.6,3.9,1.6,8.2,1,17.2
			c-0.6,9-2.4,14-2.4,14l11.9,45.3L52.5,239l11.4-38.3l-22.6-27.3l-2.6-26.9l0.3-25.1L34,101.5L0,83.7z"/>
	</defs>
	<use xlink:href="#XMLID_5_"  style="overflow:visible;fill:#C16C4E;"/>
	<clipPath id="XMLID_16_">
		<use xlink:href="#XMLID_5_"  style="overflow:visible;"/>
	</clipPath>
	<path id="shadow_7_" class="st12" d="M17.3,94.2c0,0-5.1-0.4-6.9-0.9s-4.1-1.7-5.3-1.9c-1.3-0.3-3.4-0.5-3.4-0.5s-2.6,3.7-4.2,7.2
		c-1.6,3.5-3.8,7.7-4.8,9.7c-1,2-2.1,5.3-3.2,10.2s-1.8,14.3-1.7,16.2c0.1,1.9,0.1,2.1,0.8,3.4c0.8,1.3,3.3,4.7,4.2,7.3
		c0.8,2.6,7.6,33.4,7.6,33.4s2.1,3.9,5.2,8.9c3.1,5,5.4,8.8,8.7,12.7c3.3,3.9,8.3,8.3,11.9,9c3.7,0.7,8.8-1.2,8.8-1.2
		s-2.2,5.3-4.9,7.8s-5.7,4.6-6.9,4.5s-3-2.3-5.4-4.8s-7.8-8.5-10.3-10.8s-6.9-6.3-6.9-6.3l-15.4-24.3l-17-36c0,0,0.8-2.8,2.8-4.1
		c2-1.3,4.2-1.5,4.3-1.6c0.1-0.1,0.4-1.9,0.2-2.3c-0.2-0.4-1.8-2.2-2.3-2.9c-0.5-0.7-1.1-1.3-0.4-1.9c0.7-0.6,2.6-2.5,4.2-4.1
		c1.6-1.5,3.8-3.5,3.9-3.9c0.1-0.3-0.1-2.7-0.1-3.5s-0.5-2.2-0.2-3.9s1.7-3.1,2.2-4.3c0.5-1.2,1-4,1-4l9-25.9l25.5,16.8L17.3,94.2z"
		/>
	<path id="shadow_6_" class="st12" d="M18.2,127.4c0,0-2.4,2.6-4.5,5.7c-2,3.2-3.4,4.5-2.7,5.7s4.4,3.6,4.3,4.8
		c-0.1,1.2-0.4,3.9-0.9,6.7s-1,5.4-1,5.4s3.9-3.8,9.7-4.8s8.9-1.4,11.1-0.5s4.2,2.2,4.2,2.2l2.5-10.9L18.2,127.4z"/>
</g>
<g id="overalls_2_">
	<defs>
		<path id="XMLID_3_" d="M-35.8,233c0,0,2.9-0.9,6-3.9c3.2-3,8.3-8.2,9.9-10.1s2-3.4,3.3-3.1c0.5-1.9,1.4-6.7,0.7-11.4
			c-0.7-4.7-1.7-13.2-1.1-16.6c0.6-3.4,2.4-3.1,5.3-11.1c2.9-8,4.4-12.8,4.5-19.3c0.1-6.5-1.1-12.7,0.1-20.8
			c1.2-8.1,5.2-14.5,9.9-20.9c4.7-6.4,19.3-21,19.3-21l13.2,11.5c0,0,3.5,2.9,4.9,3.8c1.3,1,2.8,1.9,3,2.3c0.2,0.4,0.6,2.4,0.3,4.4
			c-0.2,2-0.9,6.6-0.9,6.6s-6.2-11.7-13.4-12.8c-7.2-1.1-14.4-0.8-17.2,2.4c-2.8,3.1-4.5,10.8-6.2,19.8S3,155.5,2,165.6
			s-0.7,25-0.6,28s1.4,5.2,2.9,7.9c1.5,2.7,6.5,11.6,8.5,15s6.8,9.8,7.3,10.7c0.6,0.9,0.8,1,1.6,1.4c0.9,0.3,5.3,2,7.2,2.7
			c1.9,0.6,8.4,1.7,8.7,1.7c0.3,0,1.4-1.1,2.3-2.4c0.9-1.3,2.3-4.7,5.2-7.6c2.9-2.9,7.8-8.8,9.6-12.3c1.3-2.4,1.5-6.3,1.6-6.6
			s0-0.8-1.7-2.6c-1.6-1.8-9.8-8.3-12.6-15.1c-2.8-6.8-4.4-13.1-4.8-20.9c-0.4-7.8-1-12.2-0.7-17c0.3-4.1,2.4-7.8,2.4-7.8l2.4,4.5
			c0,0-1.5,7.8,0.7,16.3c2.1,8.5,3,9.8,5.2,13.3s4.5,5.4,6.4,8c1.8,2.5,3.3,5.3,4.9,7.2c1.6,1.8,2.6,3.2,4.1,3.7
			c1.5,0.5,3.3,0.6,3.3,0.6s0.7,2.8,1.3,7.3c0.6,4.5,1.3,8.7,1.3,8.7s7.2,6.8,12.6,13.7c5.4,6.9,10.1,13.9,12.4,17.4
			c2.3,3.4,3.8,6.6,6,9.4c2.2,2.8,3.5,3.6,3.5,3.6L2.3,254L-35.8,233z"/>
	</defs>
	<use xlink:href="#XMLID_3_"  style="overflow:visible;fill:#F6BE65;"/>
	<clipPath id="XMLID_17_">
		<use xlink:href="#XMLID_3_"  style="overflow:visible;"/>
	</clipPath>
	<path id="shadow_5_" class="st13" d="M-16.8,214.5c0,0,0.2,4.6-0.4,8.6c-0.6,4-1.6,6.4-2.4,9.6c-0.8,3.2-1.3,4.7-1.3,4.7l-22.6-2
		l17.8-24.7L-16.8,214.5z"/>
	<path id="shadow_4_" class="st13" d="M68.9,207.5c0,0-0.6,1.7-0.2,3s0.8,3,1.2,4.8c0.5,1.8,0.9,5.5,0.8,6.2
		c-0.1,0.7-1.2,2.8-1.5,3.2c-0.3,0.4-0.8,0.9-0.4,1.6c0.4,0.7,2.9,4.2,4.7,7.8c1.7,3.6,4.9,8.9,4.9,12.1c0,3.2-0.5,4-0.5,4
		l-10.2-1.9c0,0,0.1-6.9,0-6.6s-2.1,2.2-3.7,4.4c-1.5,2.1-1.8,2.8-1.8,2.8l18.6,2.4c0,0,0.4-5.4,0.8-10.5c0.5-7.8-1.1-19.3-1.1-19.3
		L68.9,207.5z"/>
</g>
<g id="sleeve_2_">
	<defs>
		<path id="XMLID_2_" d="M16.5,114.9c4.1-5.4,13.4-4.8,17-2.7c3.1,1.8,6.9,5.5,9,7.1c2.1,1.6,6.4,4.9,9.4,7.4
			c3,2.5,16.8,13.2,21.7,17.7c4.9,4.6,5.8,5.4,5.8,5.4s1.9-2,2.3-2.7c0.4-0.7,1.2-3,2.9-2.2c1.7,0.8,3,2.3,5,5.5s3.1,5.8,2.9,8.7
			c-0.2,2.9-9.4,26.3-9.4,26.3s-3.3,2.5-4.4,2.7c-1.1,0.3-0.9,0.8-2.1,1.2c-1.2,0.4-5.6,1.6-7.7,1s-2.8-2.4-3.6-4.1
			c-0.8-1.7-2.6-4.8-5.2-6.7c-2.6-1.9-5.1-3.5-5.1-3.9s1.3-2,1.4-2.4c0.1-0.4-1.7-1.6-3.5-2.5c-1.8-0.9-3.2-0.9-3.3-1.4
			c-0.1-0.5,1.1-4,0.6-6.4c-0.5-2.4-4.9-9.4-9.7-14.3c-4.7-4.8-9-9.5-14.6-14c-3.2-2.6-8.9-5.9-10.7-9.3
			C14,122.9,14.2,117.8,16.5,114.9z"/>
	</defs>
	<use xlink:href="#XMLID_2_"  style="overflow:visible;fill:#C16C4E;"/>
	<clipPath id="XMLID_18_">
		<use xlink:href="#XMLID_2_"  style="overflow:visible;"/>
	</clipPath>
	<path id="shadow_3_" class="st14" d="M69.2,162c0,0-3.7,1.8-5.4,6.9s-0.3,8.6,0.2,9.9c0.4,1.3,0.7,1.9,0.2,3s-1.5,2-1.5,2l2.7,3.7
		c0,0-0.7-2.7-0.8-5.7c-0.1-3,0-5.7,2.1-9.7c2.1-4,2.5-4.6,2.7-5.9C69.5,165,69.2,162,69.2,162z"/>
	<path id="shadow_2_" class="st14" d="M75.2,178.1c0,0-0.9,3.2-0.7,6.7c0.1,3.6,0.7,3.2,1.8,3.4s4.6,0,4.6,0l5-5.7L75.2,178.1z"/>
</g>
<g id="arm_2_">
	<defs>
		<path id="XMLID_1_" d="M84.3,156.6c0.9-0.8,1.8-0.4,3.9-0.2c2.1,0.2,4.9,1.4,8.6,4.5c3.7,3.1,16.2,15.3,19.4,18.7
			c3.8,3.9,8.1,9.6,8.3,9.6c0.3,0,2.1-0.3,3.4-0.3c1.3,0,2.9,1.3,4.7,1.4s3.6-1.4,4.4-1.5c0.8-0.1,1.1-0.1,1.8,0.8
			c0.6,0.9,3.4,5.7,4.6,8c1.2,2.4,2,4,1.8,5.7c-0.1,1.7-0.6,4.6-0.6,4.6s-0.3,0.4-1.3-0.3c-1-0.7-2.9-2.2-3.7-2.3
			c-0.8-0.1-3,1.4-5.1,2.7s-4.1,2.2-4.8,2.8c-0.8,0.7-1.7,1.7-2.9,1.4c-1.2-0.2-9.8-4.9-12.3-6.3c-2.5-1.4-4.4-2.6-5.2-5.3
			c-0.8-2.7-0.9-4-1.5-4.4c-0.5-0.4-8-4.6-16-7.4c-8-2.8-16.8-6-17.3-7s0.1-8.5,2.7-15.2C79.8,160.4,83.2,157.7,84.3,156.6z"/>
	</defs>
	<use xlink:href="#XMLID_1_"  style="overflow:visible;fill:#C6B397;"/>
	<clipPath id="XMLID_19_">
		<use xlink:href="#XMLID_1_"  style="overflow:visible;"/>
	</clipPath>
	<path id="shadow_1_" class="st15" d="M85.5,154.6c0,0,0.7,2.4-0.3,5c-1,2.5-3.7,5.6-4.8,9.3s-2.1,6.4-0.2,8.2
		c1.9,1.8,5.5,4.4,9.6,6.2c4.1,1.8,11.5,4.9,17.8,7.9s17.5,9.4,17.5,9.4s-1.7,1.7-1.8,3.2c-0.2,1.6,1.6,3.3,3,4.5s4.5,3.1,4.5,3.1
		l-4.4,9.2l-58.6-32.9l8.1-36.9L85.5,154.6z"/>
</g>
</svg>
