<?xml version="1.0" encoding="utf-8"?>
<!-- Generator: Adobe Illustrator 23.0.0, SVG Export Plug-In . SVG Version: 6.00 Build 0)  -->
<svg version="1.1" id="Layer_2" xmlns="http://www.w3.org/2000/svg" xmlns:xlink="http://www.w3.org/1999/xlink" x="0px" y="0px"
	 viewBox="0 0 98 242" style="enable-background:new 0 0 98 242;" xml:space="preserve">
<style type="text/css">
	.st0{fill:#C5B297;}
	.st1{clip-path:url(#XMLID_6_);fill:#AD936B;}
	.st2{clip-path:url(#XMLID_11_);fill:#A1996B;}
	.st3{fill:#222222;}
	.st4{clip-path:url(#XMLID_12_);fill:#AD936B;}
	.st5{fill:#C1BB1D;}
	.st6{fill:#EFEFD3;}
	.st7{clip-path:url(#XMLID_13_);}
	.st8{clip-path:url(#XMLID_14_);fill:#1E511C;}
	.st9{fill:#484D35;}
	.st10{fill:#F6EAA6;}
	.st11{clip-path:url(#XMLID_15_);fill:#AD936B;}
	.st12{fill:#508E50;}
	.st13{fill:#DACE60;}
	.st14{clip-path:url(#XMLID_16_);fill:#A1996B;}
	.st15{clip-path:url(#XMLID_17_);fill:#AD936B;}
</style>
<polygon id="legs" class="st0" points="-43.4,269 -51.1,278.1 29.8,293.5 39,287.8 24,266.1 "/>
<g id="arm-l">
	<defs>
		<path id="XMLID_4_" d="M-44.9,150.4c0,0-5.3,2.3-13.5,7.2c-8.2,5-21.9,13.8-25.9,17c-5.7,4.6,16.1,3.1,16.1,3.1s1.8-1.7,8.9-4.1
			s16-5,20.1-7.2C-35,164.3-44.9,150.4-44.9,150.4z"/>
	</defs>
	<use xlink:href="#XMLID_4_"  style="overflow:visible;fill:#C6B397;"/>
	<clipPath id="XMLID_6_">
		<use xlink:href="#XMLID_4_"  style="overflow:visible;"/>
	</clipPath>
	<path id="shadow_4_" class="st1" d="M-89.6,188c0,0,8,1.8,9.7,2.2s2.1,0.5,2.2,0.5s0.5-1.4,0.5-1.4s2.1,2.2,3.5,3.7
		s1.6,1.8,1.6,1.8l3.3,1.5l-1.1,4.3l-22.9-5.7L-89.6,188z"/>
</g>
<g id="shirt">
	<defs>
		<path id="XMLID_3_" d="M-12.7,129.4c0,0-2.4-1-5.7,1.7c-3.3,2.8-12.2,9.6-15.3,11.9c-3.1,2.3-4.9,3.8-6.2,3.5s-3.5-0.7-3.5-0.7
			s-1.6,0.5-2.8,6.3s-0.3,8.7,1.7,11.7c2.1,3,3.1,2.7,5,4.2c2.4,1.9,7.1,2.7,7.1,2.7l1.2-4.6c0,0-0.9-0.9-0.5-1.4
			c0.3-0.5,3.7-1.7,3.7-1.7s-1-0.1-0.3-2.4c0.7-2.2,6-4.2,8.1-5.1c2.2-0.9,12.1-3.9,12.1-3.9L39,206.5l17.4-12.9l3.2-9.8l-13.2-38.4
			L27,139.7c0,0-33.1-15-33.3-14.8C-6.4,125.2-12.7,129.4-12.7,129.4z"/>
	</defs>
	<use xlink:href="#XMLID_3_"  style="overflow:visible;fill:#F2EBBA;"/>
	<clipPath id="XMLID_11_">
		<use xlink:href="#XMLID_3_"  style="overflow:visible;"/>
	</clipPath>
	<path id="shadow_3_" class="st2" d="M-18.2,143.7l-5.3-1.5c0,0-0.3-0.9,0.4-1.8c-2.2-0.2-5.2,1-9.7,3.9s-6.5,4.3-7.3,8.4
		c-0.4-0.4-0.4-1.5-0.4-1.5s-2.2-0.9-2.5,0.4c-0.3,1.4,0.7,2.9,1.2,4.5c0.5,1.7,0.5,2.5,0.5,2.5s-1.5,0.3-3.1-1.1s-3.2-3.8-3.2-3.8
		l-0.6,8.9l-0.6,9.4l22,3.4l81.5,28.7l5.8-16.2l-24.4-29.8l-8.3-1.6l-0.6-16.3L9,132.8l-19.1-3.8L-18.2,143.7z"/>
</g>
<g id="head_1_">
	<path class="st3" d="M61,102.5c0,0,2.6,10.5-2.6,22.2s-11.1,13.7-11.1,13.7s3.4-7.5,5-15.8s0.5-14.9,0.5-14.9L61,102.5z"/>
	<g id="face">
		<defs>
			<path id="XMLID_2_" d="M54.1,118.4c0,0-1,3-3,6.1c-2,3-10.5,13.8-12.3,14c-0.4,0-7-2.2-8-2.5l-2.1,5.6c0,0-4.4,3.9-12.2,2.8
				c-7.8-1.1-19.3-9.3-19.3-9.3l18.9-25.5l28.1-7.6l8.4,5.8L54.1,118.4z"/>
		</defs>
		<use xlink:href="#XMLID_2_"  style="overflow:visible;fill:#C6B397;"/>
		<clipPath id="XMLID_12_">
			<use xlink:href="#XMLID_2_"  style="overflow:visible;"/>
		</clipPath>
		<path id="shadow_2_" class="st4" d="M51.8,117.9c0,0-1.8,1.6-5.1,1c-3.3-0.6-5.1-1-5.1-1s0.7-1.7,0.9-2.4c-2,0.3-5.7,2.4-5.7,2.4
			l2.2-7l-5,4.7c0,0-3.4,2.4-4.5,6.1c-1.1,3.7-2.1,11.2-2.1,11.2l2.2,2.5c0,0,1.1,0.8,4.1,1.7c3,1,5.6,1.9,5.6,1.9l-2.5,2.9
			l-20.9,6.6l-25.1-16.1l28.7-18.1l24.8-14.5l11.5,6.6l0.6,10.7L51.8,117.9z"/>
	</g>
	<path class="st5" d="M49.8,67.8c0,0,18.4,5.4,15.7,22.7s-6.7,20.9-17.5,27.4S49.8,67.8,49.8,67.8z"/>
	<path class="st6" d="M55.3,105c-0.5-0.2-1.1-0.4-1.7-0.4c-0.7,0.1-1.2,0.3-1.3,0.8c-0.2,0.2-0.2,0.4-0.2,0.7
		c-0.3-0.1-0.7-0.1-1.1-0.1c-0.6,0.1-1.2,0.4-1.6,0.9c-0.3,0.4-0.5,0.9-0.5,1.5c0,0.4,0.1,0.7,0.2,0.9c-0.2-0.1-0.5-0.1-0.7-0.2
		c-0.5,0.1-0.8,0.5-1,1.2c-0.3,1.1-0.2,2.4,0.3,3.7l-0.7,1.6c-0.2,1.4,0.2,2.6,1,3.5c0.8,0.9,1.4,1.3,2,1.4c0.4,0,0.6-0.2,0.8-0.4
		l0.4,1.4c0.7,0.9,1.4,1.3,2.4,1.4c1.1,0,2-0.4,2.8-1.2l1-1.1l1.2,0.3c0.9,0.1,1.8-0.3,2.6-1.1c0.9-0.9,1.3-1.9,1.2-3l-0.4-1.5
		c0.4-0.4,0.7-0.9,0.9-1.4c0.5-1.1,0.6-2,0.4-2.8c-0.3-0.8-0.8-1.6-1.5-2.3l-0.9-0.7c-0.1-0.3-0.2-0.6-0.5-1.2
		c-0.4-0.8-1-1.5-1.7-2.2c-0.6-0.5-1.2-0.5-1.8,0c-0.4,0.2-0.7,0.4-0.9,0.7C55.9,105.4,55.7,105.2,55.3,105z"/>
	<g>
		<defs>
			<path id="XMLID_5_" d="M-8.2,61.1c-20.7,21.1-24.9,52.6,0.1,65.7s46.8,0.1,56.2-8.9s21.3-25.2,10.5-52.1S10.3,42.2-8.2,61.1z"/>
		</defs>
		<use xlink:href="#XMLID_5_"  style="overflow:visible;fill:#222222;"/>
		<clipPath id="XMLID_13_">
			<use xlink:href="#XMLID_5_"  style="overflow:visible;"/>
		</clipPath>
		<path class="st7" d="M67.9,85.8c0,0-15.3,33.5-50,30.4c-34.7-3.1-53-20.1-53-20.1l-5.1,29.9l102.4,28.2L67.9,85.8z"/>
	</g>
</g>
<g id="overalls">
	<defs>
		<path id="XMLID_9_" d="M-14.4,130.1c0,0-2.6,6.6-3.4,8.8c-0.9,2.3-1.6,4.2-1.1,4.8s3.6,5.4,6.7,10.8s5,9.8,6.2,16.9
			c1.3,7.1,0.9,8.3-0.1,13.1c-0.3,1.2-0.9,6.7-4.7,13c-1,1.7-3.5,10.7-4.6,12.5c-1.8,3-5,8.9-7.2,12.2c-2.5,3.8,0.7,6.3-2,9.9
			c-9.7,13-18.8,16.4-21.3,17.7c-2.5,1.3-2.6,3.4-4.6,5.6c-2,2.2-2.9,3.7-4.4,4.4c2.7,2.3,8.1,7.5,11.3,11c3.2,3.5,5.8,7.6,5.8,7.6
			l40,8c0,0,7.9-3.9,13.7-7.5s7.5-4.8,8.8-6.4c1.7,1.6,2.6,2.8,3.5,4.6c0.9,1.8,0.7,3.7,1.3,4.5c0.6,0.8,2,0.7,4.8,4.4
			c2.8,3.7,7.8,9.8,7.8,9.8l10,1.7c0,0,9.5-1.7,16.3-2.6s8.9-0.8,9.6-1.2c0.7-0.5,4.7-5.5,11.5-10.2c6.7-4.7,9.5-5.6,13-5.3
			c-1.5-6-8.6-18.3-8.6-18.3l-10.4-17.5c0,0-4.8-5.8-7.2-8.5c-2.4-2.6-3.6-4-5-5.9c-1.3-1.8-2.4-6.3-4.4-10.1s-4.8-9.8-4.8-9.8
			l-1.7-3.5c0,0-0.3-1.1-0.7-1.5c-0.4-0.5-1.1-0.5-1.1-0.8c-0.1-0.3,0.4-10.1,0.4-10.1l-2.4-3c0,0-3,1.9-5.5,3.2
			c-2.5,1.4-6,3.6-7.2,3.5c-1.2-0.2-4.1-2.5-7-6.8c-2.9-4.3-5.6-8-6.5-12.5c-0.9-4.5-0.1-7.4,0.1-11.4c0.1-4-0.1-5.2,0.7-7.8
			c0.8-2.6,6.4-6.8,6.4-6.8l10.8-3.2c0,0,0.4-2.2,0.3-2.4c0-0.3-3-0.8-3.2-0.8c-0.9-0.2-0.5-2-0.5-2s-1.1,0.3-3.4-0.4
			c-2.3-0.7-2.3-0.7-2.3-0.7l-10.6,0.4c0,0-8.4,2.3-13.4,6.4s-9.4,5.4-11.1,5.2s-4.5-1.5-8.4-5.3c-3.9-3.8-5.7-5.5-5.1-9
			c0.7-3.5,2.9-3.7,2.9-3.7l4.5-2.9l-7.4-2.5L-14.4,130.1z"/>
	</defs>
	<use xlink:href="#XMLID_9_"  style="overflow:visible;fill:#518F50;"/>
	<clipPath id="XMLID_14_">
		<use xlink:href="#XMLID_9_"  style="overflow:visible;"/>
	</clipPath>
	<path id="shadow_12_" class="st8" d="M-16.7,132.9c0,0,2.3,3.9,3.3,5.9s2.1,4.5,2.4,4.8c0.3,0.3,0.7,0.4,1.4,1.2s2.6,4.3,5.9,7.4
		c3.3,3.1,6.1,5.6,7.3,6.2c1.2,0.6,1.2,0.1,1.2,0.1s1-1.9,3.7-3.6c2.6-1.7,6.9-4.9,9.7-7.2c2.8-2.3,4.4-4.7,4.4-4.7l0.3-9l-39.3-9.4
		L-16.7,132.9z"/>
	<path id="shadow_11_" class="st8" d="M-12.8,155.3c0,0,3.3,1.9,7.4,7.4c4.1,5.5,4.5,7.7,8.5,11.4c3.9,3.7,7.1,4.2,7.1,4.2
		s-1.4,2-4.7,1.5c-3.3-0.5-3.9-0.8-3.9-0.8s-0.2,2.2,2.7,4.9c2.8,2.6,6.7,5.4,6.7,5.4s-2.5-0.3-5.1-1.7s-4.2-2.6-6.7-2.8
		s-4.6,0.6-4.6,0.6l-4-4.6L-12.8,155.3z"/>
	<path id="shadow_10_" class="st8" d="M59.7,195.1c0,0-6.7,4.2-8.3,5.2c-1.6,1.1-2.6,2.1-4,3.5s-4.1,4.1-9.8,6.9s-8.8,3.8-10.8,3.5
		s-8.5-5-8.5-5s4.8,4.8,9.9,6.8c5.1,2,12.5,3.8,13.4,4c0.9,0.2,0.9-0.4,2.2-1.7c1.3-1.3,4.9-4.1,9.1-6.2s6.7-3.7,6.7-3.7l5.9-4.7
		L59.7,195.1z"/>
	<path id="shadow_9_" class="st8" d="M-1.2,228.8c0,0,9.6,1.9,11.1,2.2c1.5,0.3,2.4,1.6,3.8,4.1c1.3,2.5,2.4,7.8,2.4,7.8
		s-18.2-4-18.4-3.8c-0.2,0.3-0.9,3-0.6,6c0.3,3,1.6,6.2,1.6,6.2s-3.5,0.1-7.6,1.7s-5.2,3.5-4.8,4.1c0.4,0.6,3.2,1.6,9.2,2.9
		s14.4,1,14.4,1s-0.3,1.7-0.2,2c0.2,0.3,0.9,1,4.8,1.2c3.8,0.2,8.6-0.8,15.1,0.8c6.5,1.5,9,5.4,9.4,10c0.4,4.6,1.5,9.3,2.5,9.7
		c1,0.4,8.9-1.6,13.2-2.7s7.6-2.1,10.1-3.3c-0.9,5.8-3,16.7-2.8,16.8c0.2,0,4.4-3.8,12.9-6.9c8.5-3.1,16-4.6,16-4.6L78,303.9
		l-91.8-14l0.9-7c0,0,0.6-3.2-3.4-6.8c-4-3.6-5.4-4.1-7.7-6.6c-2.3-2.5-2.5-3.5-2.5-3.5s1.5-1.9,6.7-1.4s5.6,0.7,5.7,0.4
		c0.1-0.3-0.5-0.9-0.6-1.5s0-1.1,0-1.1s-2.7-0.9-3.6-1c-0.9-0.1-6.4,2.4-12.4,0.7c-5.9-1.7-7.4-3.9-8.6-5.4c-1.2-1.5-2.1-2.9-2.6-3
		c-0.4-0.1-1.5,1.7-4.3,4.5c-2.7,2.8-5,4.2-5,4.2s0.9-3.2,0.5-4.2s-2.1-2.1-2.1-2.1l24.8-33.8L-1.2,228.8z"/>
</g>
<path id="belt" class="st9" d="M-8,186.8c-0.4,0.3-8.7,19.4-8.8,20.5c-0.1,1.1,19,10,41.5,13.4s41.6-2.8,41.9-5.2
	s-5.2-19.2-6.4-19.6c-1.2-0.4-11.9,4.6-32.1,2.4C3,195.6-7,186.2-8,186.8z"/>
<g id="studs">
	<circle class="st10" cx="59.8" cy="213.7" r="2.5"/>
	<circle class="st10" cx="-5.1" cy="194.3" r="2.5"/>
	<circle class="st10" cx="-9.4" cy="205" r="2.5"/>
	<circle class="st10" cx="25.4" cy="202.8" r="2.5"/>
	<circle class="st10" cx="23.2" cy="215.2" r="2.5"/>
	<circle class="st10" cx="57.5" cy="201.2" r="2.5"/>
</g>
<g id="arm">
	<defs>
		<path id="XMLID_8_" d="M84.7,202c0,0,2.6,4.6,6,12.6c3.4,8,2.2,9.8,5.1,15c2.9,5.1,5.8,13.1,6.9,16.5c1,3.4,1.3,5.5,0.5,5.7
			c-0.8,0.3-1.8-0.4-3,0.6s-4.1,3-6.6,4c-2.4,1-2.9,1.6-5.6,0.8s-4.5-1.3-5.5-1.8c-1-0.5-0.9-1.1,0-2c0.9-0.9,1.6-2.4,1.8-4
			c0.2-1.6-1.8-3.4-1.4-5.3c0.4-2,2.3-6.5,2.4-7.2c0.1-0.7,0.2-0.7-0.7-1.7S74,221.6,71.3,218.4c-2.7-3.1-8-10.8-8-10.8L84.7,202z"
			/>
	</defs>
	<use xlink:href="#XMLID_8_"  style="overflow:visible;fill:#C6B397;"/>
	<clipPath id="XMLID_15_">
		<use xlink:href="#XMLID_8_"  style="overflow:visible;"/>
	</clipPath>
	<path id="shadow_8_" class="st11" d="M67.2,208.4c0,0,1.5,4.2,6.6,10.7c5.7,7.3,15,14.6,15,14.6s-1.6,6.5-2.2,7.1
		c-0.6,0.7-4.7,2.7-4.7,2.7l-20.3-32.8L67.2,208.4z"/>
</g>
<g id="breacelet-r">
	<path class="st12" d="M84.6,235.1c0,0-2.5,6.2-2.8,7.5c-0.3,1.3,1.9,2.7,8.2,1.7s7.4-2.7,10.8-3.9c3.5-1.2,2.9-3.1,2.9-3.1
		l-8.8-8.5L84.6,235.1z"/>
	<path class="st9" d="M86,222.9c-4.6,2.2-9.3,2.9-9.3,2.9l7.8,10.1c0,0,2.1,0.3,7-2.1c4.8-2.4,5.2-3.8,5.2-3.8L93,218.6
		C93,218.6,90.6,220.6,86,222.9z"/>
	<path class="st13" d="M86.1,221.7c-4.4,2-10.8,2.5-10.1,4s7.2-0.2,11.1-2.1s7.4-3.8,6.8-5.3C93.3,216.9,91.2,219.4,86.1,221.7z"/>
</g>
<g id="sleeve">
	<defs>
		<path id="XMLID_7_" d="M57.2,148.8c0.8,0.7,7.4,14.2,10.8,20.7c3.4,6.5,8.6,17.2,9.5,19.2c0.9,2,1,2.8,3.7,4.1
			c2.7,1.2,6.6,2.1,6.6,2.1s0.5,2.9,0.5,4.3c0,1.3,0,2.6-1,3.1c-1,0.5-6.6,3.8-11.1,5.5c-4.5,1.7-5.5,2.5-7,2.2
			c-1.5-0.2-3-0.2-4.4,0.8c-2.1,1.3-4.6,4.3-4.6,4.3s-2.8-2.5-2.2-6.2c0.6-3.6,2.8-5.9,3.1-6.5c0.3-0.5,0.5-1.3,0.2-1.9
			c-0.3-0.6-3.9-10.1-9.9-18.2c-5.9-8.1-14.2-17.2-15.2-21.6c-1-4.4-1.5-6.9-0.6-9.3c1-2.4,3.9-6,12.3-4.9
			C53.6,147.3,56.8,148.5,57.2,148.8z"/>
	</defs>
	<use xlink:href="#XMLID_7_"  style="overflow:visible;fill:#F2EBBA;"/>
	<clipPath id="XMLID_16_">
		<use xlink:href="#XMLID_7_"  style="overflow:visible;"/>
	</clipPath>
	<path id="shadow_7_" class="st14" d="M34.8,157.9c0,0,6.1,1.1,8.8,2c2.7,0.9,4.3,1.7,4.1,2.4c-0.2,0.7-4.9,0.7-5.2,0.9
		c-0.3,0.3,2.7,4,4.3,6.3c1.5,2.3,4.4,6.2,5.9,7c1.5,0.8,3.4,1.4,3.4,1.4s-0.6,1.7-0.3,2.4c0.4,0.7,3.9,5.3,6.5,8.6
		c2.6,3.3,4.2,6.4,5.3,7.1s2.4,0.8,2.4,0.8s-2.2,0.7-3.4,2.9c-1.1,2.2-1.3,4.4-1.1,4.8c0.2,0.4,1.9-0.9,2.7-1.4
		c0.8-0.5,1.9-1.2,2.9,0.3c1,1.5,1.1,2.4,2.4,3.4c1.3,1,3.7,1.5,3.7,1.5l-7.1,10l-15.1-3.6l-25.8-57.1L34.8,157.9z"/>
</g>
<g id="hand-l">
	<defs>
		<path id="XMLID_10_" d="M-84.2,174.7c-5.7,4.6-6.6,12-6.5,12.4c0.2,0.4,1.3,0.4,1.7,0.8c0.3,0.4,3.1,4.2,3.4,4.7
			c0.3,0.6,1.2,0.7,2.2,0.6c1-0.1,1.7-0.2,2.8,0.1c1.1,0.3,1.9,0.6,3.8,1.7c1.8,1.1,5.8,3.4,5.8,3.4s0.8-1.5,0.4-2
			c-0.4-0.5-1.8-1.4-1.7-1.9c0.1-0.4,2-5.4,2.8-7s2.1-4.7,2.3-6c0.3-1.3-1-3.8-1-3.8S-80.3,171.4-84.2,174.7z"/>
	</defs>
	<use xlink:href="#XMLID_10_"  style="overflow:visible;fill:#C6B397;"/>
	<clipPath id="XMLID_17_">
		<use xlink:href="#XMLID_10_"  style="overflow:visible;"/>
	</clipPath>
	<path id="shadow_13_" class="st15" d="M-89.6,188c0,0,8,1.8,9.7,2.2s2.1,0.5,2.2,0.5s0.5-1.4,0.5-1.4s2.1,2.2,3.5,3.7
		s1.6,1.8,1.6,1.8l3.3,1.5l-1.1,4.3l-22.9-5.7L-89.6,188z"/>
</g>
<g id="bracelet-l">
	<path class="st12" d="M-85.2,171.7l8.8-2.9l8.7,8.1c0,0,1.3,1.9,0.6,5.5c-0.8,3.6-1.5,4.5-1.5,4.5s-4.7-1.6-6.3-3.6
		c-1.6-2-8.9-4.7-10.2-7S-85.2,171.7-85.2,171.7z"/>
	<path class="st9" d="M-77.5,168.8c0,0-1.5,3,2.4,6.3c3.9,3.3,7.7,2.7,7.7,2.7l10.3-4.4c0,0-3.6-0.8-6.5-5.5c-3-4.8-1.7-6.5-1.7-6.5
		L-77.5,168.8z"/>
	<path class="st13" d="M-64.6,168.3c3.4,4.8,7.2,6.3,8.3,5.5c1.3-1-3.4-1.2-6.6-6.1c-3.2-4.9-1-7-2.2-7.1
		C-66.7,160.5-67.4,164.3-64.6,168.3z"/>
</g>
</svg>
