<?xml version="1.0" encoding="utf-8"?>
<!-- Generator: Adobe Illustrator 23.0.0, SVG Export Plug-In . SVG Version: 6.00 Build 0)  -->
<svg version="1.1" id="Layer_2" xmlns="http://www.w3.org/2000/svg" xmlns:xlink="http://www.w3.org/1999/xlink" x="0px" y="0px"
	 viewBox="0 0 98 242" style="enable-background:new 0 0 98 242;" xml:space="preserve">
<style type="text/css">
	.st0{clip-path:url(#XMLID_3_);}
	.st1{fill:#2B2F33;}
	.st2{clip-path:url(#XMLID_7_);fill:#8693A0;}
	.st3{clip-path:url(#XMLID_7_);fill:#646D77;}
	.st4{clip-path:url(#XMLID_7_);fill:#5A626B;}
	.st5{clip-path:url(#XMLID_8_);fill:#B4C9DC;}
	.st6{clip-path:url(#XMLID_9_);fill:#B69E7C;}
	.st7{clip-path:url(#XMLID_10_);fill:#B69E7C;}
	.st8{clip-path:url(#XMLID_11_);fill:#5F703A;}
	.st9{fill:#252627;}
	.st10{clip-path:url(#XMLID_12_);fill:#636569;}
	.st11{clip-path:url(#XMLID_12_);fill:#63675C;}
	.st12{clip-path:url(#XMLID_12_);fill:#717469;}
	.st13{clip-path:url(#XMLID_12_);fill:#787D71;}
	.st14{clip-path:url(#XMLID_12_);fill:#8C9287;}
	.st15{clip-path:url(#XMLID_13_);fill:#636569;}
	.st16{clip-path:url(#XMLID_13_);fill:#2E2F30;}
	.st17{clip-path:url(#XMLID_16_);fill:#B69E7C;}
	.st18{clip-path:url(#XMLID_17_);fill:#B69E7C;}
	.st19{clip-path:url(#XMLID_18_);fill:#B69E7C;}
	.st20{clip-path:url(#XMLID_18_);fill:#D5C7B3;}
	.st21{clip-path:url(#XMLID_26_);fill:#9D9D9D;}
	.st22{clip-path:url(#XMLID_27_);fill:#9D9D9D;}
	.st23{fill:#D5D5D5;}
	.st24{fill:#DC8181;}
</style>
<g>
	<defs>
		<rect id="XMLID_4_" x="1" y="1" width="96" height="240"/>
	</defs>
	<clipPath id="XMLID_3_">
		<use xlink:href="#XMLID_4_"  style="overflow:visible;"/>
	</clipPath>
	<g id="body" class="st0">
		<path id="pipe_1_" class="st1" d="M-46.9,59.9c0,0,0.9-4.7,1.5-6.9s1.3-4.7,1.9-4.8s5.7-0.1,7.9,0.2c2.2,0.3,4.8,0.5,4.8,0.5
			s1-4.3,0.6-7.3C-30.7,37-38,24.1-63,26.6c-15.9,1.6-21.8,16-23.6,23.2s-2.3,11.8-2.5,15c-0.2,3.2-0.7,5.4-2.4,8.9
			s-3.3,6.6-5.4,9.7c-2.1,3-6.8,8.8-9.8,13.6c-2.7,4.5-4.9,9.4-4,18.1s3.1,14.3,7,18.6c3.9,4.3,5.3,5.4,5.3,5.4l-3.7,4.4l-6.7,7.9
			c0,0-13.3-11.5-15.7-35.8c-1.2-12.2,1.5-13.7,3.2-17.4c1.7-3.7,3.7-8.5,5.1-11.5s2.5-4.8,5.4-8.6c2.9-3.8,6.7-8.1,7.7-10.7
			s1.1-5.3,2.8-12.3c2-8.8,2-14.9,3-16.9c0.9-1.9,3.6-6,6.9-10.5s5.5-8.5,11.1-10.9c5.7-2.4,9.1-3.4,14.6-3.9
			c5.2-0.5,9.3-0.3,14.5,0.2c2.3,0.2,3.6,1.3,6.6,1.8c6.8,1.3,10.8,1.4,16.1,5.6c6.7,5.3,11.6,12.2,13.4,21.6s1.2,9.4,1.2,9.4
			L-1.8,54l-4,16.6L-46.9,59.9z"/>
		<g id="pack_1_">
			<defs>
				<path id="XMLID_25_" d="M-80.5,57.1c0,0,20.1-0.7,52.1,3.6s53,12,53,12l-34.9,126c0,0-32.7-2.6-54.2-5.9s-32-6.1-32-6.1
					s-2.4-39.2,2-73.2C-89.9,78.6-80.5,57.1-80.5,57.1z"/>
			</defs>
			<use xlink:href="#XMLID_25_"  style="overflow:visible;fill:#808C99;"/>
			<clipPath id="XMLID_7_">
				<use xlink:href="#XMLID_25_"  style="overflow:visible;"/>
			</clipPath>
			<path id="hilight_7_" class="st2" d="M-74.8,75.2c0,0-6,23.6-7.3,30s-2.6,10.3-2.1,13.8c0.5,3.5,0.5,5.3,0.2,9.5
				s-1.3,9.9-1.7,18.8c-0.4,8.9,0.4,15.3,0.5,20c0.2,4.7,0.2,4.7,0.2,4.7l7.4-0.3c0,0-2.9-11.3-2.1-23.2c0.8-11.9,2-27.9,5.1-39.8
				c3.1-11.9,6-24.7,9.3-27.9c3.3-3.3,3.3-3.3,3.3-3.3L-74.8,75.2z"/>
			<path id="shadow_37_" class="st3" d="M-41.6,80.4c0,0,3.3,28,2.1,55c-1.2,27-8.1,41.2-8.1,41.2l24.5,2.6L4.4,83.6L-41.6,80.4z"/>
			<path id="rim_3_" class="st4" d="M-90.2,79.7c0,0,25.1,0.3,57.2,4.7s38.5,5.3,38.5,5.3l16.8-10.4L13,56.9l-96.6-5.1L-90.2,79.7z"
				/>
			<path id="rim_2_" class="st4" d="M-99.4,161.9c0,0,18.3,4.5,37.6,7.4c19.3,2.8,62.6,7.8,62.6,7.8l-7.7,26.3l-95.6-10.7
				L-99.4,161.9z"/>
		</g>
		<g id="shirty_1_">
			<defs>
				<path id="XMLID_24_" d="M15.1,80.5C5.9,81.7,6,83.1,3.7,83.8c-2.3,0.8-2.2,0.4-4.9,2.1C-3.3,87.4-3.5,89-3.5,89
					s-5.1,0.7-9.8,2.2c-4.7,1.5-9.5,3.4-9.5,3.4s-7.1-1.6-8.9-1.2c-1.7,0.4-8.4,4.3-16.2,8.3c-7.8,4.1-12,6.4-13.5,7.3
					c-1.5,0.9-2.3,1.6-2.3,1.6s-2.8-1-4.2-1.2c-1.3-0.1-2.4-0.2-3.8,0.5s-5,3.8-8.1,6.5c-3.1,2.7-7.9,7.2-7.5,8.9
					c0.4,1.7,0.8,2.1,2.2,3.5c1.4,1.4,7,6.7,7,6.7l28.2,11c0,0,1.9-2.1,3.9-2.9c2-0.8,4.1-1.2,4.3-4.5s-2.3-4.1-2.4-7.2
					c0-1.5-0.1-1.3,0.8-2.5s1.8-2.9,4.9-5.2c3.1-2.3,4.9-3.8,4.9-3.8s2.1,1.6,3.1,12.4c1,10.8-0.3,18.4-0.6,27.3
					c-0.3,9,0.2,14.5,0.2,14.5l78.3-28.7c0,0,1.5,0.9,5.2,6.6c3,4.6,3.3,4.6,3.8,10.3c0.6,5.6,35.2-12,35.2-12l2.1-0.6l-3.6-4.3
					l2.8,0.6c0,0-6.9-5.9-9.7-8.5s-4.7-5-5.6-4.8c-0.8,0.2-2.9,2.7-2.9,2.7s-7.9-7.3-12.6-11.6s-13.2-14.2-13.2-14.2l-9.1-22.4
					L15.1,80.5z"/>
			</defs>
			<use xlink:href="#XMLID_24_"  style="overflow:visible;fill:#DCE4EF;"/>
			<clipPath id="XMLID_8_">
				<use xlink:href="#XMLID_24_"  style="overflow:visible;"/>
			</clipPath>
			<path id="shadow_36_" class="st5" d="M-53.4,132.2c0,0,1.1,0,2.9,2.3c1.8,2.3,4,6,4,6s-1.1-4.4-3.4-9.6s-7.3-16-7.3-16
				s3.7,5.5,5,7.4c1.4,1.9,1.9,2.3,2.2,0.8c0.3-1.4-0.9-6.2-1.7-9c4.6,6.1,6.4,12.1,6.4,12.1s11.5-8,14-9.6c2.5-1.6,7.8-5.3,7.8-5.3
				L-2.8,135l15.2,2.2c0,0,5.8-2.5,10.7-6c4.9-3.5,9.1-6.7,9.1-6.7s-5-9-5.7-12.3c-0.7-3.3,3,2.7,3,2.7s1.1-0.2,1.8,0.8
				s4.7,5.8,4.7,5.8s0.3-3.8,0.2-5.7c-0.1-1.9-0.5-2.9,0.6-3.8c1.1-0.9,6.7-4.7,6.7-4.7l4,36c0,0,2.6,2.2,4.2,4.2
				c1.6,2,3.6,4.3,3.6,4.3s4.4-6.2,7-9.1c-3.4,5.4-3.2,7.4-3.2,8.8c0,1.3-0.3,2-0.3,2s4-2.5,6.2-5.5c-2.8,5.2-5.3,9.2-5.3,9.7
				c-0.1,0.5,0.6,1,2.4,2.7c1.9,1.6,2.5,2,3.3,1.2c0.8-0.8,22.1-14.8,22.1-14.8s2-0.8,3.9,0.1s3.6,4.1,3.6,4.1l-10.2,13.4
				l-121.9,19.3l-22.5-35.2L-53.4,132.2z"/>
			<path id="shadow_35_" class="st5" d="M-2.7,94.6c0,0-2.2,1.1-3.7,2.1S-8.9,99-8.9,99s1.6,0.7,5.3,4.9c3.6,4.2,6.9,9.2,9.7,13.8
				c2.7,4.6,7.4,11.5,7.9,12.2c0.5,0.7,0.6,0.4,0.7-0.6c0-0.9,1-8.5,0.9-8.7s-2.2-0.5-3.7-0.6s-2.2-1.1-3.6-3.5s-5.5-9.6-7.2-13.1
				S-1.6,98.1-2.7,94.6z"/>
			<path id="shadow_34_" class="st5" d="M16.1,82.1c-3.9,1-9.5,1.8-9.5,1.8s1.1,2.6,2.9,6.8s4.3,6.1,4.3,6.1l5.1-9.4L16.1,82.1z"/>
		</g>
		<g id="arm-r_3_">
			<defs>
				<path id="XMLID_23_" d="M-81.7,142.3c0,0-0.5-3.9-0.4-6.9s0.4-3.5,0.4-3.5l1.8,1.1c0,0-0.9-1.9,1.3-4.9c2.2-2.9,6.6-5.3,8.6-5.5
					s4.6,0.4,7.9,2.2c3.3,1.8,8.8,6.8,9.7,7.6c0.8,0.7,1.5,2.1,1.3,3.7c-0.2,1.6,0.5,3.7-0.4,4.7s-4.2,3.9-4.8,4.7
					c-0.6,0.8-0.6,0.8-0.6,0.8L-81.7,142.3z"/>
			</defs>
			<use xlink:href="#XMLID_23_"  style="overflow:visible;fill:#C6B397;"/>
			<clipPath id="XMLID_9_">
				<use xlink:href="#XMLID_23_"  style="overflow:visible;"/>
			</clipPath>
			<path id="shadow_33_" class="st6" d="M-80.9,131.4c0,0,3.8-2.1,9.5-2.1c8.7,0.1,16.5,5.2,16.4,7.6c0,2.4-2.3,3.6-2.3,3.6
				s1.4,1.2,2,2.4c0.6,1.1,1.2,2.1,1.2,2.1l5.3-0.2l-1.9-14.6l-17.2-10l-10.5,2.5L-80.9,131.4z"/>
		</g>
		<g id="arm-r_2_">
			<defs>
				<path id="XMLID_22_" d="M87.8,146.5c0,0,0.7,1.6,4.3,4c3.6,2.4,7.7,4.9,7.7,11.6c0,6.8-0.5,9.1-0.5,9.1l-32.5-5.4
					c0,0-3-5.4-0.4-8.9c2.7-3.6,7.5-7.7,13.9-9.3C86.6,146,87.8,146.5,87.8,146.5z"/>
			</defs>
			<use xlink:href="#XMLID_22_"  style="overflow:visible;fill:#C6B397;"/>
			<clipPath id="XMLID_10_">
				<use xlink:href="#XMLID_22_"  style="overflow:visible;"/>
			</clipPath>
			<path id="shadow_32_" class="st7" d="M95.1,151.4c0,0-5-1.2-11.1,0.7c-6.1,1.9-11.6,7.1-11.5,7.9c0.1,0.7,1.7,0.5,1.3,1.4
				c-0.3,0.9-2.3,4.3-2.3,4.3L61.5,165l2.1-15.2l23.9-5.4l7.4,3.2L95.1,151.4z"/>
		</g>
		<g id="overall_1_">
			<defs>
				<path id="XMLID_21_" d="M-16.9,92.2c0,0-1.9,1-1.5,1.6s0.8,0.2,0.8,0.8c0,0.4-1,0.8-1.2,1.5c-0.1,0.5,0.5,1.2,0.7,1.7
					c0.8,2.6,2,11.1,6.7,20.1c3.2,6,7.9,10.7,15.8,15.2c5.2,2.9,4.5,2.4,8.7,3.3s5.2,1.6,8.3,1.6c3.3-0.1,5.7-0.6,6.3-0.7
					c0.6-0.1,2.4-2.3,5.7-6.5c2.9-3.8,5.4-7.4,6.5-11.1c1.1-3.6,2.2-3.9,2.3-5.8c0.1-1.8-0.5-4.2-0.4-5.1c0.1-0.9,0.9-0.4,0.8-2
					c-0.2-3.4-3.3-7.5-3.3-7.5l10.6-2.8c0,0,0.1,4,0.4,7.2c0.3,3.1,1.2,4.6,1,8.1c-0.2,3.5-0.9,6.5-1.9,11.9c-0.9,5.4-2,14.2-1.1,23
					c0.9,8.8,3,17.2,4.1,24.7c1.2,8.6,2.3,14.1,3.3,21.4c1.1,8.3,3,22.5,6.1,29.7c2.9,6.7,4.4,15.5,1.8,20.7
					c-3.1,6.4-3.4,12.8-3.4,12.8l-172,20.4l3.9-7.2c0,0,0.8-6.1,3.3-15.1c2.6-9,5.4-16.5,5.9-17.4c0.5-0.9,0.9-1.1,3.6-3.7
					c2.7-2.5,10.9-10.6,15.3-14.7s9.7-9.1,11.5-9.8c1.7-0.7,3.1-1,4.9-2.1s13.7-8.3,15.2-9.2c1.5-0.9,4-3.2,5.8-3.3s3.1,0,3.8-0.5
					s1.8-1.9,2.1-2.5c0.6-1.3,0.5-4.2,0.4-7.1c-0.1-2.9-0.6-7.1-1-9.3c-0.4-2.2-0.9-5.1,1.7-3.8s3.4,2,5.9,1.9c2.5-0.1,5-7,5-7
					l3.9-15.2c0,0,0.8-2.1,0.9-5.3c0.1-3.2-1-18-2.7-25.1c-1.8-7.1-3.4-11.5-5.3-16.6c-1.9-5.1-2.3-6.7-2.2-7.7s0.3-1-0.2-1.4
					c-0.5-0.4-0.9-1.3-0.9-1.3s1.5-1.7,2.3-1.9c0.8-0.2,5.6-0.5,8.1-0.5C-18,90.8-16.7,90.9-16.9,92.2z"/>
			</defs>
			<use xlink:href="#XMLID_21_"  style="overflow:visible;fill:#96AD65;"/>
			<clipPath id="XMLID_11_">
				<use xlink:href="#XMLID_21_"  style="overflow:visible;"/>
			</clipPath>
			<path id="shadow_31_" class="st8" d="M-28.6,90.6c0,0,0.5,3.7,2.4,8.8c1.9,5.1,10.9,24.4,11.2,37.5s-2.7,22.1-2.7,22.1l-4.1,7.7
				c0,0-1.6,5-6.5,10.6s-6.7,6.2-9.2,7.1c-2.5,1,0.6,3.7,0.6,3.7s2.4,7.5,7.6,9.2c4.4,1.5,13.8,0.8,13.8,0.8s-15.6,5-29.5,11.5
				s-19.4,8.9-21.8,9.8c-2.4,0.8-3.5,1.2-5.2,2.7c-1.8,1.5-10.6,10-17.9,12c-7.4,2-11.2,3.2-11.2,3.2L-34.1,89L-28.6,90.6z"/>
			<path id="shadow_30_" class="st8" d="M46.2,99.2c0,0-0.7,8.3-1.4,13.6c-0.7,5.3-1.1,7.8-2.6,9.9s-3.6,5.1-5.2,7.4
				c-1.6,2.3-1.9,3.4-4.7,5.8c-2.8,2.4-5.2,3-7.8,3.4s-5.1-2.4-5.1-2.4L38.2,96l7.8-0.8L46.2,99.2z"/>
			<path id="shadow_29_" class="st8" d="M-17.5,174.5c0,0,14.9,9.4,24.4,16.2s31.5,21.4,31.5,21.4s-6.5-9-10.6-14.5
				s-10-12.2-10-12.2s5.3,2.2,10.5,4.5c5.2,2.3,9.4,4.7,11.1,4.7c-5.1-4.7-16.5-11.3-23-14.1C9.8,177.7-17.5,174.5-17.5,174.5z"/>
			<path id="shadow_28_" class="st8" d="M-63.5,264.8c0,0,1.5-2.1,3.4-2.8c1.7-0.7,2.6-0.6,2.6-0.6l-1.2,3.1L-63.5,264.8z"/>
		</g>
		<path id="handle-connection_1_" class="st9" d="M120.6,173c0,0,2-0.3,4.1,0.7s4.2,0.6,7.3,0.6c3.1,0,4.8,2.3,4.8,2.3l-3.3,14.6
			c0,0-3.5,0.7-5.8-0.1c-3-1.1-12.4-3-12.4-3L120.6,173z"/>
		<g id="vacuum-handle_1_">
			<defs>
				<path id="XMLID_20_" d="M-101.1,137.1c0,0-0.3,2.4-2.4,4s-4.1,2.1-5.2,4.3c-1.1,2.2-1,3-0.9,5.2c0.1,2.3,1.4,3.5,4.8,4.1
					S50.3,179,67,181.6s44.1,7.1,48,7.6c3.9,0.5,4.1-0.1,6.7-0.4c2.6-0.3,3.6-0.1,4.7-0.8c1.1-0.7,2.6-5.2,2.6-7.4s-2.5-3.4-4.2-4.7
					s-2.9-2-2.8-2.9s0.6-0.8-1.8-1.1c-2.3-0.3-26.4-4.3-26.4-4.3L7.3,154.2L-101.1,137.1z"/>
			</defs>
			<use xlink:href="#XMLID_20_"  style="overflow:visible;fill:#3E3F42;"/>
			<clipPath id="XMLID_12_">
				<use xlink:href="#XMLID_20_"  style="overflow:visible;"/>
			</clipPath>
			<polygon id="hilight_6_" class="st10" points="-105.7,140.9 151.1,181.2 129.6,184 -114.9,144.5 			"/>
			<polygon id="wraps-4_1_" class="st11" points="-9.2,150.2 -14,171 33.3,180.7 38.3,153.8 			"/>
			<path id="wraps-3_1_" class="st12" d="M-8.5,153.4l9,1.5c0,0,2.8,0.9,4.6,1.3s3.1,0.5,4.5,0.3s2.5-0.9,2.5-0.9s3,0.5,7.7,2.2
				c4.8,1.7,7.8,2.6,7.8,2.6l2.5,4l-12.8,6.8c0,0-2-1.2-4-1.3c-2-0.1-4.3,0.5-4.3,0.5s-4.8-0.5-7.2-0.8s-6.9-0.8-6.9-0.8l-4.9-4.6
				L-8.5,153.4z"/>
			<path id="wraps-2_1_" class="st13" d="M-14.9,149.4c0,0,1.5,8.2,2.3,12.2c0.7,4,1.9,9.7,1.9,9.7l39.7,7c0,0,11.3-9,17-15.6
				c5.7-6.6,5.3-7,5.3-7l-18.7-0.4c0,0-3.4,5.4-9.2,10.4s-9.4,7.7-11.7,8.3s-2.3,0.6-2.3,0.6l-12-3.2c0,0,0.2-3.2-0.5-6.3s-2-7-2-7
				l-0.8-8.9L-14.9,149.4z"/>
			<path id="wraps-1_1_" class="st14" d="M-24.7,167.8l21.8-16.6l38.2,6.3c0,0,1.5,2.7,3.8,10.4c2.3,7.7,3.4,11.2,3.4,11.2
				l-13.1-2.5c0,0-1.4-6.1-2.6-11.1c-1.2-5.1-2.7-9.3-2.7-9.3L13,154.4c0,0-1.1,4.9-1.4,10.4c-0.4,5.6,0.3,10,0.3,10l-7.3-2.4
				c0,0,1.1-6.2,2.3-10s2.2-8.7,2.2-8.7l-3.9-0.4c0,0-4.3,3.4-9,7.8C-8.5,165.6-14,171-14,171L-24.7,167.8z"/>
		</g>
		<g id="vacuum-head_1_">
			<defs>
				<path id="XMLID_19_" d="M139.7,161.1c-0.3,1.2-10,41.5-10.2,42.3c-0.2,0.8-0.4,1.2,0.2,1.5s3.9,2.8,5.1,4
					c1.2,1.2,1.4,2.1,1.6,3.5s0.1,2.4,0.4,2.5s2.3,2,5.9,5.2c3.6,3.2,9.8,9.1,10.3,9.4c0.5,0.3,3.5-0.6,6.2-1.5s3.4-0.9,3.9-1.7
					c0.5-0.8,9.8-19.9,14-41.5c4.5-23.1,4-32.9,4-33.2s-0.2-0.7-1.1-1.3s-6.5-5.2-6.7-5.4c-0.2-0.2-1.2-0.2-1.9,0
					c-0.7,0.2-4.6,1.4-10.3,3.3c-5.6,1.9-11.5,3.3-11.7,3.4s-0.5,0.5-0.7,1.1s-1.8,2.9-3,3.8c-1.1,0.9-3.6,2.1-4.4,2.3
					C140.5,159.1,140.2,159.4,139.7,161.1z"/>
			</defs>
			<use xlink:href="#XMLID_19_"  style="overflow:visible;fill:#3E3F42;"/>
			<clipPath id="XMLID_13_">
				<use xlink:href="#XMLID_19_"  style="overflow:visible;"/>
			</clipPath>
			<path id="hilight_5_" class="st15" d="M163.1,146.4c0,0,4.6,0.6,5.2,3.7c0.7,3.1,0.5,16.6-3.7,35.5c-4.2,18.8-5.5,28.9-9.6,34.4
				s-7.2,4.5-10.3,4l6.1,10.1l8.7-4.3l15.7-55.4l0.2-31l-10.7,0L163.1,146.4z"/>
			<path id="shadow_27_" class="st16" d="M172.7,142.7c0,0,0.4,17.9-2.9,34.3c-3.3,16.1-7.8,31-12.3,42.6
				c-4.4,11.6-5.6,12.9-5.6,12.9l14-3.7l13.5-26.1l5.3-57.8L172.7,142.7z"/>
		</g>
		<g id="hand-r_3_">
			<defs>
				<path id="XMLID_15_" d="M-64.9,140c-5.6-1-10.7-2.2-12.5,1c-1.8,3.2-3,7.6-3.3,12.7c-0.3,5.1,0.6,7.1,1.7,7.2s2-0.5,4.9,0.5
					s5.7,2.7,5.7,2.7s-0.4,2.3,0.8,2.8s3.1,0.4,6.5,0s6.9-0.7,7.2-1c0.4-0.2,0.8-3.5,0.8-3.5l-2.1-0.8c0,0,0.2-3.1,0.9-6.1
					c0.7-3,0.2-7.3,0.1-8.9S-55.1,141.8-64.9,140z"/>
			</defs>
			<use xlink:href="#XMLID_15_"  style="overflow:visible;fill:#C6B397;"/>
			<clipPath id="XMLID_16_">
				<use xlink:href="#XMLID_15_"  style="overflow:visible;"/>
			</clipPath>
			<path id="shadow_20_" class="st17" d="M-69.8,164.3c0,0,3.7,0.2,4.5-0.1c0.9-0.3,2.3-5.9,3.4-9.2s1.7-6.6,2.2-6.6
				c0.5-0.1,1,2.1,0.5,6.2c-0.5,4.1-1.6,9.7-1.7,10c-0.1,0.3,0.9,0.6,1.6,1.2c0.7,0.6,2.4,0.3,2.9,0.2c0.5-0.1,1.7-5,1.7-5l3.4,0.6
				l-1.6,6.4l-15.7,0.4L-69.8,164.3z"/>
		</g>
		<g id="hand-r_2_">
			<defs>
				<path id="XMLID_14_" d="M80.1,161.9c-5.2,0.4-7.3,0.1-8.9,5.2c-1.6,5-2.3,7.5-2.6,10.1c-0.3,2.6-0.6,4.2-0.6,4.2
					s-1.9-0.9-3.1,0.7c-1.2,1.5-0.8,2.8,0.6,4.5c1.4,1.7,3.7,3.8,5.5,3.8c3.1,0,4.2-0.1,4.8-0.6c0.5-0.5-1.1-1.7-0.9-2.1
					c0.2-0.3,0.8-0.4,1.3-0.1s0.6,0.9,2.7,0.8c3.3-0.2,2.5-1,4.6-1.2c2.1-0.2,4.4-0.4,4.9-0.5c0.5-0.1,0.3-0.6,0.8-0.6
					c1.3-0.1,0.7,0.1,1.7,0.2c1,0.1,2.6,0.2,4.8-2c2.2-2.2,2.7-6.9,3.2-10.8c0.5-3.9,0.2-5.9-3.5-8.5
					C92,162.6,85.8,161.5,80.1,161.9z"/>
			</defs>
			<use xlink:href="#XMLID_14_"  style="overflow:visible;fill:#C6B397;"/>
			<clipPath id="XMLID_17_">
				<use xlink:href="#XMLID_14_"  style="overflow:visible;"/>
			</clipPath>
			<path id="shadow_19_" class="st18" d="M66.2,179.5l1.9,1.8c0,0,1,0.7,1.9,1.3c0.9,0.6,0.8,1.3,1.3,1.2c0.5-0.1,0.9-0.4,2.6-3.4
				c1.7-3,4-9.4,4-9.4s-0.5,4.4-1.6,7.6c-1.1,3.1-1.5,6.9-1.5,6.9s0.8,0.4,2-0.4c1.2-0.9,2.6-1.3,3.6-1.2c1.4,0.1,1.4,0.9,2.1,1.1
				c0.8,0.2,1.4,0,2.5-0.2s3-2,4.3-2c1.8-0.1,2.3,0.7,3.8,1.3c1.5,0.6,3.4,0.8,3.4,0.8l1.3,5.3l-30.1,2.5l-7.2-9.7L66.2,179.5z"/>
		</g>
	</g>
	<g id="head_2_" class="st0">
		<g id="head">
			<defs>
				<path id="XMLID_1_" d="M12.3,96.5c0,0-0.1,1.9,1.5,4c1.6,2.1,4.5,3.9,7.9,7.7s5.1,6.3,6.4,7.6c1.4,1.3,1.6,1.6,1.6,1.6
					s0.8-8.3,1.4-12.7c0.6-4.4,2.8-6.3,2.8-6.3s8.8,4.9,12.9,4.2c4.1-0.7,4.5-0.6,5.2-1.3c0.7-0.8,2.2-3,3.7-4.5
					c1.5-1.5,2.2-2.2,3-3.7c0.9-1.5,2.6-4.2,2.6-4.2l9.4-28.8c0,0,0.2-2.6-0.3-8.2s-1.7-7.9-3.9-10.7c-2.2-2.8-7.7-8-11.9-10.6
					s-18-10.1-29.4-8.2C13.9,24.1,10.9,30.5,8,35.7c-2.8,5-5.1,11-5.1,11c-1.7-0.1,0.1,26.6,0.1,26.6l1.7,3.5l3.5,2
					c0,0-1.1,1.1-0.4,2.3c0.7,1.2,2.7,1.8,4.2,1.7c1.5-0.1,3.3-0.4,3.3-0.4s1.4,1.6,2.3,3.1c0.9,1.5,1.4,3.2,1,5.3s-3.3,2.6-4.3,2.7
					c-1,0.1-1.5-0.9-1.9-0.3c-0.4,0.6,1.8,3.4,0.9,3.4C12.6,96.6,12.3,96.5,12.3,96.5z"/>
			</defs>
			<use xlink:href="#XMLID_1_"  style="overflow:visible;fill:#C6B397;"/>
			<clipPath id="XMLID_18_">
				<use xlink:href="#XMLID_1_"  style="overflow:visible;"/>
			</clipPath>
			<path id="shadow_6_" class="st19" d="M8.3,69.3c-0.9,0-3.2,3-2.9,5.1c0.3,2.2,1.6,2.4,2.3,1.5c0.6-0.9,2-2.5,3.3-2.5
				c1.3,0,1.5,0.1,1.5,0.1S9.8,69.3,8.3,69.3z"/>
			<path id="shadow_7_" class="st19" d="M13.5,82.8c0,0,2.9-0.6,5.4-1c2,3.7,7.7,9.8,13.1,12.1S45.6,97,45.6,97s0.3-1.8,0.7-2
				c0.4-0.2,5.4-0.8,6.5-1c1.1-0.2,1.7-0.3,1.5-0.8c-0.2-0.6-1-3.7-1-3.7l7-21.2l-4.6-2.1c0,0-4.9-0.9-7.9-0.8S40,66.1,40,66.1
				l3.9-4.4L59.1,60c0,0,1.4-1.3,3.3-3.7s2.6-4.9,2.6-4.9s0.5,2.5,0.5,4.6s0,3.3,0,3.3s1.1-1.6,1.6-1.6c0.9-0.1,1.7,3.1,1.7,3.1
				l-1.1,5.6l1,24.9l-7.9,16.2l-30.4,14.7L10.1,97.9L13.5,82.8z"/>
			<path id="hilight_1_" class="st20" d="M55.4,34.9c-1.2,1.3,3.5,6.2,4.9,4.8S57.2,32.9,55.4,34.9z"/>
		</g>
		<g id="hair-back">
			<defs>
				<path id="XMLID_5_" d="M26,59.9c0,0-2.9-7.7-8.5-14.5c-5.4-6.6-8.8-9.5-8.8-9.5s1.3,2.6,1.3,4.1c-3.1-1.1-9-3.4-12.2-4.2
					c1.1,1.6,1,1.7,1,1.7s-6.9,0.6-13.4,2c-6.5,1.4-9.3,2.1-9.3,2.1s3.9,1,6.4,2.5c2.5,1.5,4.4,3.3,4.4,3.3s-4.1,1.5-5.5,2.5
					c1.3,2.5,2.4,2.9,2.7,4.6s0.1,3.5,0.1,3.5s-2.9-0.4-4.9-0.8c-2-0.4-2.9-1.2-2.9-1.2s1.8,7.1,8.1,10.8c6.4,3.7,11.4,4,12.5,4.6
					c1.1,0.6,2,1.9,4.5,3.7C4,77,4.9,77.1,4.9,77.1s-2-6.6,0.4-9.5c2.4-2.9,8.3-2.5,9.6-2.1s1.4,0.1,2.1-0.6
					c0.7-0.8,0.7-2.1,2.8-3.3C22.6,60.1,26,59.9,26,59.9z"/>
			</defs>
			<use xlink:href="#XMLID_5_"  style="overflow:visible;fill:#D5D5D5;"/>
			<clipPath id="XMLID_26_">
				<use xlink:href="#XMLID_5_"  style="overflow:visible;"/>
			</clipPath>
			<path id="shadow_10_" class="st21" d="M-22.7,42.6c0,0,5,0.3,8.3,0.4C-11,43.1-9,43.9-9,43.9l-2.4,1.4c0,0,2.5,0.7,4.9,1.5
				c2.3,0.8,3.4,1.5,3.4,1.5s-0.7,0.4-2.4,1c-1.6,0.6-3.2,0.6-5.4,0.2c-2.2-0.3-7.6-1.1-7.6-1.1L-22.7,42.6z"/>
			<path id="shadow_9_" class="st21" d="M-17,53.5c0,0,1.9,2.1,3.4,3.1c1.5,1,2.1,1.4,2.1,1.4s-2.2-0.3-3.7-0.6
				c-1.5-0.2-2.4-0.2-2.4-0.2L-17,53.5z"/>
			<path id="shadow_8_" class="st21" d="M-20,56.3c0,0,0.9,3.5,2.7,5.3c1.7,1.8,3.5,2.7,3.9,2.8c0.9,0.1,0.3-0.8,0.3-0.8
				s1,0.5,2.6,0.6c1.6,0.1,2-0.2,2-0.2s-0.3-2.4-1.8-4c2.8,2.1,4.5,4.9,5.6,6.2c1.1,1.3,2.5,1.6,4.5,1.5s3.1-0.4,4.2-1.6
				s1.1-2.7,3.9-3.3c2.8-0.7,4-0.7,4-0.7S8.6,59.5,7,58.4c4,1,12.7,2.2,15.2,2.7c2.6,0.4-13.5,20.8-13.5,20.8l-32.5-15l-1.7-13
				L-20,56.3z"/>
		</g>
		<g id="moustache">
			<defs>
				<path id="XMLID_6_" d="M56.3,74.6c0,0-4.8,1.1-8.9,1.3S34,75.3,34,75.3l2.2,1.3c0,0-0.8,1.8-3.8,3.2s-5.7,2.4-5.7,2.4
					s6.3,1.4,6.5,2.2c0.2,0.8-1.5,2.6-1.5,2.6s3.7-0.1,3.9,0.5c0.2,0.6-2.2,2.2-2.2,2.2s18.2-2.2,18.6-1.8s-1.7,3.9-1.7,3.9
					s3.8-0.9,5.6-1.7c1.8-0.8,4-1.3,4.1-0.9c0.1,0.5-1,3.6-1,3.6s2-0.3,2,0.2c0,0.5-1.6,3.3-1.6,3.3s3.1-0.7,3.2,1.2
					c0.1,1.9-1,4.4-1,4.4s2.3-2.1,2.6-1.5c0.3,0.6,0.6,3.7,0.6,3.7s1.7-6.1,2.4-6.5c0.7-0.3,1.1,1.1,1.1,1.1s1.1-4.1,1.6-6.7
					s0.4-4.7,0.4-4.7l3.2-0.4c0,0-2.5-1.8-4.4-3.1c-2.6-1.8-2.7-4.8-2.7-4.8L56.3,74.6z"/>
			</defs>
			<use xlink:href="#XMLID_6_"  style="overflow:visible;fill:#D5D5D5;"/>
			<clipPath id="XMLID_27_">
				<use xlink:href="#XMLID_6_"  style="overflow:visible;"/>
			</clipPath>
			<path id="shadow_11_" class="st22" d="M34.7,88.1c0,0,2-1,2.7-1.9c0.8-0.8,0.8-1.3,3.1-2.1c2.3-0.8,7.9-3.3,7.9-3.3
				s-1.7,1.7-1.5,2.9c0.2,1.2,0.1,1,2.2,0.9c4-0.3,7.6-1.6,7.6-1.6s-1.6,2.6-0.9,3.5c1.5,1.8,4.1,0.1,7,3.1c2.9,3,4.5,10.5,4.5,10.5
				l-1.9,5.5L30.9,90.7L34.7,88.1z"/>
		</g>
		<path id="eyebrows" class="st23" d="M70.3,60.3c-1.5,0-1.7-0.6-1.7-0.6s-0.6,1.5-1.4,2c-0.8,0.5-1.4,0.6-1.4,0.6L60,60.8
			c0,0,0.5-1-4.3-2.8C50.8,56.1,39.4,52,39.4,52s1.5,1.3,0.7,1.5c-2.3,0.7-9.6-0.2-9.6-0.2s4.6,1.3,4.3,1.8
			c-0.3,0.5-3.8,1.7-3.8,1.7s2.4,1.9,4.5,2.3c2.1,0.4,2.9,0,2.6,0.9c-0.4,0.9-1.8,2-1.8,2s4.5,0.2,8.2,1c3.7,0.8,6.9,1.4,9.8,1.3
			c2.9-0.1,6.2-1.5,6.2-1.5l8.4,2.5c0,0,3.6-1,4.1-2.8c0.5-1.7-0.9-7.1-0.9-7.1S71.5,60.3,70.3,60.3z"/>
		<path id="nouse" class="st24" d="M60.9,60.3c-3.9,0.2-7.7,6.4-6.7,12.9c0.8,5,6,7.6,11.2,7.1c4.2-0.5,3.2-1.2,5.5-1.7
			c2.2-0.5,3.7-2.8,3.6-6.5c-0.2-3.6-2-5.8-4.1-7.2C67,63,66.1,60.1,60.9,60.3z"/>
	</g>
</g>
</svg>
