<?xml version="1.0" encoding="utf-8"?>
<!-- Generator: Adobe Illustrator 23.0.0, SVG Export Plug-In . SVG Version: 6.00 Build 0)  -->
<svg version="1.1" id="dm" xmlns="http://www.w3.org/2000/svg" xmlns:xlink="http://www.w3.org/1999/xlink" x="0px" y="0px"
	 viewBox="0 0 98 242" style="enable-background:new 0 0 98 242;" xml:space="preserve">
<style type="text/css">
	.st0{clip-path:url(#XMLID_2_);}
	.st1{fill:#A77C61;}
	.st2{fill:#B39A77;}
	.st3{clip-path:url(#XMLID_3_);fill:#B39A77;}
	.st4{fill:#BF6F6F;}
	.st5{clip-path:url(#XMLID_5_);}
	.st6{clip-path:url(#shadow_1_);fill:#4064B7;}
	.st7{clip-path:url(#XMLID_6_);fill:#4064B7;}
	.st8{clip-path:url(#XMLID_7_);fill:#B39A77;}
	.st9{clip-path:url(#XMLID_8_);fill:#B4C9DC;}
	.st10{clip-path:url(#XMLID_9_);fill:#B4C9DC;}
	.st11{clip-path:url(#XMLID_11_);fill:#4064B7;}
	.st12{clip-path:url(#XMLID_20_);fill:#B4C9DC;}
	.st13{clip-path:url(#XMLID_21_);fill:#B39A77;}
</style>
<g>
	<defs>
		<rect id="XMLID_4_" x="1" y="1" width="96" height="240"/>
	</defs>
	<clipPath id="XMLID_2_">
		<use xlink:href="#XMLID_4_"  style="overflow:visible;"/>
	</clipPath>
	<g class="st0">
		<path id="broom-handle" class="st1" d="M-9,43.4c0.8,0.1,1.7,1,2.2,1.7c4.4,5.3,12.9,16.1,33,39.3c11.8,13.7,26.4,29.4,43.1,46.2
			c24.8,24.9,50.6,51.5,75.1,75.9c40.3,40.3,74.4,73.5,74.4,73.5l-40.7-15.4c0,0-13.7-17.2-35.5-41.5
			c-23.7-26.3-57.4-60.3-87.1-93.3C35.8,108,20,87.6,7.8,72.3c-11.7-14.7-20-24.6-20.1-24.7c-0.5-0.8,0.1-2.3,0.4-2.8
			C-11.5,44.3-10.2,43.2-9,43.4z"/>
		<path id="hand-back_1_" class="st2" d="M29.8,109.7c0,0,7.3-11.7,8.7-13s2.9-1.8,3.5-1.9c0.7-0.1,5.1,3.8,9.2,8.5s7.3,9.9,7.3,9.9
			s-0.8,0.6-1.8,0.9c-1,0.3-2.4,0.7-3.5,2.4c-1.1,1.7-2.3,4.5-5.7,5.4c-3.4,0.9-6.7,0.4-6.7,0.4l-54.5,15c0,0-2.5,0.5-6.3-0.4
			s2.9-9.3,2.9-9.3L29.8,109.7z"/>
		<path id="neck" class="st2" d="M14.1,67.1c0,0-1.5,1-3.5,2.9c-1.9,1.9-4.3,4.6-4.3,4.6l6.5,11.9l14.4,6.1c0,0,0-5.3,0.3-7.9
			c0.3-2.7,1.3-5.3,1.3-5.3L18.5,64.8L14.1,67.1z"/>
		<g id="face">
			<defs>
				<path id="XMLID_19_" d="M17.8,67.6c0,0,5.1,10.1,10.9,16.1s8.4,8.2,10.6,8.6c2.3,0.4,2.4-0.3,6.1-2.1c3.6-1.8,8.6-4.6,10.6-5.5
					c2-0.9,15.9-39.2,15.9-39.2l-54-4.8L17.8,67.6z"/>
			</defs>
			<use xlink:href="#XMLID_19_"  style="overflow:visible;fill:#C6B397;"/>
			<clipPath id="XMLID_3_">
				<use xlink:href="#XMLID_19_"  style="overflow:visible;"/>
			</clipPath>
			<path id="shadow_26_" class="st3" d="M19.5,66.6c0,0,2.3,6.1,5.7,10.3c3.4,4.2,6.1,8.1,8.8,11s4.5,4.7,4.5,4.7l-5,0.3L12.6,67.4
				L19.5,66.6z"/>
		</g>
		<path id="nose" class="st4" d="M39,72.1c-0.7,4.6,2.1,12.3,11.4,13.9c9.3,1.6,15.4-2.3,16.6-6.6s1.1-6.2,1.1-6.2l-28.4-5.1
			C39.6,68.2,39.4,69.4,39,72.1z"/>
		<g id="hat">
			<defs>
				<path id="XMLID_18_" d="M46.6,7.5c-1.8-0.2-3.5,1-5.3,1.6c-1.9,0.6-9.5,2.8-15.6,4.5S13.6,18.2,11,19.4
					c-2.7,1.2-3.4,2.2-3.5,4.5C7.4,26.3,7.9,31.1,8.1,34c0.2,2.9,2.1,16.1,2.1,16.1s10.2,2.3,15.9,3.5c5.8,1.1,52.1-1.3,52.1-1.3
					s2-4,3.6-8.3s3.4-8.8,3.8-10c0.4-1.2,0.4-2.1-1.1-3.5C83,28.9,80,25.8,75.4,23c-4.7-2.7-11.2-6.2-14.4-8
					c-3.2-1.8-7.6-4.6-9.5-5.7C49.7,8.3,48.7,7.8,46.6,7.5z"/>
			</defs>
			<use xlink:href="#XMLID_18_"  style="overflow:visible;fill:#819AD3;"/>
			<clipPath id="XMLID_5_">
				<use xlink:href="#XMLID_18_"  style="overflow:visible;"/>
			</clipPath>
			<g id="shadow_25_" class="st5">
				<defs>
					<path id="shadow" d="M6.1,22.7c0,0,10.3,1.6,14.4,2.7c4.1,1.1,8.6,2.1,11.6,2.6c3,0.5,10.5,0.8,17.4,1.5
						c8.6,0.9,17.4,4.3,19.4,4.7c1.9,0.5,9-1.1,14.2-0.1s5.4,1.3,5.4,1.3l-8.6,21.1l-56,2.9L4.8,54L6.1,22.7z"/>
				</defs>
				<use xlink:href="#shadow"  style="overflow:visible;fill:#466EC9;"/>
				<clipPath id="shadow_1_">
					<use xlink:href="#shadow"  style="overflow:visible;"/>
				</clipPath>
				<path id="shadow2" class="st6" d="M56.6,28.4c0,0,2.6,8.1,2.2,10.1c-0.4,2-2.3,2.5-4.3,3.7c-2,1.1-4.6,3-6.9,4s-5,0.9-9.3,3
					s-9.6,8.2-9.6,8.2L2.4,52.9l3.2-32.4L56.6,28.4z"/>
			</g>
		</g>
		<g id="bill">
			<defs>
				<path id="XMLID_17_" d="M28.5,54.2c-0.1,0.4,0.6,1.8,2.5,5.4s7.2,10.6,9.2,12.8c2,2.2,7.1,7.7,8.4,8.8s3.1,2,4.5,1.7
					c1.4-0.3,8.6-2.8,12.1-3.9s7.9-2.7,10.1-3.4c2.2-0.7,7.6-2.8,9.7-3.1c2.1-0.3,7.9,0.7,9.7,0.9s3.2,0.4,3.3-0.6
					c0.1-0.6-0.8-1.9-1.8-3c-2.3-2.4-5.8-6.5-8-9.2c-2.2-2.7-3.6-4.5-6.4-7.1c-2.7-2.6-2.7-2.6-3.2-2.8c-0.5-0.2-5.9-2.2-7.5-2.9
					c-1.5-0.7-3.8-1.7-4.9-1.9s-4.4,0.5-8.2,0.8s-11.4,1.4-14.5,2c-3.2,0.5-7.4,2.2-9.8,3.2C31.1,53,28.6,53.7,28.5,54.2z"/>
			</defs>
			<use xlink:href="#XMLID_17_"  style="overflow:visible;fill:#819AD3;"/>
			<clipPath id="XMLID_6_">
				<use xlink:href="#XMLID_17_"  style="overflow:visible;"/>
			</clipPath>
			<path id="shadow_24_" class="st7" d="M28.8,52.7c0,0,0.7,2.8,3.1,6.5s4.2,6.3,7.1,9.5c2.8,3.2,5.6,7.1,7.5,8.9
				c1.8,1.8,2.9,2.7,4.2,2.9c1.2,0.2,3-0.2,7.1-1s10.5-2.7,13-3.3s7.8-2.9,10.1-3.7c2.3-0.9,5.1-1.6,7.4-1.2s3.5,1.2,5.4,1.6
				c1.9,0.4,5,0.7,5,0.7l-3.2,15.6l-55.9-6.4L27.1,54.3L28.8,52.7z"/>
		</g>
		<g id="ear">
			<defs>
				<path id="XMLID_16_" d="M23.1,53.7c0,0-1.1-5.7-5.9-6.6c-4.7-0.9-7.6,3.9-7.7,10s3,11,6.4,11.4s4.1-0.7,4.1-0.7L23.1,53.7z"/>
			</defs>
			<use xlink:href="#XMLID_16_"  style="overflow:visible;fill:#C6B397;"/>
			<clipPath id="XMLID_7_">
				<use xlink:href="#XMLID_16_"  style="overflow:visible;"/>
			</clipPath>
			<path id="shadow_23_" class="st8" d="M17.5,53.5c0,0-0.2-2-2.2-2.1s-3.8,1.1-4.6,3.3c-0.8,2.2-0.6,3.9-0.6,3.9s0.9,0.3,2.3,0
				s1.8-0.9,1.8-0.9s-2.1-0.1-2.2-0.9c-0.1-0.8-0.4-1.8,1.2-2.9S16.8,52.9,17.5,53.5z"/>
			<path id="shadow_22_" class="st8" d="M15.6,59.7c0,0-1.3-0.2-2.3,0.3c-0.9,0.5-1.2,1-1.2,1s0.6,1.8,1.4,2.8
				c0.7,1-0.1,1.7,0.9,2.8c0.9,1,2.5,0.4,2.7-1c0.2-1.4-1.4-1.7-1.9-2.3c-0.5-0.6-1.5-2-1.2-2.3C14.2,60.5,15.6,59.7,15.6,59.7z"/>
		</g>
		<g id="collar">
			<defs>
				<path id="XMLID_15_" d="M7,68.5c0,0-4.5,4.2-7.6,7.1S-7,83.7-7,83.7s1.7,1.2,6.8,3.5s12.2,4.9,17.7,8.1
					C23,98.5,37,108.2,37,108.2l0.4-3.3l4.5,4.8l4.8-8.2c0,0-4.5-3.6-7.3-4.8c-2.8-1.2-8.2-3.5-13.5-6.9c-5.3-3.4-9.6-7.5-9.3-9.8
					s1.4-2.8,1.4-2.8s-3.9-0.8-6.3-1.7C9.3,74.5,8.5,74,7,68.5z"/>
			</defs>
			<use xlink:href="#XMLID_15_"  style="overflow:visible;fill:#DCE4EF;"/>
			<clipPath id="XMLID_8_">
				<use xlink:href="#XMLID_15_"  style="overflow:visible;"/>
			</clipPath>
			<path id="shadow_21_" class="st9" d="M12.6,74.6c0,0-3,1-6.2,2.2c-3.2,1.2-4.8,2.2-6.6,5c-1.8,2.8-4,6.5-4,6.5l-4.3-5L7.2,66.8
				L12.6,74.6z"/>
		</g>
		<g id="shirt">
			<defs>
				<path id="XMLID_14_" d="M0.3,84c0,0-3.5,0.8-5.1,2.6s-7.2,8.5-7.9,10.2c-0.7,1.7-3.5,7.4-3.5,7.4s-3.2,3.2-6.2,5.6
					c-3,2.4-5.7,4.3-7.9,4.9s-2.8,0.2-2.9,0.4c-0.1,0.2-0.8,4.6-0.9,7.1c-0.1,2.4,0.1,4.2-0.5,4.3c-0.6,0.1-3.2-0.6-3.2-0.4
					c0,0.2-0.9,3.9,0.2,5.5c1,1.6,3.4,4.2,6.2,5.7c2.8,1.5,7.6,1.5,9.2,1.6c1.5,0.1,3.3,0,3.4-0.3c0-0.3,0-3.7,0.2-4.3
					c0.3-0.5,1.2-0.8,1.7-1.1s1-1,1-1s0.5,0.2,1.2,3.8c0.8,3.5,2.9,12.1,3.5,16c0.5,3.9,1.6,8.2,1,17.2c-0.6,8.9-2.4,13.9-2.4,13.9
					l11.8,45.1l53.5,10.6L64,200.7l-22.6-27.2l-2.6-26.9l0.3-25l-4.9-19.9L0.3,84z"/>
			</defs>
			<use xlink:href="#XMLID_14_"  style="overflow:visible;fill:#DCE4EF;"/>
			<clipPath id="XMLID_9_">
				<use xlink:href="#XMLID_14_"  style="overflow:visible;"/>
			</clipPath>
			<path id="shadow_20_" class="st10" d="M17.6,94.5c0,0-5-0.4-6.9-0.9S6.7,92,5.4,91.7C4.2,91.4,2,91.3,2,91.3s-2.6,3.7-4.2,7.1
				c-1.6,3.5-3.8,7.6-4.8,9.6c-1,2-2.1,5.3-3.2,10.2c-1.1,4.9-1.8,14.2-1.8,16.2c0.1,1.9,0,2.1,0.8,3.4s3.3,4.6,4.1,7.3
				c0.8,2.6,7.6,33.3,7.6,33.3s2.1,3.9,5.2,8.8c3.1,5,5.4,8.8,8.7,12.7s8.2,8.3,11.9,9s8.8-1.2,8.8-1.2s-2.2,5.3-4.9,7.8
				s-5.7,4.6-6.9,4.5c-1.2-0.1-3-2.3-5.3-4.8s-7.8-8.5-10.2-10.8c-2.4-2.2-6.9-6.3-6.9-6.3l-15.4-24.2L-31.3,138
				c0,0,0.8-2.7,2.8-4.1c2-1.3,4.2-1.5,4.3-1.6c0.1-0.1,0.4-1.9,0.2-2.3c-0.2-0.4-1.8-2.2-2.3-2.9s-1.1-1.3-0.4-1.9
				c0.7-0.6,2.6-2.5,4.2-4.1s3.8-3.5,3.9-3.8c0.1-0.3-0.1-2.7-0.1-3.4c0-0.7-0.5-2.2-0.2-3.9c0.3-1.6,1.7-3.1,2.2-4.3s1-4,1-4
				l9-25.8l25.4,16.7L17.6,94.5z"/>
			<path id="shadow_19_" class="st10" d="M18.5,127.6c0,0-2.4,2.6-4.5,5.7c-2,3.2-3.3,4.5-2.7,5.7c0.6,1.1,4.4,3.6,4.3,4.8
				c-0.1,1.2-0.4,3.9-0.9,6.6s-1,5.4-1,5.4s3.8-3.8,9.7-4.8s8.8-1.4,11.1-0.5c2.3,0.9,4.1,2.2,4.1,2.2l2.5-10.9L18.5,127.6z"/>
		</g>
		<g id="overalls">
			<defs>
				<path id="XMLID_13_" d="M-35.4,232.9c0,0,2.8-0.9,6-3.9c3.2-3,8.3-8.1,9.8-10.1c1.6-2,2-3.4,3.3-3.1c0.5-1.9,1.4-6.7,0.7-11.3
					c-0.6-4.7-1.7-13.1-1.1-16.5c0.6-3.4,2.4-3.1,5.3-11.1s4.4-12.7,4.5-19.2c0.1-6.5-1.1-12.7,0.1-20.8c1.2-8.1,5.2-14.4,9.9-20.8
					s19.2-21,19.2-21l13.2,11.5c0,0,3.5,2.8,4.9,3.8s2.8,1.9,3,2.3c0.2,0.4,0.6,2.4,0.3,4.4s-0.9,6.6-0.9,6.6s-6.2-11.7-13.3-12.7
					s-14.3-0.8-17.1,2.3c-2.8,3.1-4.5,10.8-6.2,19.7s-2.9,22.5-4,32.6s-0.7,24.9-0.7,27.9c0.1,3,1.4,5.2,2.9,7.9
					c1.5,2.7,6.5,11.6,8.4,14.9s6.7,9.8,7.3,10.7c0.6,0.9,0.8,1,1.6,1.4c0.9,0.3,5.3,2,7.1,2.7s8.4,1.7,8.7,1.7
					c0.3,0,1.4-1.1,2.2-2.3c0.9-1.3,2.3-4.7,5.2-7.5s7.8-8.8,9.6-12.2c1.3-2.3,1.5-6.3,1.6-6.5s0-0.8-1.7-2.6s-9.8-8.3-12.6-15.1
					c-2.8-6.8-4.3-13-4.7-20.8c-0.4-7.8-1-12.2-0.7-16.9c0.3-4,2.4-7.7,2.4-7.7l2.4,4.5c0,0-1.5,7.8,0.7,16.2
					c2.1,8.4,3,9.7,5.2,13.3c2.2,3.6,4.5,5.4,6.3,7.9c1.8,2.5,3.3,5.3,4.9,7.2c1.6,1.8,2.6,3.2,4.1,3.7c1.5,0.5,3.3,0.6,3.3,0.6
					s0.7,2.8,1.3,7.3c0.6,4.5,1.3,8.6,1.3,8.6s7.2,6.8,12.5,13.6c5.4,6.9,10,13.9,12.3,17.3c2.3,3.4,3.8,6.6,6,9.4
					c2.2,2.8,3.5,3.6,3.5,3.6l-107.2,3.1L-35.4,232.9z"/>
			</defs>
			<use xlink:href="#XMLID_13_"  style="overflow:visible;fill:#819AD3;"/>
			<clipPath id="XMLID_11_">
				<use xlink:href="#XMLID_13_"  style="overflow:visible;"/>
			</clipPath>
			<path id="shadow_18_" class="st11" d="M-16.4,214.4c0,0,0.2,4.6-0.4,8.6c-0.6,4-1.6,6.4-2.4,9.5c-0.8,3.2-1.3,4.7-1.3,4.7
				l-22.5-2l17.7-24.6L-16.4,214.4z"/>
			<path id="shadow_17_" class="st11" d="M69,207.5c0,0-0.6,1.7-0.2,2.9c0.4,1.3,0.8,3,1.2,4.8c0.5,1.8,0.9,5.4,0.8,6.2
				c-0.1,0.7-1.2,2.8-1.5,3.2c-0.3,0.4-0.8,0.9-0.4,1.6c0.4,0.7,2.9,4.2,4.6,7.8c1.7,3.6,4.9,8.8,4.9,12c0,3.2-0.5,4-0.5,4
				l-10.1-1.9c0,0,0.1-6.9,0-6.6c-0.1,0.3-2.1,2.2-3.6,4.3c-1.5,2.1-1.8,2.8-1.8,2.8l18.5,2.5c0,0,0.4-5.4,0.8-10.5
				c0.5-7.8-1.1-19.3-1.1-19.3L69,207.5z"/>
		</g>
		<g id="sleeve">
			<defs>
				<path id="XMLID_12_" d="M16.8,115.1c4.1-5.4,13.4-4.8,17-2.6c3.1,1.8,6.9,5.5,9,7.1c2.1,1.6,6.4,4.9,9.4,7.3
					c3,2.4,16.7,13.1,21.6,17.7c4.9,4.6,5.8,5.4,5.8,5.4s1.9-2,2.3-2.7c0.4-0.7,1.2-3,2.9-2.2s3,2.3,5,5.5c2.1,3.3,3.1,5.8,2.9,8.7
					c-0.2,2.9-9.4,26.3-9.4,26.3s-3.3,2.5-4.3,2.7c-1.1,0.3-0.9,0.8-2.1,1.2c-1.2,0.4-5.6,1.6-7.7,1c-2.1-0.6-2.8-2.4-3.6-4.1
					c-0.8-1.7-2.6-4.8-5.2-6.7c-2.6-1.9-5.1-3.5-5.1-3.9c0.1-0.4,1.3-2,1.4-2.4c0.1-0.4-1.7-1.6-3.4-2.4s-3.2-0.9-3.3-1.4
					c-0.1-0.5,1.1-4,0.6-6.4c-0.5-2.4-4.9-9.4-9.7-14.3c-4.7-4.8-9-9.4-14.6-14c-3.2-2.6-8.8-5.8-10.6-9.3
					C14.3,123.1,14.5,118.1,16.8,115.1z"/>
			</defs>
			<use xlink:href="#XMLID_12_"  style="overflow:visible;fill:#DCE4EF;"/>
			<clipPath id="XMLID_20_">
				<use xlink:href="#XMLID_12_"  style="overflow:visible;"/>
			</clipPath>
			<path id="shadow_16_" class="st12" d="M69.3,162.1c0,0-3.7,1.8-5.4,6.9c-1.7,5.1-0.3,8.6,0.2,9.9c0.4,1.3,0.7,1.9,0.2,3
				c-0.5,1.1-1.5,2-1.5,2l2.7,3.7c0,0-0.7-2.7-0.8-5.7c-0.1-3,0-5.7,2.1-9.7c2.1-4,2.5-4.6,2.7-5.8
				C69.7,165.1,69.3,162.1,69.3,162.1z"/>
			<path id="shadow_15_" class="st12" d="M75.2,178.3c0,0-0.9,3.1-0.7,6.7c0.1,3.6,0.7,3.2,1.8,3.4c1.1,0.1,4.6,0,4.6,0l5-5.7
				L75.2,178.3z"/>
		</g>
		<g id="arm">
			<defs>
				<path id="XMLID_10_" d="M84.4,156.8c0.9-0.8,1.8-0.4,3.9-0.2c2,0.2,4.9,1.4,8.5,4.5c3.7,3.1,16.1,15.3,19.4,18.7
					c3.8,3.9,8,9.6,8.3,9.6c0.3,0,2.1-0.3,3.4-0.3c1.3,0,2.9,1.3,4.7,1.4c1.8,0.1,3.6-1.4,4.4-1.5c0.8-0.1,1.1-0.1,1.8,0.8
					c0.6,0.9,3.4,5.6,4.6,8c1.2,2.4,1.9,4,1.8,5.7s-0.6,4.6-0.6,4.6s-0.3,0.4-1.3-0.3c-1-0.7-2.8-2.2-3.7-2.3s-3,1.4-5.1,2.7
					c-2.1,1.3-4.1,2.1-4.8,2.8s-1.7,1.7-2.9,1.4c-1.2-0.2-9.7-4.9-12.2-6.3s-4.3-2.6-5.2-5.3c-0.8-2.7-0.9-4-1.5-4.4
					s-8-4.6-15.9-7.4s-16.8-6-17.3-7c-0.5-1,0.1-8.5,2.7-15.1S83.3,157.8,84.4,156.8z"/>
			</defs>
			<use xlink:href="#XMLID_10_"  style="overflow:visible;fill:#C6B397;"/>
			<clipPath id="XMLID_21_">
				<use xlink:href="#XMLID_10_"  style="overflow:visible;"/>
			</clipPath>
			<path id="shadow_14_" class="st13" d="M85.6,154.7c0,0,0.7,2.4-0.3,5s-3.6,5.6-4.8,9.3c-1.2,3.7-2.1,6.4-0.2,8.2
				c1.9,1.8,5.5,4.4,9.6,6.2c4.1,1.8,11.5,4.9,17.8,7.9c6.3,3,17.4,9.4,17.4,9.4s-1.7,1.7-1.8,3.2c-0.2,1.6,1.6,3.3,3,4.5
				c1.4,1.2,4.4,3.1,4.4,3.1l-4.4,9.1l-58.4-32.8L76,151L85.6,154.7z"/>
		</g>
	</g>
</g>
</svg>
