<?xml version="1.0" encoding="utf-8"?>
<!-- Generator: Adobe Illustrator 23.0.0, SVG Export Plug-In . SVG Version: 6.00 Build 0)  -->
<svg version="1.1" id="Layer_2" xmlns="http://www.w3.org/2000/svg" xmlns:xlink="http://www.w3.org/1999/xlink" x="0px" y="0px"
	 viewBox="0 0 98 242" style="enable-background:new 0 0 98 242;" xml:space="preserve">
<style type="text/css">
	.st0{clip-path:url(#XMLID_13_);}
	.st1{clip-path:url(#XMLID_14_);fill:#CE9D7D;}
	.st2{fill:#B6C1C9;}
	.st3{clip-path:url(#XMLID_15_);fill:#863D35;}
	.st4{clip-path:url(#XMLID_16_);fill:#B6C1C9;}
	.st5{fill:#727996;}
	.st6{clip-path:url(#XMLID_17_);fill:#CE9D7D;}
	.st7{clip-path:url(#XMLID_18_);fill:#CE9D7D;}
	.st8{fill:#CE9D7D;}
	.st9{clip-path:url(#XMLID_19_);fill:#BA802E;}
	.st10{clip-path:url(#XMLID_20_);fill:#CE9D7D;}
	.st11{clip-path:url(#XMLID_20_);fill:#DC8181;}
	.st12{clip-path:url(#XMLID_21_);fill:#DD9937;}
	.st13{clip-path:url(#XMLID_22_);fill:#DD9937;}
	.st14{clip-path:url(#XMLID_23_);fill:#863D35;}
</style>
<g>
	<defs>
		<rect id="XMLID_4_" x="1" y="1" width="96" height="240"/>
	</defs>
	<clipPath id="XMLID_13_">
		<use xlink:href="#XMLID_4_"  style="overflow:visible;"/>
	</clipPath>
	<g class="st0">
		<g id="arm-r_1_">
			<defs>
				<path id="XMLID_11_" d="M-17.2,195.5c2.7-4.7,7.3-9.5,8.5-12.9c1.2-3.4,1.2-5.9,1.2-5.9l-15.3-6c0,0-2,1.6-4.2,8.3
					c-2.2,6.7-4.3,18-6.7,27.4c-2.4,9.4-3.4,14-5,17.5c-1.5,3.4-2.2,5.3-3.2,5.7c-0.3,2.1-0.5,5.5,1.3,4.8c2.7-1,12.3-4.8,14-6.5
					c1.5-1.5,3.5-7.6,4-9.1c-0.1,0-0.2,0-0.3,0c-0.2-2.4-0.6-2.7,0.4-3.8c1-1,2.3-1.7,2.4-3.3c0.1-1.6-2-2.9-1.9-4.6
					C-21.9,205.5-20,200.3-17.2,195.5z"/>
			</defs>
			<use xlink:href="#XMLID_11_"  style="overflow:visible;fill:#D9B59D;"/>
			<clipPath id="XMLID_14_">
				<use xlink:href="#XMLID_11_"  style="overflow:visible;"/>
			</clipPath>
			<path id="shadow_16_" class="st1" d="M-15.7,175c0,0,0.9,4,0.3,7.1c-0.6,3.1-1.3,4.3-3.6,6.5c-2.2,2.2-6.3,6.4-8.9,11.9
				c-1.9,4.1-1.6,7-2.5,8.9c-0.9,1.8-2.1,3.5-3.8,5.4c-1.7,1.9-3.4,3.6-3.4,3.6l-4,9.4c0,0,3.9-2,6.6-2.9c2.7-1,3.7-0.6,5.4-2.3
				s2.9-4.2,4.7-4.4c1.8-0.2,2.5,0.4,2.5,0.4l4.6-5.6l12.8-34.2L-15.7,175z"/>
		</g>
		<path id="sleeve" class="st2" d="M12.2,119.9c0,0-4.9,5.6-9.7,12.9c-4.9,7.5-5.9,9.9-9,14.5s-5.4,8.1-6.7,8.3
			c-1.3,0.2-2.9-1.1-4.1-1c-1.2,0.1-1.5,1.2-2.3,3.2s-1,5.3-2.3,8.3c-1.3,3-2.2,4.6-2.4,5.1c-0.2,0.6,1.2-0.3,2,0.5s2.1,2.4,5,3.9
			s2.4,2,5.5,3.3s7.3,1.8,7.3,1.8l3.7-12.8c0,0-0.6-4.9-0.7-5.8s1.4-0.1,1.9,0.7c0.5,0.8,11.7-26,11.7-26L12.2,119.9z"/>
		<g id="overall">
			<defs>
				<path id="XMLID_9_" d="M24.8,95c0,0-7,8.7-10.5,17.1s-4.8,12.8-6.9,19.4c-2.1,6.5-1.3,9.8-5.5,23.9c-3,10.3-3.9,14.7-7.5,27.8
					c-3.6,13.1-4.9,19.7-6.4,28.1c-1.6,8.4-2.6,14.3-3.6,18c-1,3.7-2.4,5.9-5,14c-2.6,8.1-4.5,14-4.5,14l120.1-9.7
					c0,0-1.2-3.9-3.3-5.8c-2.1-1.9-2-3.9-3.8-5.3c-1.8-1.4-1.5-1.5-2.9-3.4c-1.3-1.9-3.1-4.7-5.5-7.7s-4.6-5.4-4.9-6.3
					s0.4-2.7,0-5.2c-0.3-2-1.7-1.1-3.2-1.4c-1.4-0.3-5.4-3.9-5.4-3.9s2.9-4.2,2.9-5.5c0-1.3-2.4-2.7-4.2-3.8s-7.9-4.4-7.9-4.4
					l-56.2-2.9c0,0-0.7-8.3,2.2-17.2c3.2-9.8,3.6-8.9,5.8-15.4s3.6-10.1,3.6-10.1l14-48.9L24.8,95z"/>
			</defs>
			<use xlink:href="#XMLID_9_"  style="overflow:visible;fill:#B9594F;"/>
			<clipPath id="XMLID_15_">
				<use xlink:href="#XMLID_9_"  style="overflow:visible;"/>
			</clipPath>
			<path id="shadow_13_" class="st3" d="M6.3,144.2c0,0,0.7,4.5-0.9,10.6c-1.7,6.6-4.7,16.7-6.9,24.1s-4,13.8-4.9,24.4
				C-7.3,213.8-5.5,220-5.5,220l14-44.5l7-27.1L6.3,144.2z"/>
			<path id="shadow_12_" class="st3" d="M67.3,207.5l-1.3,0.9c0,0-3.9,6.3-6.7,10.9c-2.8,4.6-5,9.9-7.3,16.4
				c-2.3,6.4-3.1,10.9-3.1,10.9l9.8-1.8c0,0,0.3-6.2,2.1-12.2c1.8-6,2.5-8.2,2.8-10.4c0.3-2.2-0.2-1.7,1-2.6
				c1.2-0.9,4.8-3.4,6.4-4.5c1.6-1.1,2.1-1.2,1.6-1.5c-1.1-0.6-2-2.1-2-2.1L67.3,207.5z"/>
			<path id="shadow_11_" class="st3" d="M17.2,249.2c0,0-4-3.7-6.2-5.5c-2.1-1.8-3.9-4.3-3.9-4.3s1.8,2.4,4.7,3.5
				c3.7,1.5,4.9-0.4,7,1s5.9,5.7,5.9,5.7L17.2,249.2z"/>
		</g>
		<g id="shirt">
			<defs>
				<path id="XMLID_7_" d="M46.7,90.7c0,0,0.6,3.3,3,4.5c3.8,2,5.7,2.1,6.7,2.5c0.9,0.3,1,1.8,0.3,2.6c-0.6,0.8-1.2,1.2-1.2,1.2
					s1.5,2.2,5.3,5.1c3.8,2.9,8.6,5.7,9.2,6c0.6,0.3,0.6,0.8,0.5,1.5c-0.1,0.6-0.5,0.9-0.1,1.5c0.4,0.7,1.6,2.4,2.5,3.7
					c0.8,1.3,1.1,1.8,2.2,2.6c1.1,0.8,4.3,3.1,8.7,6.3c4.4,3.2,6.7,5.1,7.6,5.8c0.8,0.7,3.7,4.5,5,5.6c1.3,1.1,2.8,2,4.3,3.3
					c1.5,1.3,1.9,2,2.3,2.1s3-0.4,3.7-0.2c0.7,0.2,0.9,0.6,1.7,1.9s2.8,4.5,4.3,6.6c1.5,2.1,4.9,7.4,5.7,8.2
					c0.7,0.8,1.7,1.3,0.8,2.3c-0.9,0.9-5.6,5.7-7.5,7.8c-1.9,2.2-2.5,3-3.3,4c-0.8,1-1.2,2.1-1.6,2.3c-0.3,0.1-1-1.1-5.2-2.1
					c-4.2-1-4.2-1.4-8-2s-4.2-0.1-5.2-0.7c-1-0.6-1.2-2.5-1.4-4.8c-0.2-2.3-0.1-10.2-0.1-10.2s-10-6.9-15-10.6
					c-5.1-3.6-6.1-4.7-8.1-4.3s-3.3,0.6-4.2,2.1c-0.9,1.5-3.6,8.5-5.1,11.8c-1.5,3.3-2.4,5.3-3.2,9.7c-0.9,4.4-0.6,9.3,1.2,13.3
					s2.9,5.6,4.5,10c1.6,4.3,2.6,9.3,2.6,9.3s-7.4,1.3-14.5,3.7c-5.3,1.8-11.5,6.3-15.2,8.6c-3.6,2.2-5.4,3.3-9.2,6.4
					s-5.9,5-7.6,6.8c-1.6,1.8-2.3,3-2.3,3s-3,0.7-6.3,0.3s-10.2-1.7-12-2.4c-1.9-0.7-2.9-1.6-2.9-1.6s3.3-9.1,4.2-12.2
					s2.4-7.8,4.8-15.3s3.7-11.6,6.2-19.3s3.8-11.7,4.7-15.9c0.9-4.3,0.5-6.3-1.1-9.2c-1.5-2.9-2.8-9.3-3.2-13.1
					c-0.4-3.8-0.2-3.6,1-5.8c1.2-2.2,5.3-8.5,6.6-10.8c1.3-2.2,2.9-4.6,2.9-4.6s-0.9-0.8-1.6-0.8c0,0,3.2-4.2,5.7-9.2
					c2.4-5,3.3-7.1,4.1-9.1c0.7-2,0.5-4.2,0.9-5c0.4-0.8,3.1-3.5,6.1-4.7c3-1.1,6.6-1.7,6.6-1.7L46.7,90.7z"/>
			</defs>
			<use xlink:href="#XMLID_7_"  style="overflow:visible;fill:#ECEFF0;"/>
			<clipPath id="XMLID_16_">
				<use xlink:href="#XMLID_7_"  style="overflow:visible;"/>
			</clipPath>
			<path id="shadow_10_" class="st4" d="M13.3,117.4c0,0,1.6,0.7,3.2-0.3c1.7-1,3.9-2.4,5-3.4c1.1-1,1.8-1.8,2.6-1.2
				c0.8,0.5,2.9,2.8,2.9,2.8s-1.3,0.2-2.6,1.1s-2.5,1.7-5.1,2s-5.5-0.5-5.5-0.5L13.3,117.4z"/>
			<path id="shadow_9_" class="st4" d="M33,120.2c0,0,0.5-0.8,1.8-1.8c1.3-1,1.8-1.6,2.3-0.9s0.8,1.6,1.1,3.4
				c0.4,1.8,0.1,3.2,0.1,3.2s-0.6-3.5-1.4-4.1C36.3,119.5,34.1,120.7,33,120.2z"/>
			<path id="shadow_8_" class="st4" d="M119.2,161.5c0,0-2.3,3.3-5,6.2c-2.7,2.9-3.2,3.7-5.5,3.7c-2.3,0-3.3-0.4-5.7-2.4
				c-2.4-2-31.5-24.6-31.5-24.6s-1.7-1.4-3-2.3c-1.3-0.9-2.4-1.4-3.7-2.7c-1.3-1.3-1.8-1.9-2.8-1.4c-1,0.6-1.9,1.3-3.8,4.1
				s-3.5,5.3-7,8.7c-3.4,3.4-6.7,5.3-6.2,11.5c0.4,6.2,1.6,15.2,1.9,16.6c0.2,1.4,0.6,1.9,2.1,3.7c1.8,2.2,5.3,5.2,5.8,7.7
				c0.5,2.6-1.9,5-5.3,7.7c-3.5,2.7-6,3.5-12,6.9s-11,8.4-14.7,9.3s-9.8,1.7-13.3,1S3.9,212,3.9,212s11.7-9.2,10.8-15
				c-0.9-5.8-4.8-8-5.4-14.9c-0.7-6.9,2.9-12.8,5-15.9c2.1-3.1,2.2-3.3,1.4-6.3c-0.8-3-2.4-5-5.3-8.4c-2.9-3.4-4.8-6.5-5.7-9.1
				s-21.2,86.1-21.2,86.1l31.7,3.4l96-50.3l15.2-17.5L119.2,161.5z"/>
			<path id="shadow_7_" class="st4" d="M49.7,93.9c0,0,0.1,1.6-0.6,2.3c-0.7,0.6-0.9,0.7-0.9,0.7l-7.6-4.1l2.4-7
				c0,0,7.4,4.4,7.4,4.3C50.5,89.9,49.7,93.9,49.7,93.9z"/>
		</g>
		<path id="broom" class="st5" d="M-68.8,259.5c0,0,4.5-2.6,11.3-7.8c10.3-7.7,26.9-21.1,49.5-39.2c42.2-33.6,44.8-35.8,72.5-57.9
			s52-41.3,61.8-49s23.7-18.9,25.2-20c1.5-1.2,4-0.7,5.2,0.3c1,0.9,1.8,3.6,0.5,4.6c-1.2,1-36.2,29.9-49.9,41.1S45,183,28.8,196.3
			c-16.3,13.3-41.2,34-49.3,40.5c-7.8,6.3-14.7,9.9-14.7,9.9l-0.2,2c0,0-1.3,1.5-5.3,4.7s-9.1,7.1-9.1,7.1L-68.8,259.5z"/>
		<g id="hand-r_1_">
			<defs>
				<path id="XMLID_10_" d="M-22.9,218.4c-0.6-0.2-1-0.3-2.1-0.2c-1.8,0.2-3,2.7-4.7,4.4s-2.7,1.4-5.4,2.3c-1.7,0.6-3.8,1.6-5.2,2.2
					c-0.6,1.4-1.1,2.2-1.8,2.4c-1,0.3-2.2,0.2-2.6,1.6c-0.4,1.4-0.7,4.1,0.6,7.1c1.3,3,1.8,3.3,2.3,3.5c0.5,0.3,0.3,0.8,0.4,1.7
					s0.6,3.6,2.3,5s2.6,1.3,4.4,0.3c1.8-1,3.9-2.7,4.6-3.4c0.7-0.7,0.5-1.6,0.5-1.6s1-0.1,2.3-0.6c1.7-0.6,2.5-1.7,3.2-1.7
					c0.6,0,0.8,0,0.8,0s-0.2,2.4,0.5,2.8c0.7,0.4,1.4,0.3,1.8-0.5c0.4-0.8,2.3-5.6,2.4-6.3c0.2-1.2-1.7-13-2.3-15.7
					C-21.2,219.2-22.5,218.5-22.9,218.4z"/>
			</defs>
			<use xlink:href="#XMLID_10_"  style="overflow:visible;fill:#D9B59D;"/>
			<clipPath id="XMLID_17_">
				<use xlink:href="#XMLID_10_"  style="overflow:visible;"/>
			</clipPath>
			<path id="shadow_18_" class="st6" d="M-24.2,241.9c0,0-2.2,0.4-3.3,0.2s-1.6-0.9-1.6-0.9s1-0.5,2.3-1.1c1.2-0.7,1.5-1.3,1.5-2.1
				c0.1-0.8-1.3-6-1.8-8.8c-0.5-2.8-0.4-3.1-0.4-3.1s1,1,2.1,4.2c1.2,3.3,2,7.7,2.5,8.6c0.5,0.9,0,0.9,1.1,0.5
				c1.1-0.4,1.5-0.7,2.3,0c0.8,0.6,0.9,2.3,0.9,2.3l-2.5,5.5l-4.1-1.9L-24.2,241.9z"/>
		</g>
		<g id="arm-l">
			<defs>
				<path id="XMLID_8_" d="M93,147.1c0,0,0.7-1.3,0.5-2.5c-0.2-1.1-0.8-1.9-2.1-2.7c-1.3-0.7-3-2.5-4.5-4.2c-1.5-1.7-5-3.8-6.9-3.7
					c-2,0.1-1.7,1.5-1.7,2.8c0,1.3,0,2,0,2s-2.6,0-4.3,1.1c-2,1.3-2.6,4.1-3.2,5.6c-0.6,1.5-1.4,2.9-2.9,4.5c-1.5,1.6-2.2,2.6-1.8,4
					c0.3,1.5,1.5,5.1,4.2,6.5c2.7,1.4,5.7-0.1,7.2-0.7c1.4-0.6,2.4-1.3,3.5-0.8c1.1,0.5,2.8,0.9,4.6,1.9c1.8,1,3.9,2.2,4.3,3.2
					s0.5,3.8,3,4.9c2.5,1.1,4,1.4,9.8,0.8s9.2-2.3,8.7-8.4c-0.4-6.1-2.6-9-6.3-10.4c-3.5-1.4-6.3-1.4-9.2-2.6
					C93.4,147.6,93,147.1,93,147.1z"/>
			</defs>
			<use xlink:href="#XMLID_8_"  style="overflow:visible;fill:#D9B59D;"/>
			<clipPath id="XMLID_18_">
				<use xlink:href="#XMLID_8_"  style="overflow:visible;"/>
			</clipPath>
			<path id="shadow_14_" class="st7" d="M78.5,133.8c0,0,0.3,2.6,2,5.2c1.8,2.7,4.4,6.4,4.4,6.4s-4-3.3-6.1-5.3
				c-2.1-2.1-2.7-3.3-2.7-3.3L78.5,133.8z"/>
			<path id="shadow_15_" class="st7" d="M92.3,141.8c0,0-0.1,2.3-0.8,4.1s-0.8,2.5-1.2,2.6c-0.4,0.1-0.8-0.3-1.6-0.1
				c-0.8,0.2-0.9,0.6-2.4,2.6s-3.9,3.5-6,4c-2.3,0.5-2.8-0.5-2.8-0.5s-1.6,2.7-4.2,3.6c-3.2,1.1-6.3,0.6-6.3,0.6l2.8,5l15.7,9.3
				l27.2-2.5l-1.3-9.3c0,0-1.1,0.6-2.8-0.8c-2.4-1.9-3.3-5.6-7.2-7.4s-6.9-2.7-8-3c-1.1-0.2-1.7-0.1-1.2-1s1.7-3.3,1.7-3.3l0-2.9
				L92.3,141.8z"/>
		</g>
		<path id="neck" class="st8" d="M31.8,85.3c0,0-0.9,2.3-0.6,7.1c0.3,4.8,0.3,5.6-0.2,6.8c-0.5,1.3-3,4.8-2.5,8.1
			c0.5,3.3,3.8,10.9,3.8,10.9s4-7,7.4-12.2c3.8-5.8,9.4-9.4,9.4-9.4s-2.7-1.6-3.9-2.9c-1.2-1.3-0.8-4-0.8-4L31.8,85.3z"/>
		<g id="hair-back">
			<defs>
				<path id="XMLID_6_" d="M68.5,65.1c0,0,1.1,4.3,0,7.3c-1,2.9-1.5,3-1,5.7c0.5,2.7,2.4,4,2.6,5.3c0.2,1.4,0.4,1.4-0.6,1.5
					s-5.5,1.5-8.5,4.1c-3.7,3.1-3.7,7.3-3.7,7.3s-1.8-3.6,0.3-6.9c2.1-3.3,3.1-3.2,3-3.9c-0.1-0.8-2.4-1.3-4.3-1.6
					c-1.9-0.3,0.1-20.5,0.1-20.5L68.5,65.1z"/>
			</defs>
			<use xlink:href="#XMLID_6_"  style="overflow:visible;fill:#DD9937;"/>
			<clipPath id="XMLID_19_">
				<use xlink:href="#XMLID_6_"  style="overflow:visible;"/>
			</clipPath>
			<path id="shadow" class="st9" d="M67.7,63.8c0,0-2.4,6.8-2.7,9.5c-0.2,2.6-0.1,4.2,0.1,4.9c0.2,0.6,0.9,0.8-0.5,1.5
				c-1.3,0.6-2.6,1.2-4.1,2.9c-1.5,1.8-2.1,3.4-2.1,3.4l-5.4-2.3l1-21.6l10.5-0.4L67.7,63.8z"/>
		</g>
		<g id="face">
			<defs>
				<path id="XMLID_5_" d="M16.3,80.8c0,0,1.6,0.6,3,0.1c1.4-0.5,1.7-1.4,1.7-1.4s0.2,1.1,1.4,2s3.1,1.6,6.2,3.2s7,4.5,11.5,6.5
					s5.4,1.9,6.9,1.6c1.5-0.3,1.9-0.9,3.2-2.1c1.3-1.2,4.9-4.9,7.1-6.9s4.2-3.3,5.2-5.4c1-2.1,0.4-6,0.7-8.3
					c0.2-2.4,0.3-4.2,0.3-4.2l-35.6-5.1L16.3,74.2L16.3,80.8z"/>
			</defs>
			<use xlink:href="#XMLID_5_"  style="overflow:visible;fill:#D9B59D;"/>
			<clipPath id="XMLID_20_">
				<use xlink:href="#XMLID_5_"  style="overflow:visible;"/>
			</clipPath>
			<path id="shadow_5_" class="st10" d="M35.4,69.6l-5.7,2.8l3.3-4.5l-2.1,0.3c0,0-1.2,1.1-2.8,2.2c-1.6,1.2-2.5,2.3-2.8,4.5
				c-0.4,2.2-1,4.5-2.9,6.2c-1.9,1.7-2.3,2.1-2.3,2.1l-7-1l-2.4-8.7L24,64.1l12.5,2.4L35.4,69.6z"/>
			<path id="shadow_6_" class="st10" d="M57.4,68c0,0-1.7,1.1-1.4,2.7c0.3,1.6,1.3,2.5,2.2,3.1c0.8,0.6,1,1.5-0.1,2.2
				c-1.1,0.8-2.9,1.3-2.8,2.1c0,0.3,0.5,0.4,1.1,0.5c0.6,0.1,1,1.5-0.4,2.9c-1.4,1.4-4.3,3.9-6.5,6.9c-2.2,3-3.2,5.3-3.2,5.3
				l7.6-1.1L66,77.6l0.1-13L57.4,68z"/>
			<path id="cheek" class="st11" d="M30.7,75.3c-0.5,1.7,2.1,4.4,8.1,3.8c5.8-0.6,7-3.2,7.1-4.6c0.2-1.4-4-2.2-8.4-1.9
				C33,72.9,31.1,73.8,30.7,75.3z"/>
		</g>
		<g id="hair">
			<defs>
				<path id="XMLID_3_" d="M-4.4,44.2c0,0-8.1,0-10.2,3.7c-2.1,3.7-2.4,6.2-3,6.8c-0.6,0.6-5.3,2.5-6.8,4c-1.5,1.4-1.2,2.8,0.2,3.8
					s2.4,1.7,2.4,2.8c0,1.1-0.9,2.6-3.2,4.6s-4.7,3.9-5.9,4.3c-1.2,0.3-6.2,0.5-13,1.4s-8.9,5.2-10.5,8.5c-1.6,3.3-0.8,6.7-0.8,6.7
					s0.7-4.6,3.5-5.3c2.7-0.7,6.5-1,10.7-0.6c7.4,0.7,11,6.9,15.2,6.3c4.3-0.6,7.9-2.5,12-6c4.1-3.6,4.5-4.9,5.3-5.3
					c0.8-0.3,1.9,0,3.6,0.5C-3,80.7,0.7,81,0.7,81l20.8-26.6L-4.4,44.2z"/>
			</defs>
			<use xlink:href="#XMLID_3_"  style="overflow:visible;fill:#F7AE45;"/>
			<clipPath id="XMLID_21_">
				<use xlink:href="#XMLID_3_"  style="overflow:visible;"/>
			</clipPath>
			<path id="shadow_2_" class="st12" d="M2.6,59.9c0,0-4.8-1.2-6.3-1.4c-1.5-0.2-3.6-0.5-5.6-0.1c-2,0.4-5.4,4.2-5.1,6.2
				c0.3,2,4,3.7,4.3,6c0.3,2.4-1.7,6.8-5.5,10.3s-7.7,6-11.2,6.5c-3.5,0.4-8.5-7.2-17.9-5.9s-8.4,6.4-8.4,6.4l9.1,8.6l31.1-2.6
				l23-12.8l7.6-18.8L2.6,59.9z"/>
		</g>
		<g id="hair-front">
			<defs>
				<path id="XMLID_2_" d="M5.9,66.4c0,0-3.5,2.5-7.4,8.4s-4.7,8.7-4.5,11.7s2.4,4,5.6,6.7c3.1,2.7,6.1,4.2,6.3,5.9
					c0.2,1.8-0.8,1.4-0.5,4c0.4,2.7,1.9,5.2,1.9,5.2s0.2-4.3,2.4-7.5c2.1-3.2,3.9-4.3,4-5.6s-2.7-1.4-2.9-3.5
					c-0.3-2.1,3.4-6.6,5.4-9.1c2-2.5,4.1-3.7,6.4-7.1c2.4-3.4,3.2-5.5,3.2-5.5s2.4-0.8,5.3-1.2c2.9-0.4,3.6-0.3,3.6-0.3l-1.8,2.6
					c0,0,3.2-0.4,7-1.4c3.8-1,7.3-2.5,7.3-2.5l-10.1-9.7L5.9,66.4z"/>
			</defs>
			<use xlink:href="#XMLID_2_"  style="overflow:visible;fill:#F7AE45;"/>
			<clipPath id="XMLID_22_">
				<use xlink:href="#XMLID_2_"  style="overflow:visible;"/>
			</clipPath>
			<path id="shadow_3_" class="st13" d="M26,59.3c0,0-0.3,2.4-2.2,5.3C22,67.5,20,70.7,20,70.7s2.8-2.3,5.1-3.5
				c2.3-1.2,2.5-1.5,4.9-1.4c2.4,0.1,2.7-0.2,4.2,0c1.5,0.2,1.9,0.1,3.5,1c1.6,0.9,3.1,1.5,4.6,1.8c1.5,0.4,3,0.5,3,0.5l2.6-1.9
				l-9.5-12.3L26,59.3z"/>
			<path id="shadow_4_" class="st13" d="M25.3,72.4c0,0-3,3.3-6.4,5.7c-3.4,2.3-4.5,2.2-7.4,7c-2.9,4.8-3.8,6.2-3.1,8.1
				c0.8,2.4,2.1,2,2.4,3.1c0.4,1.9-1.1,2.5-0.7,4.3c0.4,1.8,0.4,2.8,0.4,2.8l10.7-17.5L25.3,72.4z"/>
		</g>
		<g id="hat">
			<defs>
				<path id="XMLID_1_" d="M29.6,19.3c3.4-0.6,4.1,1.1,9.1,2c5,0.9,11.6,2.3,19.8,4.6s12.5,4.2,15.5,8.7s2.8,11.3,2.5,13.2
					c-0.3,1.9-0.9,2.6-0.9,2.6s2.5,0.7,5.6,3.1c3.1,2.4,5.3,4,6.2,4.8s0.9,1.7,0.9,1.7s-2.8,0.6-5.2,1.9c-2.4,1.3-8,5.8-14.7,6.4
					c-6.7,0.6-15.7,0.5-23.8-0.7s-13.1-4.9-13.1-4.9s-22.4,3.8-27,4.5c-3.8-5.7-6.8-11.7-9.3-17.4s-2.1-9,0.2-11.3
					c2.3-2.3,3.4-2.7,7.9-5.5c4.5-2.7,7-4,10.2-6.5s3.1-3.5,7.6-4.9C24.7,20.3,26.9,19.8,29.6,19.3z"/>
			</defs>
			<use xlink:href="#XMLID_1_"  style="overflow:visible;fill:#B9594F;"/>
			<clipPath id="XMLID_23_">
				<use xlink:href="#XMLID_1_"  style="overflow:visible;"/>
			</clipPath>
			<path id="shadow_1_" class="st14" d="M-7.9,44.1c0,0,3.7,1.1,10.1,2.3c6.4,1.2,9.5,2.2,12.2,1.9c3.6-0.4,7-5.7,10.9-6
				s3.3,2.7,14.9,1.1s19.4-4.9,20.2-5.2c0.8-0.2,1.6,1.1,6.6,3.2s7.7,3,11.8,3c4.1,0-1.1,5.8-1.1,5.8s-2.7,1.1-4.7,0.7
				c-2-0.4-2.8-1.5-3.6-1.2c-0.8,0.3-2.8,2.2-5.5,3c-2.6,0.9-8.8,3.4-12.8,4.5c-4,1.1-12.5,3.3-14.7,4.2c-2.2,0.9-2.8,1.5-2.8,1.5
				s1.3,1.6,5,2.2c3.7,0.6,4.9,0.1,9.3,1.2c4.4,1.1,6.6,0.8,11.8,0.8c5.2,0,9.5-0.4,12-0.8c2.5-0.4,2.3-1,4.8-2.4
				c2.6-1.4,5-2.7,7.7-3.9c2.7-1.2,4.4-1.9,4.4-1.9l1.2,8.5l-43.3,4.9l-44.6-3l-9.7-21.4L-7.9,44.1z"/>
		</g>
	</g>
</g>
</svg>
