<?xml version="1.0" encoding="utf-8"?>
<!-- Generator: Adobe Illustrator 23.0.0, SVG Export Plug-In . SVG Version: 6.00 Build 0)  -->
<svg version="1.1" xmlns="http://www.w3.org/2000/svg" xmlns:xlink="http://www.w3.org/1999/xlink" x="0px" y="0px"
	 viewBox="0 0 98 242" style="enable-background:new 0 0 98 242;" xml:space="preserve">
<style type="text/css">
	.st0{clip-path:url(#XMLID_2_);}
	.st1{fill:#D0C7DB;}
	.st2{clip-path:url(#XMLID_3_);fill:#AD936B;}
	.st3{clip-path:url(#XMLID_5_);fill:#E3B5DB;}
	.st4{clip-path:url(#XMLID_7_);fill:#9B59C8;}
	.st5{clip-path:url(#XMLID_8_);fill:#8E9296;}
	.st6{clip-path:url(#XMLID_9_);fill:#AD936B;}
	.st7{clip-path:url(#XMLID_10_);fill:#E3B5DB;}
	.st8{clip-path:url(#XMLID_20_);fill:#AD936B;}
	.st9{clip-path:url(#XMLID_20_);fill:#DC8181;}
	.st10{clip-path:url(#XMLID_21_);fill:#9B59C8;}
	.st11{clip-path:url(#XMLID_22_);fill:#8E9296;}
	.st12{clip-path:url(#XMLID_23_);fill:#AD936B;}
</style>
<g id="Layer_2">
	<g>
		<defs>
			<rect id="XMLID_4_" x="1" y="1" width="96" height="240"/>
		</defs>
		<clipPath id="XMLID_2_">
			<use xlink:href="#XMLID_4_"  style="overflow:visible;"/>
		</clipPath>
		<g class="st0">
			<polygon id="legs_1_" class="st1" points="-43.2,270.2 -50.9,279.3 30.5,294.3 39.6,288.6 24.4,266.8 			"/>
			<g id="arm-l_1_">
				<defs>
					<path id="XMLID_19_" d="M-45.4,151.1c0,0-5.4,2.3-13.5,7.4c-8.2,5.1-21.9,14-25.9,17.2c-5.7,4.7,16.2,3,16.2,3s1.8-1.8,8.9-4.1
						s16.1-5.1,20.2-7.3S-45.4,151.1-45.4,151.1z"/>
				</defs>
				<use xlink:href="#XMLID_19_"  style="overflow:visible;fill:#C6B397;"/>
				<clipPath id="XMLID_3_">
					<use xlink:href="#XMLID_19_"  style="overflow:visible;"/>
				</clipPath>
				<path id="shadow_23_" class="st2" d="M-90.1,189.2c0,0,8.1,1.7,9.7,2.1c1.7,0.4,2.1,0.5,2.2,0.4c0.1,0,0.5-1.4,0.5-1.4
					s2.1,2.2,3.5,3.7s1.6,1.8,1.6,1.8l3.3,1.5l-1.1,4.3l-23-5.6L-90.1,189.2z"/>
			</g>
			<g id="shirt_1_">
				<defs>
					<path id="XMLID_18_" d="M-13.3,129.8c0,0-2.4-1-5.8,1.8s-12.2,9.8-15.3,12.1c-3.1,2.3-4.9,3.8-6.2,3.5s-3.5-0.7-3.5-0.7
						s-1.6,0.6-2.8,6.3c-1.2,5.7-0.3,8.7,1.8,11.8c2.1,3,3.1,2.7,5,4.2c2.4,1.9,7.2,2.7,7.2,2.7l1.2-4.7c0,0-0.9-0.9-0.5-1.4
						c0.3-0.5,3.7-1.8,3.7-1.8s-1-0.1-0.3-2.4c0.7-2.3,6-4.3,8.1-5.2c2.2-0.9,12.1-4,12.1-4l47.6,54.8l17.4-13l3.2-9.9l-13.5-38.5
						l-19.6-5.6c0,0-33.3-14.9-33.5-14.6C-7,125.5-13.3,129.8-13.3,129.8z"/>
				</defs>
				<use xlink:href="#XMLID_18_"  style="overflow:visible;fill:#F1DAEB;"/>
				<clipPath id="XMLID_5_">
					<use xlink:href="#XMLID_18_"  style="overflow:visible;"/>
				</clipPath>
				<path id="shadow_22_" class="st3" d="M-18.7,144.2l-5.4-1.5c0,0-0.3-0.9,0.4-1.8c-2.2-0.2-5.2,1.1-9.7,4
					c-4.5,2.9-6.5,4.4-7.3,8.4c-0.4-0.4-0.4-1.5-0.4-1.5s-2.2-0.9-2.5,0.4c-0.3,1.4,0.7,2.9,1.2,4.5c0.5,1.7,0.5,2.5,0.5,2.5
					s-1.5,0.3-3.1-1.1c-1.6-1.4-3.2-3.8-3.2-3.8l-0.5,9l-0.5,9.4l22.1,3.3l82,28.3l5.8-16.3l-24.6-29.8l-8.4-1.5L8.5,133.1
					l-19.2-3.7L-18.7,144.2z"/>
			</g>
			<g id="overalls_1_">
				<defs>
					<path id="XMLID_17_" d="M-15,130.5c0,0-2.5,6.6-3.4,8.9s-1.6,4.2-1.1,4.8s3.7,5.4,6.8,10.8c3.1,5.4,5,9.9,6.4,16.9
						s1,8.3-0.1,13.2c-1,4.8-39.6,65.9-39.6,65.9s-2.6,3.4-4.5,5.7c-2,2.3-2.9,3.7-4.3,4.4c2.7,2.3,8.2,7.5,11.4,11
						c3.2,3.5,5.9,7.6,5.9,7.6l40.2,7.8c0,0,7.9-3.9,13.7-7.6s7.5-4.9,8.8-6.5c1.7,1.6,2.7,2.8,3.6,4.6c0.9,1.8,0.8,3.7,1.4,4.5
						c0.6,0.8,2,0.7,4.9,4.4c2.9,3.7,7.9,9.8,7.9,9.8l10.1,1.7c0,0,9.5-1.8,16.4-2.7s8.9-0.8,9.6-1.3c0.7-0.5,4.7-5.5,11.4-10.3
						c6.7-4.7,9.5-5.7,13-5.4c-1.5-6-8.8-18.3-8.8-18.3l-15.8-10.1c0,0-3.3-4-3.8-7.4c-0.6-3.8-2.2-11.1-3.4-14.1
						c-0.8-2.1-2.4-6.6-4.4-10.5c-2-3.9-4.8-9.8-4.8-9.8l-1.7-3.5c0,0-0.3-1.1-0.7-1.5c-0.4-0.5-1.1-0.5-1.1-0.8
						c-0.1-0.3,0.3-10.2,0.3-10.2l-2.4-3c0,0-3,1.9-5.5,3.3c-2.5,1.4-6,3.7-7.2,3.5c-1.2-0.2-4.2-2.5-7.1-6.8
						c-2.9-4.3-5.6-8-6.6-12.5c-0.9-4.6-0.1-7.5,0-11.5c0.1-4-0.1-5.3,0.7-7.9c0.8-2.6,6.4-6.8,6.4-6.8l10.9-3.2
						c0,0,0.4-2.2,0.3-2.5c0-0.3-3-0.7-3.2-0.8c-0.9-0.2-0.5-2-0.5-2s-1.1,0.3-3.4-0.4c-2.3-0.7-2.3-0.7-2.3-0.7l-19.6,0.9
						c0,0-1.1,1.5-6.1,5.5c-5,4.1-7.7,6-9.5,5.9c-1.8-0.2-4.5-1.5-8.4-5.3s-5.8-5.5-5.1-9c0.6-3.5,2.9-3.7,2.9-3.7l4.5-3l-7.4-2.4
						L-15,130.5z"/>
				</defs>
				<use xlink:href="#XMLID_17_"  style="overflow:visible;fill:#B380D5;"/>
				<clipPath id="XMLID_7_">
					<use xlink:href="#XMLID_17_"  style="overflow:visible;"/>
				</clipPath>
				<path id="shadow_21_" class="st4" d="M-17.3,133.3c0,0,2.3,3.9,3.4,5.9c1.1,2,2.1,4.5,2.4,4.8c0.3,0.3,0.7,0.4,1.4,1.2
					c0.7,0.9,2.6,4.3,6,7.4c3.4,3.1,6.2,5.6,7.4,6.2c1.2,0.6,1.2,0.1,1.2,0.1s1-1.9,3.6-3.6c2.6-1.7,6.9-5,9.7-7.3
					c2.8-2.3,4.3-4.8,4.3-4.8l0.3-9l-39.6-9.2L-17.3,133.3z"/>
				<path id="shadow_20_" class="st4" d="M-13.2,155.8c0,0,3.3,1.9,7.4,7.4c4.1,5.5,4.6,7.7,8.6,11.4s7.1,4.1,7.1,4.1
					s-1.4,2-4.7,1.5c-3.3-0.5-3.9-0.8-3.9-0.8s-0.2,2.2,2.7,4.9c2.9,2.6,6.8,5.3,6.8,5.3s-2.5-0.3-5.1-1.7c-2.5-1.3-4.3-2.6-6.8-2.8
					s-4.6,0.6-4.6,0.6l-4-4.6L-13.2,155.8z"/>
				<path id="shadow_19_" class="st4" d="M59.8,195.3c0,0-6.7,4.2-8.3,5.3c-1.6,1.1-2.6,2.2-4,3.5c-1.3,1.4-4.1,4.2-9.8,7
					S29,215,27,214.8s-8.6-5-8.6-5s4.9,4.8,10,6.8s12.6,3.7,13.5,3.9c0.9,0.2,0.9-0.4,2.2-1.7s4.9-4.1,9.1-6.3s6.7-3.7,6.7-3.7
					l5.9-4.7L59.8,195.3z"/>
				<path id="shadow_18_" class="st4" d="M-1.1,229.5c0,0,9.7,1.9,11.2,2.1c1.5,0.2,9.3,1.5,12.1,1.6c2.6,0.1,7.6-1.6,13.9-2
					c9-0.6,19.5,0,19.5,0s-4.5,2.5-11.2,5.8c13.6,1.7,16.7,6.3,16.6,6.5C60.7,243.9-3,243-2.7,246c0.3,3,1.7,6.2,1.7,6.2
					s-3.6,0.1-7.7,1.8c-4.1,1.7-5.2,3.6-4.8,4.1c0.4,0.6,3.2,1.6,9.3,2.8s14.4,0.9,14.4,0.9s-0.3,1.7-0.2,2c0.2,0.3,1,1,4.8,1.2
					c3.8,0.2,8.6-0.8,15.2,0.7c6.6,1.5,9,5.4,9.5,10c0.5,4.6,1.6,9.3,2.6,9.7s8.9-1.7,13.2-2.8c4.3-1.1,7.6-2.2,10.1-3.3
					c-0.8,5.9-2.9,16.8-2.7,16.9c0.2,0,4.4-3.8,12.9-7s16-4.7,16-4.7l-12.7,20l-92.2-13.5l0.9-7.1c0,0,0.6-3.2-3.5-6.8
					c-4-3.6-5.4-4.1-7.8-6.6s-2.5-3.5-2.5-3.5s1.5-1.9,6.7-1.4c5.2,0.5,5.6,0.6,5.7,0.4c0.1-0.3-0.6-0.9-0.6-1.5s0-1.1,0-1.1
					s-2.7-0.9-3.6-1c-0.9-0.1-6.4,2.5-12.4,0.8c-6-1.7-7.5-3.9-8.7-5.4c-1.2-1.5-2.2-2.9-2.6-3c-0.4-0.1-1.5,1.7-4.3,4.5
					c-2.7,2.8-5,4.2-5,4.2s0.9-3.2,0.5-4.2s-2.2-2.1-2.2-2.1l24.7-34.1L-1.1,229.5z"/>
			</g>
			<g id="duster-r">
				<path id="handle_1_" d="M22.5,262c0,0,2.1-8,5.1-10.3c2.5-1.9,8,0.1,20.4,0.5s18-1.3,26.1-3.3s12-3.6,12-3.6l-1.3,6.3
					c0,0-9.1,2.4-20.4,4.8s-25.2,5.7-31.6,6.1C26.6,262.9,22.5,262,22.5,262z"/>
				<g id="feather">
					<defs>
						<path id="XMLID_16_" d="M93.6,190.5c0,0,2.8,3.8,6.2,5.1c3.4,1.3,4.6,1.5,5.2,1.4c0.6-0.1,1.4-0.5,1.6-0.2
							c0.3,0.3,1.2,0.7,1.2,0.7s-1.8-2.5-2.9-4.2c-1.1-1.7-3.6-6.2-3.6-6.2s11.2,6.2,19.3,11.6c8.1,5.4,12.9,10.5,12.9,10.5
							s0.8-0.8,0-2.7c-0.8-1.9-2.4-4.8-2.4-4.8s5.2,4.7,10.4,13.3c5.2,8.6,7.2,14.5,7.1,15.9s-1.1,4.2-1.5,6.5
							c-0.5,2.4-0.3,3.5-1.4,6.6s-3.6,7.7-7.7,13.6c-4.2,5.9-7.5,9-8.6,8.7c-1.1-0.2-2.5-2.2-3.4-3.2s-2.3-2.2-2.3-2.2
							s-0.2,1.7-1.9,3c-1.7,1.3-10.7,5.5-17.9,3.8c-7.2-1.7-12.9-5.2-14.5-6.8c-1.6-1.6-2.7-3.1-2.7-3.1s1.5,0.1,3.1-1
							c1.6-1.1,1.7-22.2,1.7-22.2l-10.4-21.3l0.5-13.6l6-0.7c0,0,4.4-1.6,5.5-3.8C94.1,193,93.6,190.5,93.6,190.5z"/>
					</defs>
					<use xlink:href="#XMLID_16_"  style="overflow:visible;fill:#D0C7DB;"/>
					<clipPath id="XMLID_8_">
						<use xlink:href="#XMLID_16_"  style="overflow:visible;"/>
					</clipPath>
					<path id="shadow_17_" class="st5" d="M97,193.2c0,0,2.6,2.7,4.8,5.4c2.2,2.6,3.6,4.6,3.6,4.6s-4.7-2.3-6.5-3.2
						c-1.8-0.9-2.6-1.4-2.6-1.4s-0.1,1,0.1,2.1s0.5,2.4,0.5,2.4s-2.1-1.3-3.8,0.8c-1.8,2.1-1.9,8.6-1.6,12.9s0.3,6.1,0.3,6.1
						l10.8,24.5c0,0,1.4,1.1,6.8,1.7c5.4,0.6,8.8-0.9,11.9-3.8c0.4,4.2,3.9,7.9,9.9,9.1c5.9,1.2,11.4-2.4,14.8-11.5
						c3.4-9.1,3.6-7.1,3.6-7.1l4.2,6.7l-11.2,43.4c0,0-85.3-24.8-84.5-24.9s22.3-69.2,22.3-69.2l13.5-10.3L97,193.2z"/>
				</g>
			</g>
			<g id="arm_1_">
				<defs>
					<path id="XMLID_15_" d="M85,202.1c0,0,2.7,4.6,6.1,12.6c3.4,8,2.2,9.9,5.2,15c3,5.1,5.9,13.1,7,16.5s1.3,5.5,0.6,5.7
						s-1.8-0.4-3.1,0.6s-4.1,3-6.6,4s-2.9,1.6-5.6,0.8c-2.7-0.8-4.5-1.3-5.5-1.7c-1-0.4-0.9-1.1,0-2c0.9-0.9,1.6-2.4,1.8-4.1
						c0.2-1.6-1.8-3.4-1.4-5.4s2.2-6.5,2.4-7.2c0.1-0.7,0.2-0.7-0.7-1.7c-0.9-1.1-10.7-13.5-13.4-16.6c-2.7-3.1-8.1-10.8-8.1-10.8
						L85,202.1z"/>
				</defs>
				<use xlink:href="#XMLID_15_"  style="overflow:visible;fill:#C6B397;"/>
				<clipPath id="XMLID_9_">
					<use xlink:href="#XMLID_15_"  style="overflow:visible;"/>
				</clipPath>
				<path id="shadow_16_" class="st6" d="M67.4,208.6c0,0,1.5,4.2,6.7,10.7c5.7,7.3,15.1,14.6,15.1,14.6s-1.6,6.5-2.2,7.2
					s-4.7,2.8-4.7,2.8L61.8,211L67.4,208.6z"/>
			</g>
			<g id="sleeve_1_">
				<defs>
					<path id="XMLID_14_" d="M57,148.9c0.9,0.7,7.5,14.2,11,20.8s8.7,17.3,9.6,19.2c0.9,2,1,2.8,3.7,4s6.6,2.1,6.6,2.1
						s0.5,2.9,0.6,4.3c0,1.4,0,2.6-1,3.1c-1,0.5-6.6,3.9-11.1,5.6c-4.5,1.7-5.5,2.5-7,2.3s-3-0.1-4.4,0.8c-2.1,1.3-4.5,4.4-4.5,4.4
						s-2.8-2.5-2.2-6.2c0.6-3.7,2.8-6,3.1-6.5c0.3-0.5,0.5-1.3,0.2-1.9c-0.3-0.6-4-10.1-10-18.2S37,165.4,36,161
						c-1-4.4-1.6-6.9-0.6-9.3c0.9-2.4,3.9-6,12.4-5C53.4,147.4,56.6,148.5,57,148.9z"/>
				</defs>
				<use xlink:href="#XMLID_14_"  style="overflow:visible;fill:#F1DAEB;"/>
				<clipPath id="XMLID_10_">
					<use xlink:href="#XMLID_14_"  style="overflow:visible;"/>
				</clipPath>
				<path id="shadow_15_" class="st7" d="M34.6,158.1c0,0,6.1,1.1,8.8,2c2.7,0.9,4.3,1.7,4.1,2.4s-4.9,0.7-5.2,1
					c-0.3,0.3,2.8,4,4.3,6.3c1.5,2.3,4.4,6.2,6,7s3.4,1.4,3.4,1.4s-0.6,1.7-0.2,2.4c0.4,0.7,4,5.3,6.6,8.6s4.3,6.4,5.4,7
					c1.1,0.7,2.4,0.8,2.4,0.8s-2.2,0.7-3.4,2.9c-1.1,2.2-1.3,4.4-1.1,4.8c0.2,0.4,1.9-0.9,2.7-1.4s1.9-1.2,2.9,0.3
					c1,1.5,1.1,2.4,2.4,3.4s3.7,1.5,3.7,1.5l-7.1,10.1l-15.2-3.5L28.9,158L34.6,158.1z"/>
			</g>
			<g id="face_1_">
				<defs>
					<path id="XMLID_13_" d="M53.8,118.4c0,0-0.9,3.1-2.9,6.1c-2,3-10.4,13.9-12.3,14.1c-0.4,0.1-1.2-0.1-2.2-0.4l-0.3,2.4l-11-1.2
						l-4.1-23.1l22.9-14.5l8.5,5.8L53.8,118.4z"/>
				</defs>
				<use xlink:href="#XMLID_13_"  style="overflow:visible;fill:#C6B397;"/>
				<clipPath id="XMLID_20_">
					<use xlink:href="#XMLID_13_"  style="overflow:visible;"/>
				</clipPath>
				<path id="shadow_14_" class="st8" d="M51.4,117.9c0,0-1.8,1.6-5.1,1.1c-3.3-0.6-5.1-0.9-5.1-0.9s0.7-1.7,0.8-2.4
					c-2,0.3-5.8,2.4-5.8,2.4l2.2-7.1l-5,4.7c0,0-3.4,2.5-4.5,6.2s-2.1,11.3-2.1,11.3l2.3,2.5c0,0,1.1,0.8,4.1,1.7
					c3,1,5.6,1.9,5.6,1.9l-2.5,2.9l-15.1-2.5l-2.4-25.1l24.8-14.8l11.6,6.6l0.6,10.8L51.4,117.9z"/>
				<path id="cheeck" class="st9" d="M42.3,121.2c-1.4-0.2-2.8,0.3-4.4,1.1c-1.6,0.9-2.9,1.4-3.1,2.6c-0.3,1.2-0.2,2.1,1.8,2.6
					c2,0.5,3.7,0.1,5.2-0.6s2.6-1.8,2.9-3.3C45,122.1,43.7,121.3,42.3,121.2z"/>
			</g>
			<path id="hair" d="M-14.7,110.8l-0.7,3.8c0,0-1.2,0.2-3-0.2c-1.8-0.4-3.9-2.2-4.3-6.5c-1.1,3.2-1.5,3.8-2,6.1
				c-0.5,2.3,0.4,7.9,4.6,13c3.4,4.1,5.3,4.2,8.2,4.8C-8.9,132.4-6,133-6,133s-1.9,1.2-4,1.8c-2.1,0.7-3,0.3-3,0.3s0.2,1.7,2.8,3
				s6.9,1.8,10.1,2.5c6.4,1.4,6.3-0.4,8.5,0s1.8,1.9,5,2.4c3.1,0.6,5.8-0.6,5.8-0.6s1.1,3.1,5.6,3.9c4.5,0.9,8.9-1.8,8.9-1.8
				s-2.2-0.2-2.2-1.2c2.8,0.7,11.4-2,14-5.1c-4.8,2.1-8.6,3-12.4,0.8c-3.8-2.1-3.6-3.3-3.6-3.3l0.7-0.4c0,0-4.8-3.9-4.8-9.8
				c0-5.9,1.2-9.1,1.2-9.1s1.3,1.1,0.7,3.6c1.6-2.6,3.5-2.5,6.7-3.9c3.2-1.4,5.9-4.7,7.9-7.2c-0.3,2.9-0.6,4-0.6,4s3.2-1.9,4.2-2.7
				c1-0.8,1.8-1.4,1.8-1.4s-0.1,2.5-0.8,4.4c-0.7,1.9-1.9,3.7-1.9,3.7s1.7-0.3,3.4-0.8c1.7-0.5,2.4-1,2.4-1s-0.7,2.5,0.1,3.7
				c0.9,1.2,1.8,2.7,1.8,2.7l1.8-0.5c0,0,0.4,2.3-1.2,4.2c4.6-0.8,11.4-1.8,15.9-7.6c4.5-5.9,3.1-13.5,3.1-13.5s2.5,3,4,5.2
				c1.5,2.3,3.3,6,3.3,6s2.3-5.4,4.1-12.6c1.3-5.4,0.1-8.1,0.3-10c0.2-1.9,0.9-1.5,0.9-1.5s-1.4-4.3-4.8-8.1s-5-7.2-5-7.2l6.1,1.3
				c0,0-5.6-9.8-7.2-12c-1.7-2.2-4-3.6-8.7-4.6c-4.6-1-10.3-2.4-16.4-1.2c-6.1,1.2-7.8,2.8-7.8,2.8L-14.7,110.8z"/>
			<g id="hat">
				<defs>
					<path id="XMLID_12_" d="M-5.3,62l-1,5.5c0,0,2-1,4.5-0.5c2.2,0.5,2.5,5,2.5,5s-2.5,1.9-6.6,5c-4.1,3.1-6.7,4.7-10.7,6.8
						s-4,1.7-4.5,3.7c-0.5,2-2.2,6.7-0.5,11.4c0.6,1.8,1.3,5.4,3.6,7.7c0.6,0.6,1.6,1.5,1.7,2.1c0.1,0.6-0.6,0.9-0.1,1.6
						c2.7,3.6,6.7,6.8,13.3,8.2c14.1,3,24-2.5,31.1-9.6C35,101.8,40.5,90.4,44,85.6c3.4-4.9,4.5-8.6,5.7-13.4
						C50.9,67.3,47,60.4,37,58.2c-10.1-2.2-15.2-0.5-21.5,2.7c-6.3,3.2-10.8,7.3-10.8,7.3S1,62.7-5.3,62z"/>
				</defs>
				<use xlink:href="#XMLID_12_"  style="overflow:visible;fill:#B380D5;"/>
				<clipPath id="XMLID_21_">
					<use xlink:href="#XMLID_12_"  style="overflow:visible;"/>
				</clipPath>
				<path id="shadow" class="st10" d="M-6.7,66.7c0,0,1.6-1.6,4.4-0.8s3.3,3.3,3.8,4.4c0.5,1.1,1,1.7,1,1.7s2.4-0.7,2.7-1.2
					c0.3-0.6-0.6-1.6-0.4-2.1c0.2-0.4,1.4-1,1.8,0c0.4,0.9,0.7,2,0.4,2.7c-0.3,0.7-2,1.6-3.3,2.5c-1.3,0.9-2.1,2.2-3.6,1.3
					s-7.6-7.8-7.6-7.8L-6.7,66.7z"/>
				<path id="shadow_6_" class="st10" d="M-17,108.3c0,0-0.3-3.9,0.4-7.3c1.5,4,6.4,8.9,17.3,11.2s25.1-6.6,32.2-13.9
					C40.1,90.9,43,81.6,43,81.6s0.6,4.6-1.6,11.2C39.1,99.3,21,128.3,21,128.3l-36.8-10.7l-2.2-7.2L-17,108.3z"/>
			</g>
			<g id="duster-l">
				<path id="handle" d="M-131.5,157.6c0,0-0.9,1.5-1.4,3.7c-0.4,2.1,0.4,4.7,0.5,7c0.2,2.3,0.5,4.7,0.5,4.7s8.5,1.5,20,6.1
					s12.1,6.2,15.8,7.2c3.7,1,7.3,1.4,7.3,1.4l15.1,8.4c0,0,2.9,1.3,6,2.8c3.1,1.6,4.3,2.2,4.3,2.2l4-7.1c0,0-0.6-1.9-6-3.7
					c-5.4-1.9-16-5.4-16-5.4l-7.7-3.3c0,0-5-1.7-8.9-4.3c-3.9-2.6-12.2-9.2-20.2-14.3C-126,158-131.5,157.6-131.5,157.6z"/>
				<g id="shadow_5_">
					<defs>
						<path id="XMLID_11_" d="M-14.5,174.2c0,0,4.1,1.6,7.4,6.2s6.3,9,8.8,14c2.5,5,7.7,16.9,7.1,21c-0.6,4-4.1,9-7.9,14
							c-3.8,5-5.1,6.8-6.7,8.1c-1.6,1.3-3.2,2-3.8,2.8c-0.6,0.8-0.3,1.6-2.4,2.8c-2.1,1.2-7.7,3.5-12.8,5.2s-12.7,3.8-17.8,3.4
							s-11.3-1.9-11.3-1.9l5.1-1.9c0,0-6.9-1.4-13.7-2.4s-11.2-0.9-15.3-2.2c-4.1-1.3-5.8-2.6-5.8-2.6s10.7-5,11.3-8.8
							c0.5-3.4-10.4-8.1-10.4-8.1s8.2,0.5,8.8-2.3c0.6-2.8-4.7-6.7-4.7-6.7s8.9-0.4,10.4-6.3c1-3.9-3.7-6.7-3.7-6.7s7.9-2.1,9.1-5.9
							c1.3-3.7-0.7-4.9-0.7-4.9l6.8,2.4l1.4-8.1l14.8,3.6c0,0-2.4-6.9-4.7-9.8c-1.6-2-5.3-2.8-5.3-2.8s19.7,3,24.8,3.7
							c5.1,0.6,10.7,1.1,10.7,1.1s0.4-2.5,0-4.2S-14.5,174.2-14.5,174.2z"/>
					</defs>
					<use xlink:href="#XMLID_11_"  style="overflow:visible;fill:#D0C7DB;"/>
					<clipPath id="XMLID_22_">
						<use xlink:href="#XMLID_11_"  style="overflow:visible;"/>
					</clipPath>
					<path id="shadow_x5C_" class="st11" d="M-74.2,211.9c0,0,3,1.8,7.5,2.1s9.1-2.4,9.1-2.4s-3.4,5-4.5,6.5
						c4.2,0.6,9.3-0.4,17.3-3.1c9.1-3.1,18.2-9,18.2-9l-3.4,8.3l2.3,0.7c0,0-1.3,2.8-1.6,4.2s-0.4,3.4,6,5.1
						c6.5,1.7,13.8-1.1,17.7-4.2c-0.3,1.6,0.2,2.3,2.4,2.2s6.8-2.5,8.9-6.6s2.7-10.2,2.7-10.2l10.9,0.5L4.7,265.8L-95,246.5
						l12.8-37.5L-74.2,211.9z"/>
				</g>
			</g>
			<g id="hand-l_1_">
				<defs>
					<path id="XMLID_6_" d="M-84.8,175.7c-5.7,4.7-6.6,12.1-6.4,12.5c0.2,0.4,1.3,0.4,1.7,0.8s3.1,4.2,3.4,4.7
						c0.3,0.6,1.2,0.7,2.2,0.6s1.7-0.2,2.8,0.1c1.2,0.2,2,0.6,3.8,1.7s5.8,3.3,5.8,3.3s0.8-1.5,0.4-2c-0.4-0.5-1.8-1.4-1.7-1.9
						c0.1-0.4,2-5.5,2.8-7c0.8-1.5,2.1-4.7,2.3-6c0.2-1.3-1-3.9-1-3.9S-80.8,172.4-84.8,175.7z"/>
				</defs>
				<use xlink:href="#XMLID_6_"  style="overflow:visible;fill:#C6B397;"/>
				<clipPath id="XMLID_23_">
					<use xlink:href="#XMLID_6_"  style="overflow:visible;"/>
				</clipPath>
				<path id="shadow_1_" class="st12" d="M-90.1,189.2c0,0,8.1,1.7,9.7,2.1c1.7,0.4,2.1,0.5,2.2,0.4c0.1,0,0.5-1.4,0.5-1.4
					s2.1,2.2,3.5,3.7s1.6,1.8,1.6,1.8l3.3,1.5l-1.1,4.3l-23-5.6L-90.1,189.2z"/>
			</g>
		</g>
	</g>
</g>
<g id="dm">
</g>
</svg>
