<?xml version="1.0" encoding="utf-8"?>
<!-- Generator: Adobe Illustrator 23.0.0, SVG Export Plug-In . SVG Version: 6.00 Build 0)  -->
<svg version="1.1" id="Layer_2" xmlns="http://www.w3.org/2000/svg" xmlns:xlink="http://www.w3.org/1999/xlink" x="0px" y="0px"
	 viewBox="0 0 720 540" style="enable-background:new 0 0 720 540;" xml:space="preserve">
<style type="text/css">
	.st0{clip-path:url(#XMLID_12_);fill:#CE9D7D;}
	.st1{fill:#B6C1C9;}
	.st2{clip-path:url(#XMLID_13_);fill:#863D35;}
	.st3{clip-path:url(#XMLID_14_);fill:#B6C1C9;}
	.st4{fill:#727996;}
	.st5{clip-path:url(#XMLID_15_);fill:#CE9D7D;}
	.st6{clip-path:url(#XMLID_16_);fill:#CE9D7D;}
	.st7{fill:#CE9D7D;}
	.st8{clip-path:url(#XMLID_17_);fill:#BA802E;}
	.st9{clip-path:url(#XMLID_18_);fill:#CE9D7D;}
	.st10{clip-path:url(#XMLID_18_);fill:#DC8181;}
	.st11{clip-path:url(#XMLID_19_);fill:#DD9937;}
	.st12{clip-path:url(#XMLID_20_);fill:#DD9937;}
	.st13{clip-path:url(#XMLID_21_);fill:#863D35;}
</style>
<g id="arm-r_1_">
	<defs>
		<path id="XMLID_9_" d="M170.1,437.3c5.9-7.9,15.1-15.5,18-21.3s3.4-10.3,3.4-10.3l-26.1-14.1c0,0-4,2.4-9.4,14
			c-5.4,11.6-11.6,31.3-17.9,47.6c-6.3,16.3-9.2,24.3-12.8,30.3c-3.5,5.8-5,9-6.9,9.5c-1,3.7-2.1,9.6,1.3,8.9
			c5-1.1,23.1-5.8,26.5-8.5c3-2.4,8-12.9,9.1-15.3c-0.1,0-0.3,0-0.5,0c0.2-4.3-0.4-5,1.5-6.6s4.6-2.6,5-5.4s-2.9-5.6-2.4-8.6
			S164.2,445.1,170.1,437.3z"/>
	</defs>
	<use xlink:href="#XMLID_9_"  style="overflow:visible;fill:#D9B59D;"/>
	<clipPath id="XMLID_12_">
		<use xlink:href="#XMLID_9_"  style="overflow:visible;"/>
	</clipPath>
	<path id="shadow_16_" class="st0" d="M177.3,400.9c0,0,0.7,7.3-1.1,12.8s-3.3,7.4-7.8,10.8s-12.6,10-18.5,19.4
		c-4.4,7-4.3,12.2-6.4,15.4c-2,3.1-4.4,5.8-7.9,8.8s-6.9,5.8-6.9,5.8l-9.3,15.9c0,0,7.4-2.7,12.4-3.8s6.8-0.3,10.2-3
		s6.1-6.9,9.3-6.9s4.4,1.2,4.4,1.2l9.4-8.9l30.3-58.4L177.3,400.9z"/>
</g>
<path id="sleeve" class="st1" d="M239.3,308.5c0,0-9.9,8.9-20.1,21c-10.4,12.4-12.8,16.5-19.3,24s-11.5,13.3-13.8,13.3
	c-2.3,0-5-2.7-7.2-2.7s-3,1.8-4.8,5.2c-1.8,3.4-2.9,9.3-5.8,14.3c-2.9,5.1-5,7.7-5.4,8.7s2.3-0.3,3.4,1.3c1.2,1.6,3.2,4.7,8.1,8
	c4.9,3.3,3.8,4.2,9.1,7.2s12.7,4.8,12.7,4.8l9.3-22.2c0,0,0-8.9,0-10.6c0-1.7,2.6,0.1,3.3,1.6c0.7,1.5,26.6-44,26.6-44L239.3,308.5z
	"/>
<g id="overall">
	<defs>
		<path id="XMLID_7_" d="M267.2,266.6c0,0-14.3,14.1-22.4,28.3c-8.1,14.2-11.4,21.9-16.6,33.2c-5.2,11.3-4.5,17.2-15.1,41.6
			c-7.6,17.7-10.1,25.4-19.5,48c-9.3,22.7-13,34.3-17.7,48.9c-4.7,14.7-7.8,25-10.3,31.3c-2.5,6.3-5.6,10.1-12,23.9
			c-6.5,13.9-11.2,24.1-11.2,24.1l222.9,0.8c0,0-5.6-2.4-8.9-6.4s-4.4-4.3-7.4-7.2s-2.4-2.9-4.4-6.6s-4.4-9.1-8.2-14.9
			s-7-10.7-7.3-12.3s1.2-4.7,1.2-9.3c0-3.6-2.9-2.4-5.4-3.3c-2.5-0.8-8.9-8.3-8.9-8.3s6.1-6.9,6.4-9.1s-3.7-5.3-6.7-7.7
			s-13.1-9.5-13.1-9.5l-100-17.5c0,0,0.6-15,7.7-30.3c7.8-16.8,8.4-15.2,13.8-26.3c5.3-11.1,8.6-17.3,8.6-17.3l35.7-84.4
			L267.2,266.6z"/>
	</defs>
	<use xlink:href="#XMLID_7_"  style="overflow:visible;fill:#B9594F;"/>
	<clipPath id="XMLID_13_">
		<use xlink:href="#XMLID_7_"  style="overflow:visible;"/>
	</clipPath>
	<path id="shadow_13_" class="st2" d="M223.4,350.6c0,0,0.3,8.1-3.9,18.8c-4.5,11.4-12.1,28.9-17.6,41.6s-10.3,23.9-14.1,42.5
		s-2,30.1-2,30.1l34.8-76.6l18.4-46.9L223.4,350.6z"/>
	<path id="shadow_12_" class="st2" d="M318.7,477.1l-2.6,1.3c0,0-8.3,10.4-14.4,18c-6.1,7.6-11.1,16.7-16.6,27.7s-7.9,18.8-7.9,18.8
		l17.8-1.1c0,0,1.8-11.1,6.3-21.4c4.5-10.3,6.3-14.1,7.3-17.9c1-3.8,0-3.2,2.3-4.5c2.3-1.3,9.3-5.1,12.5-6.7c3.2-1.6,4-1.7,3.2-2.3
		c-1.9-1.3-3.1-4.2-3.1-4.2L318.7,477.1z"/>
	<path id="shadow_11_" class="st2" d="M220.1,540.8c0,0-6.4-7.4-9.9-11.2s-6-8.6-6-8.6s2.7,4.7,7.6,7.3c6.4,3.4,8.9,0.4,12.4,3.3
		s9.3,11.6,9.3,11.6L220.1,540.8z"/>
</g>
<g id="shirt">
	<defs>
		<path id="XMLID_6_" d="M307.4,263.8c0,0,0.4,6,4.4,8.8c6.4,4.4,9.8,5.1,11.4,5.9s1.4,3.4,0.1,4.7s-2.3,1.8-2.3,1.8
			s2.2,4.2,8.3,10.2c6.1,6,14.1,12,15.2,12.7c1.1,0.7,0.8,1.6,0.5,2.7s-1,1.5-0.5,2.8c0.5,1.3,2.4,4.6,3.6,7.1
			c1.2,2.5,1.5,3.5,3.3,5.1c1.8,1.6,7,6.5,14.3,13.2c7.3,6.7,10.9,10.7,12.3,12.1c1.3,1.4,5.6,8.9,7.7,11.1s4.5,4.2,6.9,6.8
			c2.4,2.6,3,4,3.6,4.3c0.6,0.3,5.5-0.1,6.7,0.5c1.1,0.6,1.5,1.3,2.6,3.8s4,8.6,6.2,12.8s7.2,14.2,8.4,15.9s2.7,2.8,0.9,4.3
			s-11.3,8.9-15.2,12.4s-5.1,4.8-6.8,6.5s-2.7,3.6-3.3,3.7s-1.5-2.1-8.8-4.9s-7.1-3.4-13.9-5.3s-7.6-1.1-9.2-2.4s-1.6-4.8-1.5-8.9
			s2.1-18.3,2.1-18.3s-16.4-14.6-24.6-22.2s-9.9-9.8-13.6-9.5s-6,0.4-8,2.9s-8.3,14.4-11.7,20.1c-3.3,5.7-5.4,8.9-7.9,16.7
			s-3.1,16.5-0.8,24.1s4,10.6,5.9,18.8c1.9,8.1,2.7,17.3,2.7,17.3s-13.6,0.7-26.8,3.4c-9.8,2-22,8.7-29.1,12
			c-6.8,3.2-10.3,4.8-17.9,9.4c-7.6,4.7-11.7,7.6-15,10.5c-3.3,2.9-4.8,4.8-4.8,4.8s-5.6,0.5-11.3-0.9c-5.8-1.4-17.8-5.3-21-6.8
			c-3.2-1.6-4.9-3.4-4.9-3.4s7.8-15.6,10.1-20.9c2.3-5.3,5.9-13.4,11.9-26.3c6-12.8,9.1-19.9,15.3-33.3c6.3-13.3,9.3-20.1,11.8-27.5
			c2.5-7.4,2.2-11.1,0.1-16.7s-3.1-17.3-2.9-24.2s0.5-6.6,3.1-10.2s11.4-14.1,14.2-17.8s6.2-7.6,6.2-7.6s-1.4-1.6-2.8-1.9
			c0,0,6.7-6.8,12.1-15.3s7.5-11.9,9.3-15.3s1.8-7.4,2.6-8.8s6.3-5.6,12-7s12.1-1.6,12.1-1.6L307.4,263.8z"/>
	</defs>
	<use xlink:href="#XMLID_6_"  style="overflow:visible;fill:#ECEFF0;"/>
	<clipPath id="XMLID_14_">
		<use xlink:href="#XMLID_6_"  style="overflow:visible;"/>
	</clipPath>
	<path id="shadow_10_" class="st3" d="M241.9,304.2c0,0,2.6,1.6,5.8,0.3s7.5-3.4,9.7-5s3.6-2.8,4.9-1.6s4.6,5.7,4.6,5.7
		s-2.4,0.1-4.9,1.4s-4.8,2.4-9.6,2.4s-9.7-2.1-9.7-2.1L241.9,304.2z"/>
	<path id="shadow_9_" class="st3" d="M276.5,313.5c0,0,1.1-1.4,3.6-2.8s3.5-2.6,4.3-1.1s1,3,1.3,6.3s-0.4,5.8-0.4,5.8
		s-0.4-6.3-1.6-7.6S278.3,314.6,276.5,313.5z"/>
	<path id="shadow_8_" class="st3" d="M421.6,406.2c0,0-4.9,5.3-10.3,10c-5.4,4.6-6.5,5.9-10.6,5.4c-4-0.5-5.8-1.4-9.6-5.5
		c-3.8-4.1-50.9-50.9-50.9-50.9s-2.8-2.8-4.8-4.8c-2.1-1.9-4-3-6-5.7c-2-2.7-2.8-3.9-4.8-3.1s-3.7,1.8-7.8,6.6s-7.5,8.7-14.4,14.1
		c-6.9,5.4-13.1,8-13.7,19.2c-0.6,11.2-0.4,27.6-0.3,30.1c0.1,2.5,0.6,3.5,2.9,7.1c2.8,4.4,8.4,10.4,8.7,15.1s-4.4,8.6-11.3,12.6
		c-6.8,4.1-11.4,4.9-23,9.8c-11.6,4.9-21.5,12.7-28.3,13.4s-17.9,1-24.1-1.1c-6.2-2.1-9-7.2-9-7.2s23-14,22.6-24.5
		s-6.8-15.4-6.4-27.9c0.3-12.5,8-22.2,12.5-27.3s4.6-5.4,3.9-10.9s-3.2-9.4-7.7-16.1s-7.3-12.6-8.3-17.5s-56.7,149.4-56.7,149.4
		l56,13l182.7-69l31-28L421.6,406.2z"/>
	<path id="shadow_7_" class="st3" d="M312.1,270.2c0,0-0.2,2.9-1.6,3.9s-1.7,1-1.7,1l-12.7-8.9l5.8-12.1c0,0,12.3,9.5,12.3,9.3
		S312.1,270.2,312.1,270.2z"/>
</g>
<path id="broom" class="st4" d="M64,540.5c0,0,8.5-3.7,22-11.5c20.1-11.6,52.7-31.9,97-59.3c82.8-51,88-54.3,142.3-87.8
	s102-62.5,121.3-74.3s46.5-28.6,49.4-30.4s7.4-0.4,9.3,1.6c1.6,1.8,2.4,6.8-0.1,8.4c-2.4,1.6-71.3,45.6-98.3,62.6
	s-122.5,78.5-154.5,98.8s-81.1,51.8-97,61.8c-15.4,9.7-28.5,14.5-28.5,14.5l-0.8,3.5c0,0-2.6,2.4-10.5,7.3s-17.8,10.7-17.8,10.7
	L64,540.5z"/>
<g id="hand-r_1_">
	<defs>
		<path id="XMLID_10_" d="M155,476.9c-1.1-0.5-1.8-0.7-3.7-0.7c-3.3,0-5.9,4.3-9.3,6.9s-5.2,1.9-10.2,3c-3.1,0.7-7.1,2-9.7,2.9
			c-1.4,2.4-2.5,3.7-3.7,3.9c-1.9,0.3-3.9-0.1-5,2.3c-1.1,2.3-2.1,7.3-0.5,12.9c1.6,5.7,2.5,6.3,3.3,6.8c0.8,0.6,0.4,1.6,0.4,3.1
			s0.2,6.6,3.1,9.5s4.4,2.9,7.8,1.4s7.6-3.9,8.9-5.1s1.3-2.8,1.3-2.8s1.8-0.1,4.2-0.6c3.2-0.8,4.9-2.4,6-2.3s1.5,0.3,1.5,0.3
			s-0.9,4.3,0.3,5.2s2.4,0.9,3.3-0.4c0.9-1.3,5.3-9.6,5.7-10.7c0.7-2.1-0.2-23.6-0.6-28.6S155.7,477.2,155,476.9z"/>
	</defs>
	<use xlink:href="#XMLID_10_"  style="overflow:visible;fill:#D9B59D;"/>
	<clipPath id="XMLID_15_">
		<use xlink:href="#XMLID_10_"  style="overflow:visible;"/>
	</clipPath>
	<path id="shadow_18_" class="st5" d="M147.5,518.7c0,0-4,0.3-5.9-0.4s-2.6-1.9-2.6-1.9s1.9-0.6,4.3-1.5s2.9-1.9,3.2-3.3
		s-1.1-11-1.3-16.1s-0.1-5.6-0.1-5.6s1.5,1.9,2.9,8c1.4,6.1,1.9,14.2,2.6,15.9c0.7,1.7-0.3,1.7,1.8,1.2c2.1-0.5,2.8-0.9,4.1,0.4
		c1.3,1.3,1.1,4.4,1.1,4.4l-5.6,9.3l-6.9-4.4L147.5,518.7z"/>
</g>
<g id="arm-l">
	<defs>
		<path id="XMLID_8_" d="M377.8,374.7c0,0,1.5-2.3,1.4-4.3s-1-3.6-3.2-5.3s-4.8-5.1-7.2-8.6s-8.1-7.9-11.6-8.1s-3.4,2.3-3.7,4.6
			s-0.5,3.6-0.5,3.6s-4.6-0.6-7.9,1c-3.9,1.9-5.5,6.8-6.9,9.3s-3.1,4.8-6.2,7.4s-4.4,4.1-4.2,6.8s1.6,9.5,6.1,12.6
			s10.3,1.1,12.9,0.4s4.6-1.8,6.4-0.6s4.8,2.2,7.8,4.4s6.5,4.8,6.9,6.6s0.1,6.9,4.4,9.5s6.9,3.3,17.3,3.5s16.9-2.1,17.4-13.1
			s-2.7-16.6-9-20.1c-6-3.3-10.9-3.9-15.8-6.7C378.6,375.7,377.8,374.7,377.8,374.7z"/>
	</defs>
	<use xlink:href="#XMLID_8_"  style="overflow:visible;fill:#D9B59D;"/>
	<clipPath id="XMLID_16_">
		<use xlink:href="#XMLID_8_"  style="overflow:visible;"/>
	</clipPath>
	<path id="shadow_14_" class="st6" d="M354.8,347.8c0,0-0.1,4.6,2.5,9.8s6.6,12.4,6.6,12.4s-6.5-6.8-9.8-10.9s-4.2-6.6-4.2-6.6
		L354.8,347.8z"/>
	<path id="shadow_15_" class="st6" d="M377.8,365.1c0,0-0.7,4.1-2.3,7.1c-1.5,3-2,4.3-2.8,4.4c-0.8,0.1-1.4-0.7-2.8-0.5
		c-1.4,0.2-1.7,1-4.9,4c-3.2,3.1-7.8,5.5-11.6,5.8c-4.2,0.4-4.8-1.6-4.8-1.6s-3.5,4.5-8.3,5.5c-6,1.3-11.3-0.3-11.3-0.3l3.9,9.5
		l26.1,20.1l49.2,1.5l-0.3-16.9c0,0-2.1,0.9-4.9-2c-3.9-4-4.8-10.7-11.3-14.9c-6.5-4.2-11.7-6.4-13.7-7c-2-0.7-3-0.6-2-2.1
		s3.8-5.5,3.8-5.5l0.7-5.1L377.8,365.1z"/>
</g>
<path id="neck" class="st7" d="M281.8,250.8c0,0-2.1,4-2.7,12.6c-0.6,8.6-0.8,10-1.9,12.2s-6.4,7.9-6.3,14s4.4,20.3,4.4,20.3
	s8.7-11.6,15.9-20.1c8.1-9.5,18.8-14.8,18.8-14.8s-4.5-3.4-6.4-6s-0.6-7.4-0.6-7.4L281.8,250.8z"/>
<g id="hair-back">
	<defs>
		<path id="XMLID_2_" d="M352,222.6c0,0,1,8-1.5,13s-3.4,5-3,10s3.5,7.6,3.5,10.1s0.4,2.6-1.4,2.6s-10.1,1.6-16.1,5.5
			c-7.3,4.8-8.1,12.3-8.1,12.3s-2.5-6.9,2-12.3s6.3-5,6.3-6.4s-4-2.9-7.4-3.8s4.6-36.6,4.6-36.6L352,222.6z"/>
	</defs>
	<use xlink:href="#XMLID_2_"  style="overflow:visible;fill:#DD9937;"/>
	<clipPath id="XMLID_17_">
		<use xlink:href="#XMLID_2_"  style="overflow:visible;"/>
	</clipPath>
	<path id="shadow" class="st8" d="M350.8,220.2c0,0-5.8,11.7-6.8,16.4s-1.1,7.6-0.8,8.8s1.4,1.7-1.1,2.5s-5,1.6-8,4.4
		s-4.5,5.6-4.5,5.6l-9.1-5.3l6.4-38.4l18.8,1.6L350.8,220.2z"/>
</g>
<g id="face">
	<defs>
		<path id="XMLID_5_" d="M255.1,239.4c0,0,2.7,1.3,5.3,0.8c2.7-0.5,3.3-2.2,3.3-2.2s0.2,2,2.1,3.8s5.1,3.5,10.4,7
			s11.5,9.6,19.2,14.2c7.7,4.6,9.3,4.6,12,4.4c2.7-0.2,3.7-1.2,6.3-3.1c2.6-1.9,9.8-7.7,14.3-10.7c4.4-3.1,8.2-5,10.4-8.6
			c2.3-3.6,2.1-10.6,3-14.8c0.9-4.2,1.5-7.4,1.5-7.4l-62.5-16.8l-23.8,21.5L255.1,239.4z"/>
	</defs>
	<use xlink:href="#XMLID_5_"  style="overflow:visible;fill:#D9B59D;"/>
	<clipPath id="XMLID_18_">
		<use xlink:href="#XMLID_5_"  style="overflow:visible;"/>
	</clipPath>
	<path id="shadow_5_" class="st9" d="M291.8,223.4l-10.8,3.8l6.8-7.4l-3.8,0.2c0,0-2.3,1.7-5.4,3.4c-3.1,1.8-4.9,3.7-6.1,7.5
		c-1.2,3.8-2.8,7.8-6.6,10.4s-4.6,3.3-4.6,3.3l-12.3-3.3l-2.4-16.2l25.8-13.8l21.8,7.1L291.8,223.4z"/>
	<path id="shadow_6_" class="st9" d="M331.4,225.4c0,0-3.3,1.6-3.1,4.5s1.8,4.7,3.2,6s1.4,2.8-0.7,3.9s-5.4,1.6-5.5,3.1
		c0,0.6,0.9,0.8,1.9,1.1c1,0.3,1.4,2.9-1.4,5.1s-8.6,6.1-13.1,11s-6.9,8.8-6.9,8.8l13.8-0.3l25.2-24.1l3.1-23.2L331.4,225.4z"/>
	<path id="cheek" class="st10" d="M282,232.8c-1.2,3,2.8,8.2,13.6,8.5c10.5,0.3,13.2-4.3,13.8-6.8c0.6-2.5-6.7-4.8-14.7-5.3
		S283.1,230.1,282,232.8z"/>
</g>
<g id="hair">
	<defs>
		<path id="XMLID_3_" d="M226.2,169.3c0,0-14.5-1.8-19,4.3c-4.5,6.2-5.7,10.6-6.8,11.6c-1.2,1-10,3.3-13.1,5.6s-2.8,4.7-0.4,6.8
			c2.3,2.2,3.9,3.6,3.8,5.5c-0.2,1.9-2.3,4.5-6.7,7.5c-4.4,3-9.3,6-11.4,6.3s-11.2-0.5-23.6-0.4c-12.4,0.1-17.1,7.3-20.6,12.9
			c-3.5,5.6-2.9,11.8-2.9,11.8s2.3-8.1,7.3-8.7c5-0.6,11.8-0.4,19.3,1.3c13.2,2.9,18.1,14.8,25.8,14.6s14.7-2.7,22.8-8.2
			c8.2-5.5,9.2-7.8,10.7-8.3c1.5-0.4,3.3,0.4,6.3,1.7s9.5,2.5,9.5,2.5l43.1-43L226.2,169.3z"/>
	</defs>
	<use xlink:href="#XMLID_3_"  style="overflow:visible;fill:#F7AE45;"/>
	<clipPath id="XMLID_19_">
		<use xlink:href="#XMLID_3_"  style="overflow:visible;"/>
	</clipPath>
	<path id="shadow_2_" class="st11" d="M235.2,199c0,0-8.3-3.3-10.9-3.9s-6.3-1.6-9.9-1.4s-10.6,6.3-10.4,10s6.4,7.4,6.4,11.8
		s-4.4,11.8-12.1,17.2s-15.1,9.1-21.4,9.1s-13.6-14.7-30.8-14.4s-16.5,9.6-16.5,9.6l14.4,17.4l56.3,2.1l44-17.9l17.8-32L235.2,199z"
		/>
</g>
<g id="hair-front">
	<defs>
		<path id="XMLID_4_" d="M239.8,211.4c0,0-6.9,3.6-15,13.5s-10.4,14.5-10.5,19.9s3.5,7.6,8.5,13.1s10,8.8,9.9,12s-1.8,2.3-1.8,7.1
			s2.2,9.8,2.2,9.8s1.4-7.7,5.9-12.9s7.9-6.8,8.4-9.2s-4.4-3.1-4.4-6.9s7.5-11.1,11.6-15.1s8.1-5.8,13.1-11.3s6.9-9.2,6.9-9.2
			s4.4-1,9.8-1.1s6.5,0.3,6.5,0.3l-3.8,4.3c0,0,5.9,0.1,12.9-0.9s13.6-2.9,13.6-2.9l-16-19.6L239.8,211.4z"/>
	</defs>
	<use xlink:href="#XMLID_4_"  style="overflow:visible;fill:#F7AE45;"/>
	<clipPath id="XMLID_20_">
		<use xlink:href="#XMLID_4_"  style="overflow:visible;"/>
	</clipPath>
	<path id="shadow_3_" class="st12" d="M277.3,203.1c0,0-1.1,4.3-5.1,9s-8.3,10.1-8.3,10.1s5.6-3.6,9.9-5.1s4.8-2.1,9.1-1.4
		s4.9,0.3,7.6,0.9s3.3,0.6,6,2.6s5.2,3.3,7.9,4.3s5.3,1.6,5.3,1.6l5-2.8l-14.3-24L277.3,203.1z"/>
	<path id="shadow_4_" class="st12" d="M273,226.3c0,0-6.1,5.3-12.7,8.8s-8.6,2.9-14.8,10.9s-8.1,10.2-7.3,13.8
		c0.9,4.5,3.3,4.1,3.6,6.1c0.4,3.4-2.5,4.2-2.3,7.5s0.2,5.1,0.2,5.1l22.9-29L273,226.3z"/>
</g>
<g id="hat">
	<defs>
		<path id="XMLID_1_" d="M292.3,132.3c6.2-0.3,7.2,2.9,15.8,5.6c8.7,2.7,20.3,6.7,34.5,12.5c14.3,5.8,21.5,10.2,25.9,18.9
			c4.4,8.8,2.6,20.8,1.6,24.1c-1,3.3-2.2,4.5-2.2,4.5s4.3,1.8,9.3,6.8s8.7,8.3,10.1,10c1.4,1.7,1.2,3.3,1.2,3.3s-5.2,0.5-9.7,2.3
			s-15.5,8.6-27.7,8.2s-28.3-2.5-42.5-6.4c-14.3-3.9-22.3-11.7-22.3-11.7s-40.9,2-49.3,2.1c-5.6-11.1-9.6-22.4-12.8-33.1
			c-3.3-10.7-1.8-16.6,2.8-20.2s6.7-4.2,15.3-8.1c8.6-3.9,13.3-5.6,19.8-9.4c6.4-3.8,6.4-5.5,14.7-7.2
			C283.4,133,287.3,132.5,292.3,132.3z"/>
	</defs>
	<use xlink:href="#XMLID_1_"  style="overflow:visible;fill:#B9594F;"/>
	<clipPath id="XMLID_21_">
		<use xlink:href="#XMLID_1_"  style="overflow:visible;"/>
	</clipPath>
	<path id="shadow_1_" class="st13" d="M219.9,168.5c0,0,6.4,2.8,17.5,6.3s16.5,6,21.5,6c6.6,0,13.8-8.6,20.8-8.4s5.4,5.6,26.4,5.3
		s35.8-4.6,37.3-4.9s2.6,2.4,11.1,7.1s13.1,7.1,20.4,8s-3.3,10.1-3.3,10.1s-5.1,1.4-8.6,0.3s-4.8-3.3-6.3-2.9s-5.6,3.3-10.4,4.3
		s-16.4,4.2-23.9,5.3s-23,3.1-27.2,4.3s-5.3,2.1-5.3,2.1s1.9,3.1,8.4,5s8.8,1.2,16.3,4.1s11.6,2.9,20.9,4s17.1,1.4,21.6,1.3
		s4.3-1.3,9.2-3.2s9.5-3.8,14.6-5.4s8.3-2.4,8.3-2.4l0.3,15.5l-78.4-0.8l-79.1-15L219.4,174L219.9,168.5z"/>
</g>
</svg>
