<?xml version="1.0" encoding="utf-8"?>
<!-- Generator: Adobe Illustrator 23.0.0, SVG Export Plug-In . SVG Version: 6.00 Build 0)  -->
<svg version="1.1" id="Layer_2" xmlns="http://www.w3.org/2000/svg" xmlns:xlink="http://www.w3.org/1999/xlink" x="0px" y="0px"
	 viewBox="0 0 720 540" style="enable-background:new 0 0 720 540;" xml:space="preserve">
<style type="text/css">
	.st0{fill:#D0C7DB;}
	.st1{clip-path:url(#XMLID_12_);fill:#AD936B;}
	.st2{clip-path:url(#XMLID_13_);fill:#E3B5DB;}
	.st3{clip-path:url(#XMLID_14_);fill:#9B59C8;}
	.st4{clip-path:url(#XMLID_15_);fill:#8E9296;}
	.st5{clip-path:url(#XMLID_16_);fill:#AD936B;}
	.st6{clip-path:url(#XMLID_17_);fill:#E3B5DB;}
	.st7{clip-path:url(#XMLID_18_);fill:#AD936B;}
	.st8{clip-path:url(#XMLID_18_);fill:#DC8181;}
	.st9{clip-path:url(#XMLID_19_);fill:#9B59C8;}
	.st10{clip-path:url(#XMLID_20_);fill:#8E9296;}
	.st11{clip-path:url(#XMLID_21_);fill:#AD936B;}
</style>
<polygon id="legs" class="st0" points="222.5,528.3 212.3,547.3 361.7,543.2 375.7,529.5 340.7,496.8 "/>
<g id="arm-l">
	<defs>
		<path id="XMLID_4_" d="M173.6,318.9c0,0-8.6,6.1-21.1,18.1s-33.4,32.9-39.2,40.2c-8.3,10.4,29.7-0.9,29.7-0.9s2.5-3.8,14.1-10.6
			s26.5-15,32.8-20.5S173.6,318.9,173.6,318.9z"/>
	</defs>
	<use xlink:href="#XMLID_4_"  style="overflow:visible;fill:#C6B397;"/>
	<clipPath id="XMLID_12_">
		<use xlink:href="#XMLID_4_"  style="overflow:visible;"/>
	</clipPath>
	<path id="shadow_4_" class="st1" d="M109,403c0,0,14.9,0,18,0.1c3.1,0.1,3.8,0,4,0s0.3-2.7,0.3-2.7s4.6,3,7.6,5.3
		c3,2.3,3.6,2.5,3.6,2.5l6.4,1.3l-0.3,8.1l-42.7-1.1L109,403z"/>
</g>
<g id="shirt">
	<defs>
		<path id="XMLID_3_" d="M222.3,269.2c0,0-4.7-0.9-9.5,5.3c-4.8,6.3-17.8,21.8-22.4,27.1c-4.6,5.3-7.2,8.6-9.6,8.6
			c-2.4,0-6.5,0.2-6.5,0.2s-2.6,1.6-2.5,12.2c0.1,10.6,2.8,15.5,7.7,20.1c4.8,4.6,6.6,3.6,10.5,5.5c5,2.4,13.7,2,13.7,2l0.3-8.7
			c0,0-1.9-1.3-1.5-2.3s5.8-4.5,5.8-4.5s-1.8,0.2-1.4-4.1c0.4-4.3,8.9-9.8,12.4-12.3c3.5-2.4,19.8-11.6,19.8-11.6L344,385.5
			l25.8-29.6l1.9-18.7l-38.3-62.9l-36.7-2.5c0,0-64.5-13.7-64.7-13.2S222.3,269.2,222.3,269.2z"/>
	</defs>
	<use xlink:href="#XMLID_3_"  style="overflow:visible;fill:#F1DAEB;"/>
	<clipPath id="XMLID_13_">
		<use xlink:href="#XMLID_3_"  style="overflow:visible;"/>
	</clipPath>
	<path id="shadow_3_" class="st2" d="M218.1,296.6l-10.1-0.6c0,0-0.9-1.4,0.1-3.3c-3.9,0.6-8.8,3.9-15.7,10.7s-9.8,10.2-9.6,17.6
		c-0.9-0.6-1.3-2.6-1.3-2.6s-4.3-0.8-4.3,1.7s2.4,4.8,3.9,7.6s1.8,4.3,1.8,4.3s-2.6,1.2-5.9-0.8s-7.1-5.4-7.1-5.4l2.4,16.1l2.6,16.9
		l40.3-2.5l155.5,19l4-31L320,301l-15.4,0.4L262,266.8l-35.3,0.8L218.1,296.6z"/>
</g>
<g id="overalls">
	<defs>
		<path id="XMLID_9_" d="M219.5,271c0,0-2,12.6-2.6,17s-1.3,8-0.1,8.9s8.5,8.1,16,16.5s12.6,15.5,17.6,27.5s4.9,14.4,4.9,23.3
			s-45,131.3-45,131.3s-3.3,7-5.9,11.8s-3.8,7.6-6,9.5c5.6,3,17.3,10.1,24.3,15.1s13.3,11.1,13.3,11.1l74-1.4
			c0,0,12.5-9.9,21.3-18.7s11.3-11.5,13-14.8c3.6,2.3,5.8,3.9,8.1,6.8c2.3,2.9,2.8,6.3,4.1,7.4c1.3,1.2,3.8,0.5,10.3,6
			s17.6,14.3,17.6,14.3l18.4-0.8c0,0,16.2-6.8,27.9-11s15.4-4.8,16.5-5.9c1.1-1.1,6.3-11.6,16.3-22.5c10.1-10.9,14.6-13.6,20.9-14.5
			c-5-10.1-22.4-29-22.4-29l-25.3-26.9c0,0-10.8-8.4-16.1-12.2s-8-5.8-11.1-8.5c-3.1-2.8-6.7-10.2-11.7-16.3
			c-5-6.1-12.3-15.4-12.3-15.4l-4.4-5.6c0,0-0.9-1.8-1.8-2.4s-2.1-0.5-2.3-1s-3.3-18.1-3.3-18.1l-5.4-4.3c0,0-4.6,4.5-8.4,7.9
			s-9.2,8.8-11.4,8.9s-8.3-2.8-15.1-9.3s-12.9-11.9-16.3-19.6s-3-13.1-4.3-20.3s-2.2-9.3-1.8-14.2s8.8-14.5,8.8-14.5l17.9-9.8
			c0,0-0.2-4-0.4-4.5c-0.2-0.5-5.5-0.2-6-0.2c-1.7-0.1-1.7-3.3-1.7-3.3s-1.9,1-6.2,0.6c-4.3-0.3-4.3-0.3-4.3-0.3l-34.3,8.9
			c0,0-1.4,3-8.7,12.1c-7.3,9.1-11.3,13.6-14.5,13.9c-3.2,0.3-8.5-1-16.9-6.2s-12.3-7.6-12.5-14s3.6-7.7,3.6-7.7l6.8-6.9l-14.1-1.5
			L219.5,271z"/>
	</defs>
	<use xlink:href="#XMLID_9_"  style="overflow:visible;fill:#B380D5;"/>
	<clipPath id="XMLID_14_">
		<use xlink:href="#XMLID_9_"  style="overflow:visible;"/>
	</clipPath>
	<path id="shadow_12_" class="st3" d="M216.6,276.8c0,0,5.6,6.1,8.2,9.2s5.4,7.2,6.1,7.6s1.4,0.4,2.9,1.6s6.3,6.6,13.4,10.8
		s13.1,7.5,15.4,8.2s2.3-0.3,2.3-0.3s1.1-3.8,5.1-7.8s10.3-11.4,14.4-16.6s5.9-10.1,5.9-10.1l-2.9-16l-73.3-1.3L216.6,276.8z"/>
	<path id="shadow_11_" class="st3" d="M232.3,314.9c0,0,6.6,2.1,15.9,10.3s11.1,11.9,19.4,16.8s14.2,4.6,14.2,4.6s-1.7,4.1-7.7,4.4
		s-7.2,0.1-7.2,0.1s0.6,4,6.6,7.6s14,6.9,14,6.9s-4.6,0.4-9.6-1s-8.5-3-13-2.4s-7.9,2.9-7.9,2.9l-8.9-6.6L232.3,314.9z"/>
	<path id="shadow_10_" class="st3" d="M376.1,357.3c0,0-10.2,10-12.6,12.5s-3.8,4.8-5.7,7.8c-1.8,2.9-5.7,8.9-14.6,16.1
		c-8.9,7.2-14.1,10.1-17.7,10.4c-3.6,0.3-17-5.6-17-5.6s10.4,6.7,20.3,8.3c9.8,1.6,23.7,1.8,25.3,1.8c1.6,0,1.4-1.1,3.3-3.8
		c1.8-2.8,7.1-9.2,13.7-14.6c6.6-5.4,10.4-9.1,10.4-9.1l8.6-10.6L376.1,357.3z"/>
	<path id="shadow_9_" class="st3" d="M281.5,440.6c0,0,17.8-0.3,20.5-0.4s4.9,1.9,8.3,5.8s7.4,12.9,7.4,12.9s-33.8-0.1-34.1,0.5
		s-0.4,5.8,1.3,10.9s5.3,10.3,5.3,10.3s-6.3,1.5-12.9,6s-7.9,8.3-6.9,9.1s6.3,1.6,17.4,1.5s25.8-3.9,25.8-3.9s0.1,3.2,0.4,3.6
		s2.1,1.4,8.9,0.3s14.9-4.8,27.1-4.6s18,6.1,20.6,14.1s6.4,15.9,8.3,16.1s15.1-6.3,22.3-9.9s12.6-6.8,16.6-9.7
		c0.8,10.7,1.3,30.8,1.6,30.8s6.4-8.4,20.1-17.2s26.6-14.4,26.6-14.4L451,542.7l-168,11l-1.1-12.8c0,0-0.3-5.9-8.7-10.8
		s-11.1-5.1-16.3-8.6s-5.8-5.2-5.8-5.2s1.9-4,11.3-5s10.1-1,10.3-1.5s-1.3-1.4-1.6-2.4s-0.4-2-0.4-2s-5.1-0.6-6.8-0.4
		s-10.4,6.8-21.6,6.1s-14.7-4-17.3-6.2s-4.9-4.3-5.8-4.3s-2.1,3.6-5.8,9.6s-7.2,9.3-7.2,9.3s0.3-5.9-0.7-7.7s-4.6-2.9-4.6-2.9
		l30.7-69.6L281.5,440.6z"/>
</g>
<g id="duster-r">
	<path id="handle_1_" d="M335.5,489.1c0,0,0.7-14.9,5.2-20.2c3.8-4.3,14.3-2.8,36.3-6.8c22-3.9,31.3-9.2,44.9-15.8
		c13.6-6.6,19.8-10.8,19.8-10.8l0.1,11.7c0,0-15.2,7.7-34.2,16.1c-19,8.4-42.3,19.6-53.5,22.7C342.9,489.1,335.5,489.1,335.5,489.1z
		"/>
	<g id="feather">
		<defs>
			<path id="XMLID_6_" d="M434,335.9c0,0,6.4,5.6,12.9,6.6s8.6,0.9,9.7,0.5s2.3-1.4,2.8-1s2.4,0.8,2.4,0.8s-4.2-3.8-6.8-6.3
				s-8.8-9.6-8.8-9.6s22.1,6.7,38.4,13.2c16.3,6.5,26.7,13.7,26.7,13.7s1.1-1.8-1.1-4.8c-2.2-3-6-7.7-6-7.7s10.9,6.3,23.3,19.6
				c12.4,13.3,18.2,22.8,18.5,25.3c0.3,2.5-0.3,7.8-0.3,12.1c0.1,4.3,0.8,6.3,0.1,12.2c-0.7,5.9-3.4,15-8.5,27s-9.9,18.7-11.9,18.7
				c-2,0-5.2-2.9-7.3-4.3c-2.1-1.4-4.8-3-4.8-3s0.3,3.1-2.2,6.1c-2.5,3-16.8,13.7-30.2,13.5s-24.8-4.3-28.3-6.5
				c-3.5-2.2-5.9-4.5-5.9-4.5s2.7-0.3,5.1-2.9c2.4-2.6-5.4-39.8-5.4-39.8L420.2,381l-4.2-24.2l10.3-3.5c0,0,7.1-4.5,8.3-8.8
				S434,335.9,434,335.9z"/>
		</defs>
		<use xlink:href="#XMLID_6_"  style="overflow:visible;fill:#D0C7DB;"/>
		<clipPath id="XMLID_15_">
			<use xlink:href="#XMLID_6_"  style="overflow:visible;"/>
		</clipPath>
		<path id="shadow_6_" class="st4" d="M441.1,339.4c0,0,5.6,3.8,10.4,7.7c4.8,3.8,8.2,6.8,8.2,6.8s-9.3-2.3-12.8-3.3
			s-5.2-1.4-5.2-1.4s0.3,1.8,1,3.6c0.8,1.8,1.8,4.1,1.8,4.1s-4.2-1.5-6.5,2.8s-0.1,15.8,2.1,23.4c2.2,7.6,2.9,10.7,2.9,10.7
			l28.3,39.3c0,0,2.9,1.5,12.7,0.5s15.3-4.8,19.6-11.2c2.3,7.3,9.9,12.5,20.8,12.3c10.9-0.2,19.2-8.6,21.8-25.9
			c2.6-17.3,3.7-13.9,3.7-13.9l10,10.3l-3.4,80.8c0,0-160-11.7-158.7-12c1.3-0.3,13.3-130.7,13.3-130.7l20-23.3L441.1,339.4z"/>
	</g>
</g>
<g id="arm">
	<defs>
		<path id="XMLID_8_" d="M423.2,359.7c0,0,6.4,7.1,15.5,20c9.1,12.9,7.7,16.6,14.8,24.5c7.2,7.9,15.4,20.9,18.6,26.5
			c3.2,5.6,4.4,9.2,3.2,9.9s-3.3,0-5.2,2.3c-1.8,2.3-6.2,6.9-10.1,9.6c-3.9,2.7-4.5,4-9.7,3.6c-5.2-0.4-8.5-0.6-10.4-1
			c-1.9-0.4-2.1-1.6-0.8-3.5c1.3-1.9,1.9-4.9,1.6-7.8c-0.3-2.9-4.5-5.3-4.6-8.9c-0.1-3.7,1.5-12.4,1.5-13.7s0.2-1.3-1.8-2.8
			s-24-19.8-30-24.3s-18.4-16-18.4-16L423.2,359.7z"/>
	</defs>
	<use xlink:href="#XMLID_8_"  style="overflow:visible;fill:#C6B397;"/>
	<clipPath id="XMLID_16_">
		<use xlink:href="#XMLID_8_"  style="overflow:visible;"/>
	</clipPath>
	<path id="shadow_8_" class="st5" d="M394.6,377.8c0,0,4.3,6.8,15.8,16.4c12.9,10.8,32.3,20,32.3,20s-0.3,12.1-1.2,13.5
		s-7.3,6.7-7.3,6.7l-48.8-50.3L394.6,377.8z"/>
</g>
<g id="sleeve">
	<defs>
		<path id="XMLID_7_" d="M353.6,276.3c1.8,1,18.6,22.3,27.3,32.5s21.9,27.2,24.3,30.3s2.8,4.6,8.1,5.8s12.5,1.2,12.5,1.2
			s2.1,5,2.6,7.4s0.9,4.6-0.6,5.8s-10.2,9.4-17.6,14.1s-8.8,6.5-11.5,6.7s-5.3,0.9-7.6,3.1c-3.3,3.2-6.4,9.4-6.4,9.4
			s-5.9-3.4-6.3-10.1s2.6-11.6,2.9-12.6s0.4-2.5-0.3-3.4S370.2,350,356.5,338s-31.9-25-35.4-32.4s-5.4-11.6-4.6-16.3
			s4.6-12.1,19.9-13.5C346.8,274.9,352.8,275.8,353.6,276.3z"/>
	</defs>
	<use xlink:href="#XMLID_7_"  style="overflow:visible;fill:#F1DAEB;"/>
	<clipPath id="XMLID_17_">
		<use xlink:href="#XMLID_7_"  style="overflow:visible;"/>
	</clipPath>
	<path id="shadow_7_" class="st6" d="M317.5,301.1c0,0,11.2-0.4,16.3,0.2c5.2,0.6,8.3,1.3,8.2,2.7c-0.1,1.3-8.3,3.1-8.8,3.7
		c-0.5,0.6,6.4,6,10,9.5c3.6,3.5,10.2,9.3,13.2,10.1s6.5,1.3,6.5,1.3s-0.4,3.3,0.5,4.4c0.9,1.2,9,7.8,14.8,12.7
		c5.8,4.8,9.9,9.7,12.2,10.4s4.5,0.6,4.5,0.6s-3.7,2.2-4.8,6.4s-0.6,8.3-0.1,8.9c0.5,0.6,3-2.3,4.3-3.5c1.3-1.2,2.8-2.8,5.3-0.6
		c2.4,2.3,2.9,3.8,5.6,5.1s7.2,1.2,7.2,1.2l-8.7,20.4l-28.1-0.4l-67.9-91L317.5,301.1z"/>
</g>
<g id="face">
	<defs>
		<path id="XMLID_2_" d="M336.4,223.6c0,0-0.5,5.8-2.9,11.9s-13.1,28.5-16.4,29.6c-0.7,0.3-2.2,0.3-4.1,0.1l0.3,4.4l-19.9,2
			l-16-39.2l35-34.3l17.2,7L336.4,223.6z"/>
	</defs>
	<use xlink:href="#XMLID_2_"  style="overflow:visible;fill:#C6B397;"/>
	<clipPath id="XMLID_18_">
		<use xlink:href="#XMLID_2_"  style="overflow:visible;"/>
	</clipPath>
	<path id="shadow_2_" class="st7" d="M332.1,223.6c0,0-2.6,3.6-8.7,3.8c-6.1,0.3-9.3,0.3-9.3,0.3s0.6-3.3,0.6-4.6
		c-3.5,1.3-9.3,6.4-9.3,6.4l1.2-13.3l-7,10.3c0,0-5.1,5.7-5.7,12.6c-0.6,6.9,0.6,20.7,0.6,20.7l4.9,3.5c0,0,2.2,0.9,7.9,1.5
		c5.7,0.6,10.7,1.2,10.7,1.2l-3.3,6.1l-27.7,1.3l-13.7-43.5l38.2-35.4l22.9,7.3l5.2,18.8L332.1,223.6z"/>
	<path id="cheeck" class="st8" d="M317.1,232.9c-2.5,0.2-4.8,1.5-7.4,3.7s-4.5,3.5-4.5,5.8c0,2.2,0.4,3.8,4.1,3.9
		c3.7,0.1,6.7-1.2,8.9-3s3.9-4.2,4-6.9C322.3,233.5,319.7,232.7,317.1,232.9z"/>
</g>
<path id="hair" d="M212.7,236.1l0.3,7c0,0-2.1,0.8-5.3,0.8c-3.3-0.1-7.8-2.3-10.1-9.9c-0.8,6-1.2,7.3-1.2,11.6s3.7,13.8,13,21.2
	c7.5,6,10.9,5.5,16.3,5.4c5.3-0.1,10.8-0.1,10.8-0.1s-2.9,2.8-6.3,4.8c-3.4,2-5.2,1.6-5.2,1.6s1.1,3,6.1,4.2s12.8,0.6,18.8,0.6
	c11.8,0,11-3.2,15-3.2s3.9,2.6,9.7,2.4c5.8-0.2,10.1-3.3,10.1-3.3s3.1,5,11.4,4.8c8.3-0.2,15-6.5,15-6.5s-4,0.4-4.3-1.3
	c5.3,0.2,19.3-7.8,22.8-14.3c-7.7,5.5-14.1,8.5-21.6,6.2c-7.5-2.3-7.6-4.4-7.6-4.4l1.2-1c0,0-9.9-5.1-12.2-15.5
	c-2.3-10.4-1.3-16.6-1.3-16.6s2.8,1.5,2.6,6.1c1.8-5.2,5.3-5.7,10.4-9.4c5.1-3.8,8.6-10.5,11.2-15.8c0.5,5.3,0.4,7.3,0.4,7.3
	s4.9-4.6,6.4-6.4c1.5-1.8,2.8-3.1,2.8-3.1s0.8,4.4,0.3,8.1c-0.6,3.7-1.9,7.2-1.9,7.2s2.9-1.3,5.7-2.8s3.9-2.8,3.9-2.8
	s-0.3,4.7,1.7,6.5c2,1.8,4.3,4.2,4.3,4.2l2.9-1.6c0,0,1.5,3.9-0.6,7.8c7.8-3.1,19.5-7.4,25.3-19.5s0.4-25.1,0.4-25.1
	s5.6,4.3,9.1,7.8c3.5,3.4,8,9.3,8,9.3s2.1-10.5,2.4-23.8c0.3-10-2.8-14.3-3.3-17.8s1-3,1-3s-4-7-11.6-12.4
	c-7.6-5.4-11.6-10.8-11.6-10.8h11.3c0,0-13.5-15.2-17.3-18.4s-8.5-4.9-17.1-4.9s-19.1-0.3-29.4,4.1c-10.3,4.4-12.7,7.9-12.7,7.9
	L212.7,236.1z"/>
<g id="hat">
	<defs>
		<path id="XMLID_1_" d="M210.9,146.4l0.3,10.1c0,0,3.2-2.5,7.8-2.5c4.1,0,6.3,7.9,6.3,7.9s-3.6,4.3-9.8,11.4s-10,10.9-16.4,16
			s-6.5,4.5-6.6,8.3s-1.4,12.6,3.4,20.4c1.8,2.9,4.2,9,9.3,12.3c1.3,0.9,3.3,2.1,3.8,3c0.5,1-0.6,1.8,0.5,2.8
			c6.1,5.3,14.5,9.5,26.5,9.5c26.1,0,41.5-13.5,51.4-28.8s15.4-37.4,19.6-47.3s4.8-16.9,5-25.9s-9.1-19.8-27.8-19.8
			s-27,4.9-36.9,12.9s-16.4,16.9-16.4,16.9S222.2,145.3,210.9,146.4z"/>
	</defs>
	<use xlink:href="#XMLID_1_"  style="overflow:visible;fill:#B380D5;"/>
	<clipPath id="XMLID_19_">
		<use xlink:href="#XMLID_1_"  style="overflow:visible;"/>
	</clipPath>
	<path id="shadow" class="st9" d="M210,155.2c0,0,2.3-3.5,7.5-3.2s7.1,4.6,8.4,6.4c1.3,1.8,2.5,2.7,2.5,2.7s4-2.1,4.3-3.2
		c0.3-1.1-1.7-2.7-1.4-3.5c0.3-0.8,2.1-2.3,3.2-0.8c1.1,1.5,2,3.3,1.7,4.6c-0.3,1.3-3,3.7-4.9,5.7c-1.9,2-2.8,4.7-5.8,3.6
		s-16.4-10.9-16.4-10.9L210,155.2z"/>
	<path id="shadow_1_" class="st9" d="M207.6,232.6c0,0-2-6.8-2.1-13.1c4.2,6.6,14.6,13.3,34.8,13.3s41.8-21.2,51.6-36.7
		c9.9-15.7,11.6-33.3,11.6-33.3s2.8,7.8,1.3,20.3s-22.5,70.5-22.5,70.5l-69-5l-6.7-11.8L207.6,232.6z"/>
</g>
<g id="duster-l">
	<path id="handle" d="M24,362.9c0,0-1.1,3.1-1,7c0.1,3.9,2.4,8.1,3.6,12.1c1.2,4,2.6,8.1,2.6,8.1s15.5-0.6,37.6,3.2
		s23.7,6.3,30.7,6.8s13.4-0.3,13.4-0.3l29.8,9.1c0,0,5.6,1.2,11.7,2.8c6.1,1.6,8.5,2.3,8.5,2.3l4.4-14c0,0-1.8-3.1-12-4.3
		s-30.3-3.5-30.3-3.5l-14.8-2.8c0,0-9.5-1.1-17.4-4.3s-25.1-11.7-41-17.6C33.8,361.5,24,362.9,24,362.9z"/>
	<g id="shadow_5_">
		<defs>
			<path id="XMLID_5_" d="M237,348c0,0,7.8,1.3,15.4,8.2c7.7,6.9,14.6,13.5,20.8,21.4c6.3,7.9,20.1,27,20.5,34.3
				c0.4,7.3-3.8,17.5-8.6,27.8s-6.5,14-8.8,16.9c-2.3,2.9-4.8,4.8-5.6,6.3c-0.8,1.6,0,3-3.2,5.9c-3.2,2.9-12.3,9.2-20.6,14.1
				c-8.3,4.9-21.1,11.5-30.2,12.7c-9.1,1.2-20.8,0.9-20.8,0.9l8.3-5.3c0,0-12.8,0.1-25.2,0.9c-12.4,0.8-20.2,2.7-27.8,1.8
				c-7.7-0.8-11.2-2.4-11.2-2.4s17-12.8,16.6-19.8c-0.3-6.2-21.5-10.4-21.5-10.4s14.8-2.3,14.7-7.4s-10.8-10.1-10.8-10.1
				s15.6-4,16-15.1c0.3-7.3-9.2-10.5-9.2-10.5s13.1-6.8,13.9-13.8s-3-8.3-3-8.3l13,1.7l-0.5-14.8l27.5,0.8c0,0-6.9-11.3-12.1-15.6
				c-3.7-3-10.4-3-10.4-3s36-2.1,45.3-2.9c9.3-0.8,19.3-2.2,19.3-2.2s-0.3-4.5-1.5-7.4S237,348,237,348z"/>
		</defs>
		<use xlink:href="#XMLID_5_"  style="overflow:visible;fill:#D0C7DB;"/>
		<clipPath id="XMLID_20_">
			<use xlink:href="#XMLID_5_"  style="overflow:visible;"/>
		</clipPath>
		<path id="shadow_x5C_" class="st10" d="M145.7,437.2c0,0,6,2,14,0.8s15.2-7.7,15.2-7.7s-4.1,10.2-5.4,13.2
			c7.7-0.5,16.3-4.2,29.4-12c14.9-8.9,28.7-22.8,28.7-22.8l-2.8,16l4.3,0.3c0,0-1.2,5.4-1.3,8c-0.2,2.6,0.5,6.2,12.6,6.8
			c12.1,0.6,23.9-7.1,29.8-14.1c0.1,3,1.2,3.9,5,3s11.2-6.9,13.2-15s0.8-19.1,0.8-19.1l19.5-3.2l-3,111L122,506l8.5-71L145.7,437.2z
			"/>
	</g>
</g>
<g id="hand-l">
	<defs>
		<path id="XMLID_10_" d="M113.3,377.2c-8.3,10.4-7.1,23.8-6.6,24.5s2.5,0.3,3.3,0.8s7.1,6.2,7.9,7.1s2.4,0.8,4.2,0.3s2.9-0.9,5-0.9
			s3.7,0.3,7.4,1.6s11.6,3.7,11.6,3.7s0.8-3-0.1-3.7s-3.7-1.9-3.7-2.7s1.5-10.4,2.3-13.4s1.9-9.1,1.8-11.5s-3.2-6.4-3.2-6.4
			S119.1,369.9,113.3,377.2z"/>
	</defs>
	<use xlink:href="#XMLID_10_"  style="overflow:visible;fill:#C6B397;"/>
	<clipPath id="XMLID_21_">
		<use xlink:href="#XMLID_10_"  style="overflow:visible;"/>
	</clipPath>
	<path id="shadow_13_" class="st11" d="M109,403c0,0,14.9,0,18,0.1c3.1,0.1,3.8,0,4,0s0.3-2.7,0.3-2.7s4.6,3,7.6,5.3
		c3,2.3,3.6,2.5,3.6,2.5l6.4,1.3l-0.3,8.1l-42.7-1.1L109,403z"/>
</g>
</svg>
