<?xml version="1.0" encoding="utf-8"?>
<!-- Generator: Adobe Illustrator 23.0.0, SVG Export Plug-In . SVG Version: 6.00 Build 0)  -->
<svg version="1.1" id="dm" xmlns="http://www.w3.org/2000/svg" xmlns:xlink="http://www.w3.org/1999/xlink" x="0px" y="0px"
	 viewBox="0 0 720 540" style="enable-background:new 0 0 720 540;" xml:space="preserve">
<style type="text/css">
	.st0{fill:#A77C61;}
	.st1{fill:#B39A77;}
	.st2{clip-path:url(#XMLID_11_);fill:#B39A77;}
	.st3{fill:#BF6F6F;}
	.st4{clip-path:url(#XMLID_12_);}
	.st5{clip-path:url(#shadow_14_);fill:#4064B7;}
	.st6{clip-path:url(#XMLID_13_);fill:#4064B7;}
	.st7{clip-path:url(#XMLID_14_);fill:#B39A77;}
	.st8{clip-path:url(#XMLID_15_);fill:#B4C9DC;}
	.st9{clip-path:url(#XMLID_16_);fill:#B4C9DC;}
	.st10{clip-path:url(#XMLID_17_);fill:#4064B7;}
	.st11{clip-path:url(#XMLID_18_);fill:#B4C9DC;}
	.st12{clip-path:url(#XMLID_19_);fill:#B39A77;}
</style>
<path id="broom-handle" class="st0" d="M171.6,198.1c1.4,0,3.2,1.4,4.4,2.4c9.2,8.2,27.2,25.2,68.8,61.2
	c24.6,21.2,54.5,45.3,88.5,70.7c50.5,37.7,103.2,78.1,153.1,115.1c82.2,61,151.3,110.9,151.3,110.9l-76.2-16.7
	c0,0-28.8-27-73.8-64.3c-48.9-40.5-117.7-92-179-142.7C268,301,234.5,268.9,209,245c-24.5-23-41.9-38.4-42.1-38.6
	c-1.1-1.3-0.5-4.2-0.1-5C167.3,200.4,169.4,198.1,171.6,198.1z"/>
<path id="hand-back_2_" class="st1" d="M257.8,305.7c0,0,9.9-22.7,12.1-25.3c2.2-2.7,4.8-4,5.7-4.3c1.3-0.4,10,5.3,18.6,12.7
	c8.6,7.3,15.5,15.6,15.5,15.6s-1.3,1.3-3,2.1s-4.1,1.8-5.6,5.2c-1.5,3.3-2.9,8.5-8.7,11s-11.8,2.4-11.8,2.4l-92.8,40.8
	c0,0-4.3,1.5-11.3,1s2.7-17.2,2.7-17.2L257.8,305.7z"/>
<path id="neck" class="st1" d="M218.8,234.1c0,0-2.5,2.2-5.4,6c-2.9,3.8-6.5,9.2-6.5,9.2l14.7,19.4l27.1,7c0,0-1.3-9.3-1.6-14.2
	c-0.3-4.8,0.9-9.7,0.9-9.7l-22-23L218.8,234.1z"/>
<g id="face">
	<defs>
		<path id="XMLID_4_" d="M225.5,234c0,0,11.6,16.6,23.6,25.8s17,12.4,21.1,12.5s4.3-1.3,10.3-5.4s14.1-10.4,17.4-12.5
			s18-73.8,18-73.8l-97.1,5.6L225.5,234z"/>
	</defs>
	<use xlink:href="#XMLID_4_"  style="overflow:visible;fill:#C6B397;"/>
	<clipPath id="XMLID_11_">
		<use xlink:href="#XMLID_4_"  style="overflow:visible;"/>
	</clipPath>
	<path id="shadow_5_" class="st2" d="M228.3,231.9c0,0,5.8,10.1,12.9,16.8s13,12.8,18.5,17.3s9.1,7.1,9.1,7.1l-8.9,1.9l-43.8-39.8
		L228.3,231.9z"/>
</g>
<path id="nose" class="st3" d="M264.3,236.5c0,8.4,6.9,21.4,23.9,21.8s26.8-8.1,27.8-16s0.3-11.3,0.3-11.3l-51.8-1.6
	C264.4,229.4,264.3,231.5,264.3,236.5z"/>
<g id="hat">
	<defs>
		<path id="XMLID_1_" d="M260.9,119.9c-3.2,0.1-5.9,2.7-9,4.3c-3.1,1.6-16.2,7.5-26.6,12s-20.2,11.4-24.6,14.2
			c-4.4,2.8-5.4,4.8-4.9,8.9c0.5,4.2,2.6,12.6,3.6,17.8s7.9,28,7.9,28s18.6,1.5,29.1,2s92.1-16,92.1-16s2.5-7.6,4.3-15.8
			s3.8-16.5,4.1-18.8s0.1-3.8-2.9-6s-9.1-7-18.1-10.6s-21.4-8.1-27.6-10.4c-6.1-2.3-14.8-6.1-18.3-7.6
			C266.6,120.5,264.7,119.8,260.9,119.9z"/>
	</defs>
	<use xlink:href="#XMLID_1_"  style="overflow:visible;fill:#819AD3;"/>
	<clipPath id="XMLID_12_">
		<use xlink:href="#XMLID_1_"  style="overflow:visible;"/>
	</clipPath>
	<g id="shadow_1_" class="st4">
		<defs>
			<path id="shadow" d="M193,157.4c0,0,18.8,0.2,26.3,1.1s15.8,1.4,21.3,1.5s18.8-1.3,31.3-1.8c15.5-0.7,32,3,35.6,3.3
				s15.8-4.3,25.1-3.9c9.3,0.3,9.8,0.8,9.8,0.8l-9.8,39.8l-98.6,19.8l-35.3-4.6L193,157.4z"/>
		</defs>
		<use xlink:href="#shadow"  style="overflow:visible;fill:#466EC9;"/>
		<clipPath id="shadow_14_">
			<use xlink:href="#shadow"  style="overflow:visible;"/>
		</clipPath>
		<path id="shadow2" class="st5" d="M284,154.3c0,0,6.8,13.6,6.5,17.4s-3.5,5.1-6.8,7.6s-7.4,6.5-11.1,8.9s-8.6,2.9-15.8,7.8
			s-14.9,17-14.9,17l-47.6-0.9l-2.8-58.4L284,154.3z"/>
	</g>
</g>
<g id="bill">
	<defs>
		<path id="XMLID_2_" d="M241,207.4c0,0.7,1.5,3.1,5.9,8.9s15.6,17,19.8,20.4s14.6,11.9,17.1,13.4s6,2.8,8.4,1.9s14.5-7.3,20.4-10.1
			s13.3-6.9,17-8.6s12.8-7,16.4-8.1s14.3-0.8,17.5-0.9s5.8-0.1,5.8-1.9c0-1-1.9-3.2-4-4.9c-4.8-3.6-12-10-16.6-14.3
			s-7.6-7-13.1-10.9s-5.5-3.9-6.4-4.1s-11.1-2.3-14-3.2c-2.9-0.8-7.3-2-9.3-2.1s-7.8,2-14.4,3.6c-6.7,1.6-19.8,5.5-25.3,7.3
			c-5.5,1.8-12.5,5.8-16.6,8.3S241,206.6,241,207.4z"/>
	</defs>
	<use xlink:href="#XMLID_2_"  style="overflow:visible;fill:#819AD3;"/>
	<clipPath id="XMLID_13_">
		<use xlink:href="#XMLID_2_"  style="overflow:visible;"/>
	</clipPath>
	<path id="shadow_2_" class="st6" d="M241.1,204.6c0,0,2,4.8,7.3,10.6s9.1,10,15,15s11.9,11.1,15.6,13.9s5.9,4,8.1,4
		s5.3-1.1,12.4-3.6s17.9-7.5,22.1-9.3s13-7.1,16.9-9.3s8.6-4.3,12.8-4.1s6.5,1.3,10,1.5s9,0,9,0l-1.6,28.5l-100.9,3.4L238.5,208
		L241.1,204.6z"/>
</g>
<g id="ear">
	<defs>
		<path id="XMLID_3_" d="M231.3,208c0,0-3.5-9.8-12.1-10.1s-12.5,9-11.1,19.8s8.3,18.8,14.4,18.6s7.1-2.3,7.1-2.3L231.3,208z"/>
	</defs>
	<use xlink:href="#XMLID_3_"  style="overflow:visible;fill:#C6B397;"/>
	<clipPath id="XMLID_14_">
		<use xlink:href="#XMLID_3_"  style="overflow:visible;"/>
	</clipPath>
	<path id="shadow_3_" class="st7" d="M221.3,209c0,0-0.9-3.5-4.5-3.1s-6.4,3-7.3,7.1s0,7,0,7s1.8,0.4,4.1-0.6s3-2,3-2
		s-3.8,0.4-4.1-1s-1.3-3,1.4-5.5S219.8,208.1,221.3,209z"/>
	<path id="shadow_4_" class="st7" d="M219.5,220.6c0,0-2.4,0-3.9,1.1c-1.5,1.1-1.9,2.2-1.9,2.2s1.6,3,3.1,4.6
		c1.6,1.6,0.3,3.1,2.3,4.7c1.9,1.6,4.6,0,4.6-2.6c0-2.6-2.9-2.7-4.1-3.6c-1.1-0.9-3.2-3.2-2.8-3.8S219.5,220.6,219.5,220.6z"/>
</g>
<g id="collar">
	<defs>
		<path id="XMLID_5_" d="M206.5,238.5c0,0-6.9,8.6-11.6,14.5s-9.3,16-9.3,16s3.3,1.6,13,4.5s22.9,5.5,33.5,9.8s38,17.8,38,17.8
			l-0.1-5.9l9.3,7.3l6.4-15.8c0,0-8.9-5.3-14.1-6.6s-15.4-4-25.8-8.6s-19-10.8-19-15s1.8-5.4,1.8-5.4s-7.1-0.4-11.6-1.4
			C212.2,248.6,210.6,247.8,206.5,238.5z"/>
	</defs>
	<use xlink:href="#XMLID_5_"  style="overflow:visible;fill:#DCE4EF;"/>
	<clipPath id="XMLID_15_">
		<use xlink:href="#XMLID_5_"  style="overflow:visible;"/>
	</clipPath>
	<path id="shadow_6_" class="st8" d="M218.1,247.9c0,0-5.1,2.5-10.5,5.5s-7.9,5.1-10.4,10.6s-5.4,12.6-5.4,12.6l-9-7.8l23.6-33.5
		L218.1,247.9z"/>
</g>
<g id="shirt">
	<defs>
		<path id="XMLID_7_" d="M198.8,267.8c0,0-6,2.3-8.4,6s-10.5,16.9-11.4,20.1s-4.3,14-4.3,14s-4.9,6.6-9.6,11.6s-9.1,9.1-12.7,10.8
			s-4.9,1.1-5.1,1.4s-0.3,8.4,0.2,12.8s1.3,7.5,0.3,7.8s-5.8-0.3-5.8,0.2s-0.5,7.1,1.8,9.8s7.1,6.6,12.4,8.6s13.9,0.6,16.7,0.4
			s5.9-0.9,5.9-1.4s-1-6.6-0.7-7.6s1.9-1.8,2.7-2.4s1.6-2.1,1.6-2.1s0.9,0.3,3.2,6.4s8.4,20.7,10.4,27.6s5,14.2,6.3,30.2
			c1.3,16-0.7,25.3-0.7,25.3l32.8,77l97.7,4.8l10.2-70.7l-47.2-42.3l-11.7-47l-6-44.5l-13.8-34L198.8,267.8z"/>
	</defs>
	<use xlink:href="#XMLID_7_"  style="overflow:visible;fill:#DCE4EF;"/>
	<clipPath id="XMLID_16_">
		<use xlink:href="#XMLID_7_"  style="overflow:visible;"/>
	</clipPath>
	<path id="shadow_9_" class="st9" d="M232.2,281.9c0,0-9.1,0.6-12.4,0.3s-7.6-1.9-9.9-2.1s-6.1,0.1-6.1,0.1s-3.6,7.2-5.5,13.8
		s-4.8,14.6-6.1,18.4s-2.4,9.9-3,18.9s0.5,25.8,1.1,29.1s0.6,3.6,2.4,5.8s7.1,7.4,9.3,11.8s22.2,57.2,22.2,57.2s4.8,6.3,11.5,14.3
		s11.9,14.1,18.8,20.3s16.8,12.6,23.5,12.9c6.7,0.3,15.2-4.5,15.2-4.5s-2.5,10-6.6,15.1c-4.2,5.2-8.9,9.6-11.1,9.8
		c-2.2,0.2-5.9-3.3-10.8-7.2c-4.8-3.8-16.1-13.1-21-16.4c-4.9-3.3-13.8-9.4-13.8-9.4L196.2,431l-39.4-59.3c0,0,0.8-5.1,3.9-7.9
		c3.1-2.8,7-3.8,7.2-4c0.2-0.1,0.3-3.4-0.2-4.1c-0.4-0.7-3.8-3.5-4.9-4.6s-2.2-2-1.1-3.2s4-5.2,6.4-8.3c2.4-3.1,5.9-7.3,5.9-7.8
		c0-0.6-1-4.8-1.1-6.1c-0.2-1.3-1.5-3.8-1.4-6.8c0.2-3,2.2-6,2.8-8.2c0.6-2.2,0.7-7.3,0.7-7.3l9.1-48.1l49.5,23L232.2,281.9z"/>
	<path id="shadow_10_" class="st9" d="M242.4,340.3c0,0-3.7,5.2-6.4,11.3c-2.8,6.2-4.8,8.9-3.3,10.8c1.4,1.8,8.7,5.3,8.8,7.4
		c0.2,2.2,0.3,7.1,0.2,12c-0.2,4.9-0.3,9.8-0.3,9.8s5.8-7.7,15.9-11c10.1-3.3,15.3-4.8,19.6-3.8s7.9,2.8,7.9,2.8l1.6-20L242.4,340.3
		z"/>
</g>
<g id="overalls">
	<defs>
		<path id="XMLID_6_" d="M174.4,541.3c0,0,4.8-2.4,9.6-8.5s12.6-16.6,14.8-20.5s2.7-6.6,5-6.3c0.3-3.6,0.7-12.2-1.7-20.3
			s-6.4-22.9-6.3-29s3.4-6.1,6.5-21s4.5-23.8,3-35.3s-5.3-22.3-5.3-36.9s5.5-27,12.1-39.5s28.6-42.3,28.6-42.3l26.4,17
			c0,0,7,4.1,9.6,5.5s5.5,2.6,5.9,3.3s1.6,4.1,1.8,7.8s0.1,11.9,0.1,11.9s-14-19.1-27-19.1s-25.6,2.4-29.8,8.6s-5.1,20.3-5.8,36.6
			s0.8,40.8,1.5,58.9s5.3,44.4,6.1,49.6s3.9,8.9,7.3,13.3s14.5,18.9,18.9,24.3s14.5,15.6,15.8,17s1.6,1.6,3.3,2s9.9,2.3,13.4,2.9
			s15.4,0.8,15.9,0.8s2.1-2.3,3.4-4.8s2.9-8.9,7.3-14.8s11.5-17.6,13.9-24.3c1.6-4.5,1.1-11.5,1.1-12s-0.3-1.4-3.6-4.3
			s-19.6-12.1-26.3-23.5s-11.1-22-13.9-35.8s-5-21.4-5.6-29.9c-0.5-7.2,2.3-14.4,2.3-14.4l5.5,7.4c0,0-0.6,14.2,5.4,28.6
			c6,14.4,7.8,16.5,12.7,22.3c4.8,5.8,9.4,8.4,13.3,12.4c3.9,4,7.3,8.6,10.5,11.4c3.3,2.8,5.4,4.9,8.3,5.4c2.8,0.5,6,0.3,6,0.3
			s1.9,4.8,4.2,12.7s4.5,15,4.5,15s14.5,10.2,25.8,20.9c11.3,10.8,21.4,22,26.4,27.5s8.4,10.8,13.1,15.1c4.7,4.3,7.1,5.4,7.1,5.4
			L174.4,541.3z"/>
	</defs>
	<use xlink:href="#XMLID_6_"  style="overflow:visible;fill:#819AD3;"/>
	<clipPath id="XMLID_17_">
		<use xlink:href="#XMLID_6_"  style="overflow:visible;"/>
	</clipPath>
	<path id="shadow_7_" class="st10" d="M203.2,503.5c0,0,1.6,8.1,1.6,15.3s-1.2,11.8-1.8,17.6s-1.1,8.7-1.1,8.7l-40.5,2.3l25-48.3
		L203.2,503.5z"/>
	<path id="shadow_8_" class="st10" d="M352.9,468.8c0,0-0.6,3.1,0.4,5.3s2.1,5.2,3.5,8.3c1.3,3.1,3,9.4,3.1,10.7
		c0,1.3-1.4,5.3-1.8,6.1c-0.5,0.9-1.2,1.8-0.3,2.9s6.3,6.7,10.3,12.6c4,5.9,11,14.4,11.8,20.1c0.8,5.7,0.2,7.3,0.2,7.3l-18.5-0.8
		c0,0-1.6-12.3-1.8-11.8c-0.2,0.5-3.2,4.5-5.3,8.7c-2.2,4.2-2.4,5.4-2.4,5.4l33.5-0.5c0,0-0.6-9.7-1.3-18.8c-1.1-14-7-33.9-7-33.9
		L352.9,468.8z"/>
</g>
<g id="sleeve">
	<defs>
		<path id="XMLID_8_" d="M236.1,318.6c5.8-10.6,22.5-12,29.4-9.1c5.9,2.4,13.7,7.9,17.8,10.2s12.7,7,18.6,10.6s33.1,18.9,43,25.8
			c9.8,6.8,11.7,8,11.7,8s2.9-4,3.4-5.4s1.3-5.6,4.5-4.7s5.9,3.3,10.4,8.5s7.1,9.5,7.4,14.6s-9.8,49.1-9.8,49.1s-5.1,5.3-7,6
			s-1.4,1.6-3.4,2.6s-9.5,4.3-13.4,3.8s-5.6-3.6-7.5-6.3s-5.9-7.9-10.9-10.5s-10-4.9-10-5.6s1.9-3.8,1.9-4.6s-3.4-2.3-6.8-3.4
			s-5.9-0.7-6.2-1.6s1-7.3-0.6-11.5s-11.1-15.4-20.9-22.8c-9.6-7.2-18.4-14.4-29.5-21c-6.4-3.8-17.2-8.1-21.3-13.6
			C233.8,333.5,232.9,324.4,236.1,318.6z"/>
	</defs>
	<use xlink:href="#XMLID_8_"  style="overflow:visible;fill:#DCE4EF;"/>
	<clipPath id="XMLID_18_">
		<use xlink:href="#XMLID_8_"  style="overflow:visible;"/>
	</clipPath>
	<path id="shadow_11_" class="st11" d="M341.6,388.3c0,0-6.1,4.1-7.7,13.7s1.8,15.4,2.9,17.5s1.8,3.3,1.2,5.3s-2.2,3.9-2.2,3.9
		l5.8,5.8c0,0-2-4.6-2.9-9.9s-1.4-10.1,1.2-17.7s3.3-8.8,3.3-11.1S341.6,388.3,341.6,388.3z"/>
	<path id="shadow_12_" class="st11" d="M356.4,415.3c0,0-0.8,5.8,0.4,12.1s2,5.6,4,5.5s8.1-1.1,8.1-1.1l7.3-11.4L356.4,415.3z"/>
</g>
<g id="arm">
	<defs>
		<path id="XMLID_9_" d="M367,374.9c1.4-1.7,3.1-1.3,6.8-1.4s9,1.2,16.3,5.7s32.6,22.9,39.3,28.1c7.8,6,16.8,14.9,17.3,14.9
			s3.7-1.1,6-1.4s5.5,1.6,8.8,1.3s6-3.4,7.4-3.8s1.9-0.4,3.3,0.9s7.4,9.1,10.3,13s4.5,6.6,4.8,9.6s0.1,8.3,0.1,8.3s-0.4,0.8-2.3-0.1
			s-5.6-3.2-7.1-3.1s-4.9,3.3-8.3,6.1s-6.6,4.9-7.8,6.3s-2.6,3.4-4.8,3.3s-18.6-6.1-23.3-7.9s-8.4-3.4-10.6-8.1s-2.7-6.9-3.8-7.4
			s-15.3-6-30.2-8.9s-31.4-6.3-32.5-7.9s-2-15.1,0.8-27.5S365.3,377,367,374.9z"/>
	</defs>
	<use xlink:href="#XMLID_9_"  style="overflow:visible;fill:#C6B397;"/>
	<clipPath id="XMLID_19_">
		<use xlink:href="#XMLID_9_"  style="overflow:visible;"/>
	</clipPath>
	<path id="shadow_13_" class="st12" d="M368.6,370.9c0,0,1.9,4.1,0.8,8.9s-5,10.9-6.1,17.8s-2.1,11.9,1.8,14.6s10.9,6.4,18.6,8.5
		s21.6,5.8,33.6,9.4s33.4,12.1,33.4,12.1s-2.5,3.4-2.4,6.2s3.7,5.4,6.5,7.3s8.7,4.3,8.7,4.3l-5.4,17.4l-112.2-43l4.7-67.3
		L368.6,370.9z"/>
</g>
</svg>
