<?xml version="1.0" encoding="utf-8"?>
<!-- Generator: Adobe Illustrator 23.0.0, SVG Export Plug-In . SVG Version: 6.00 Build 0)  -->
<svg version="1.1" id="Layer_2" xmlns="http://www.w3.org/2000/svg" xmlns:xlink="http://www.w3.org/1999/xlink" x="0px" y="0px"
	 viewBox="0 0 720 540" style="enable-background:new 0 0 720 540;" xml:space="preserve">
<style type="text/css">
	.st0{fill:#2B2F33;}
	.st1{clip-path:url(#XMLID_14_);fill:#8693A0;}
	.st2{clip-path:url(#XMLID_14_);fill:#646D77;}
	.st3{clip-path:url(#XMLID_14_);fill:#5A626B;}
	.st4{clip-path:url(#XMLID_15_);fill:#B4C9DC;}
	.st5{clip-path:url(#XMLID_16_);fill:#B69E7C;}
	.st6{clip-path:url(#XMLID_17_);fill:#B69E7C;}
	.st7{clip-path:url(#XMLID_18_);fill:#5F703A;}
	.st8{fill:#252627;}
	.st9{clip-path:url(#XMLID_19_);fill:#636569;}
	.st10{clip-path:url(#XMLID_19_);fill:#63675C;}
	.st11{clip-path:url(#XMLID_19_);fill:#717469;}
	.st12{clip-path:url(#XMLID_19_);fill:#787D71;}
	.st13{clip-path:url(#XMLID_19_);fill:#8C9287;}
	.st14{clip-path:url(#XMLID_20_);fill:#636569;}
	.st15{clip-path:url(#XMLID_20_);fill:#2E2F30;}
	.st16{clip-path:url(#XMLID_21_);fill:#B69E7C;}
	.st17{clip-path:url(#XMLID_21_);fill:#D5C7B3;}
	.st18{clip-path:url(#XMLID_22_);fill:#9D9D9D;}
	.st19{clip-path:url(#XMLID_23_);fill:#9D9D9D;}
	.st20{fill:#D5D5D5;}
	.st21{fill:#DC8181;}
	.st22{clip-path:url(#XMLID_24_);fill:#B69E7C;}
	.st23{clip-path:url(#XMLID_25_);fill:#B69E7C;}
</style>
<path id="pipe" class="st0" d="M155.1,182.9c0,0,2.4-8.2,3.9-11.9s3.2-8,4.3-8.2c1.1-0.2,10,0.8,13.8,1.7c3.8,0.8,8.3,1.7,8.3,1.7
	s2.4-7.3,2.3-12.8c-0.1-8-10.7-32.1-55.3-32.1c-28.3,0-41.2,24.4-45.6,36.9s-6.1,20.4-7.1,26s-2.3,9.4-5.8,15.3s-7,11.1-11.3,16.1
	S49.2,229.9,43.1,238c-5.6,7.5-10.3,15.8-10.3,31.3s3,25.8,9.1,34s8.4,10.5,8.4,10.5l-7.3,7L30,333.5c0,0-21.5-22.5-21.5-65.8
	c0-21.7,5.1-23.9,8.7-30.1c3.6-6.2,8-14.3,10.9-19.3s5.3-8,11-14.2c5.8-6.2,13.2-13.2,15.5-17.5c2.3-4.3,2.9-9.2,7-21.3
	c5.1-15.1,6.2-26,8.2-29.3s7.3-10,13.9-17.4c6.6-7.4,11.1-14,21.5-17.3c10.4-3.3,16.7-4.3,26.3-4.3c9.3,0,16.5,1.1,25.6,2.9
	c4,0.8,6.2,2.8,11.3,4.3c11.7,3.4,18.8,4.3,27.4,12.6c10.9,10.6,18.4,23.5,19.9,40.4s0.5,16.8,0.5,16.8l19.5,6.4l-9.9,28.6
	L155.1,182.9z"/>
<g id="pack">
	<defs>
		<path id="XMLID_1_" d="M96.3,172.2c0,0,35.5,2.2,91.3,15.3s91.3,30.3,91.3,30.3L195.7,434c0,0-57.2-10.3-94.5-19.8
			S45.8,398,45.8,398s2.6-69.6,16.3-128.8C76,208.5,96.3,172.2,96.3,172.2z"/>
	</defs>
	<use xlink:href="#XMLID_1_"  style="overflow:visible;fill:#808C99;"/>
	<clipPath id="XMLID_14_">
		<use xlink:href="#XMLID_1_"  style="overflow:visible;"/>
	</clipPath>
	<path id="hilight" class="st1" d="M103.3,205c0,0-14.7,40.7-18.1,51.6c-3.4,10.9-6.3,17.7-6.1,24c0.3,6.3-0.1,9.4-1.3,16.8
		c-1.3,7.3-4.1,17.2-6.3,32.8c-2.2,15.7-2,27-2.5,35.3s-0.5,8.3-0.5,8.3l13.2,0.7c0,0-3.2-20.5,0.3-41.3
		c3.5-20.8,8.3-48.8,15.8-69.3s14.8-42.5,21.2-47.7c6.3-5.2,6.3-5.2,6.3-5.2L103.3,205z"/>
	<path id="shadow" class="st2" d="M161,220c0,0,1,50-5.8,97.4c-6.7,47.4-21.4,71.3-21.4,71.3l42.8,8.8l64.8-164L161,220z"/>
	<path id="rim_1_" class="st3" d="M75.4,210.4c0,0,44.1,4.9,100.1,18.1s67,16,67,16L274,229l-12.8-41L91.8,162.3L75.4,210.4z"/>
	<path id="rim" class="st3" d="M45,353.7c0,0,31.5,11.2,65,19.5c33.5,8.3,109,24.5,109,24.5l-18.2,45L34.2,407.3L45,353.7z"/>
</g>
<g id="shirty">
	<defs>
		<path id="XMLID_2_" d="M260.9,229.9c-16.3,0.7-16.5,3-20.6,3.9c-4.1,0.9-4,0.3-9,2.9c-4,2.1-4.6,5-4.6,5s-9.1,0.4-17.6,2.3
			c-8.5,1.8-17.3,4.4-17.3,4.4s-12.3-4.1-15.4-3.7c-3.1,0.4-15.6,6.1-30.1,11.9c-14.5,5.8-22.3,9.3-25,10.5
			c-2.7,1.3-4.3,2.4-4.3,2.4s-4.8-2.3-7.1-2.8s-4.1-0.8-6.8,0.3s-9.4,5.9-15.4,10.1s-15.1,11.4-14.7,14.4s1.1,3.8,3.3,6.6
			s11.2,13,11.2,13l47.8,24.3c0,0,3.7-3.4,7.3-4.4c3.7-1,7.5-1.4,8.3-7.2c0.8-5.8-3.3-7.7-2.9-13.1c0.2-2.6,0.1-2.3,1.8-4.2
			s3.7-4.9,9.5-8.3s9.3-5.9,9.3-5.9s3.5,3.3,3.4,22.4s-3.8,32.3-5.8,48.1s-2.1,25.6-2.1,25.6l143-37.1c0,0,2.5,1.8,8,12.5
			c4.4,8.6,4.9,8.8,5,18.8s64.1-15,64.1-15l3.8-0.8l-5.5-8.1l4.8,1.5c0,0-11.1-11.5-15.6-16.6s-7.5-9.7-9-9.4s-5.5,4.3-5.5,4.3
			s-12.6-14.3-20.2-22.7c-7.6-8.4-20.8-27.3-20.8-27.3L304,247.3L260.9,229.9z"/>
	</defs>
	<use xlink:href="#XMLID_2_"  style="overflow:visible;fill:#DCE4EF;"/>
	<clipPath id="XMLID_15_">
		<use xlink:href="#XMLID_2_"  style="overflow:visible;"/>
	</clipPath>
	<path id="shadow_1_" class="st4" d="M131.1,309.3c0,0,1.9,0.2,4.7,4.5s5.9,11.2,5.9,11.2s-1.1-8-4.3-17.6s-10.1-29.5-10.1-29.5
		s5.5,10.4,7.6,13.9s3,4.3,3.8,1.9s-0.6-11.1-1.4-16.1c7.1,11.6,9.1,22.4,9.1,22.4s21.7-12.1,26.4-14.6s14.8-8.1,14.8-8.1L220,323
		l26.5,6.5c0,0,10.7-3.4,19.9-8.7s17.2-10.3,17.2-10.3s-7.3-16.8-8-22.7c-0.7-5.9,4.8,5.3,4.8,5.3s1.9-0.2,3.1,1.7
		c1.2,1.8,7.3,11,7.3,11s1.2-6.7,1.3-10.1c0.2-3.4-0.3-5.3,1.7-6.6c2-1.3,12.7-7.2,12.7-7.2l0.9,64.3c0,0,4.1,4.3,6.7,8.1
		s5.6,8.1,5.6,8.1s8.8-10.3,13.9-14.9c-6.9,8.9-6.9,12.5-7.1,15c-0.2,2.3-0.9,3.6-0.9,3.6s7.4-3.8,11.9-8.7
		c-5.8,8.7-10.9,15.4-11.1,16.2s0.8,1.9,3.8,5.1s4,4,5.6,2.7s41.5-22.3,41.5-22.3s3.6-1.1,6.9,0.9s5.6,7.9,5.6,7.9l-20.4,21.9
		l-218.3,13l-33.7-66L131.1,309.3z"/>
	<path id="shadow_17_" class="st4" d="M227.1,251.8c0,0-4.1,1.5-6.9,3c-2.8,1.5-4.8,3.7-4.8,3.7s2.8,1.5,8.4,9.6
		s10.7,17.4,14.7,25.9s11,21.5,11.8,22.8s1.1,0.8,1.3-0.9c0.3-1.7,3.2-14.8,3.2-15.3c0-0.4-3.8-1.3-6.5-1.8
		c-2.7-0.4-3.7-2.3-5.7-6.8c-2-4.4-8-17.9-10.4-24.3C229.8,261.3,228.4,258.2,227.1,251.8z"/>
	<path id="shadow_18_" class="st4" d="M262.3,233c-7,1.2-17,1.5-17,1.5s1.4,4.8,4,12.6c2.6,7.8,6.6,11.4,6.6,11.4l10.6-15.7
		L262.3,233z"/>
</g>
<g id="arm-r">
	<defs>
		<path id="XMLID_9_" d="M79.6,322.2c0,0-0.3-7,0.5-12.2s1.3-6.2,1.3-6.2l2.9,2.2c0,0-1.3-3.6,3.1-8.3c4.3-4.8,12.6-8.3,16.2-8.2
			s8,1.4,13.6,5.3c5.6,3.8,14.4,13.6,15.7,15c1.3,1.4,2.3,3.9,1.7,6.7s0.2,6.6-1.5,8.2c-1.7,1.6-8.1,6.2-9.3,7.5
			c-1.2,1.3-1.2,1.3-1.2,1.3L79.6,322.2z"/>
	</defs>
	<use xlink:href="#XMLID_9_"  style="overflow:visible;fill:#C6B397;"/>
	<clipPath id="XMLID_16_">
		<use xlink:href="#XMLID_9_"  style="overflow:visible;"/>
	</clipPath>
	<path id="shadow_13_" class="st5" d="M82.9,303.2c0,0,7-3.1,17.2-2c15.3,1.7,28.2,12,27.7,16.3s-4.8,6-4.8,6s2.3,2.4,3.1,4.5
		c0.8,2.1,1.8,3.8,1.8,3.8l9.3,0.5l-0.8-26.1l-28.6-20.7l-19,2.6L82.9,303.2z"/>
</g>
<g id="arm-r_1_">
	<defs>
		<path id="XMLID_11_" d="M377.7,359c0,0,0.9,2.9,6.9,7.8s12.7,9.9,11.5,21.8c-1.2,11.9-2.5,15.9-2.5,15.9l-56.4-15.2
			c0,0-4.4-10,0.9-15.8c5.3-5.8,14.5-12.3,26.2-14.1C375.7,357.7,377.7,359,377.7,359z"/>
	</defs>
	<use xlink:href="#XMLID_11_"  style="overflow:visible;fill:#C6B397;"/>
	<clipPath id="XMLID_17_">
		<use xlink:href="#XMLID_11_"  style="overflow:visible;"/>
	</clipPath>
	<path id="shadow_15_" class="st6" d="M389.7,368.9c0,0-8.6-3-19.6-0.7s-21.6,10.6-21.6,11.9c0,1.3,2.8,1.3,2.1,2.8
		s-4.8,7.2-4.8,7.2l-17.7-3.1l6.3-26.5l43-5.4l12.5,6.8L389.7,368.9z"/>
</g>
<g id="overall">
	<defs>
		<path id="XMLID_3_" d="M202.4,245c0,0-3.6,1.4-2.8,2.5s1.4,0.4,1.3,1.5c-0.1,0.7-1.9,1.2-2.3,2.4c-0.3,0.8,0.7,2.3,0.9,3.2
			c0.9,4.7,1.5,20,8.3,36.6c4.6,11.2,12,20.2,25.2,29.5c8.6,6.1,7.5,5,14.8,7.3s8.8,3.8,14.3,4.2c5.9,0.4,10.2-0.1,11.2-0.1
			s4.7-3.7,11.1-10.4c5.8-6.1,10.8-12.2,13.4-18.5c2.5-6.2,4.5-6.6,5-9.8c0.5-3.2-0.1-7.4,0.3-9s1.7-0.5,1.8-3.4
			c0.3-6-4.5-13.8-4.5-13.8l19.1-3.1c0,0-0.5,7.1-0.5,12.7s1.3,8.3,0.4,14.5s-2.8,11.4-5.4,20.7s-6,24.8-5.9,40.4
			c0.1,15.7,0.8,31.1,2.9,44.3c2.2,13.2,4.4,23.1,6.6,35.9s2.8,16.8,3.8,18.4s6.8,8.7,14.6,19.1s14.2,18.5,22.1,28.3
			c7.9,9.8,14.9,16.9,24.1,26.4c9.2,9.5,20.5,19.6,20.5,19.6L3.5,553.5l8.1-12c0,0,2.4-10.6,8.5-26c6.1-15.4,12.3-28.1,13.3-29.6
			s1.8-1.8,6.9-5.8s21.1-16.8,29.6-23.3s18.8-14.3,21.9-15.3c3.2-0.9,5.6-1.3,9.1-2.8c3.5-1.6,25.6-12.3,28.3-13.7s7.5-5,10.8-4.8
			c3.3,0.2,5.5,0.5,6.8-0.3c1.2-0.8,3.5-3.1,4-4c1.4-2.3,1.6-7.3,2-12.4s0.2-12.6-0.1-16.5s-0.8-9.2,3.6-6.3
			c4.3,2.8,5.6,4.2,10.1,4.4s10.1-11.4,10.1-11.4l9.6-26.1c0,0,1.8-3.6,2.5-9.3c0.7-5.7,1.4-31.8-0.5-44.8
			c-1.9-12.9-4.1-20.9-6.5-30.3c-2.4-9.3-2.9-12.3-2.5-14c0.4-1.7,0.8-1.8,0-2.5c-0.8-0.8-1.4-2.5-1.4-2.5s3-2.7,4.4-2.9
			c1.5-0.3,9.9,0,14.4,0.5C200.8,242.5,203,242.9,202.4,245z"/>
	</defs>
	<use xlink:href="#XMLID_3_"  style="overflow:visible;fill:#96AD65;"/>
	<clipPath id="XMLID_18_">
		<use xlink:href="#XMLID_3_"  style="overflow:visible;"/>
	</clipPath>
	<path id="shadow_2_" class="st7" d="M182.1,240.3c0,0,0.3,6.7,2.8,16c2.5,9.3,15,44.9,13.2,68.1c-1.8,23.2-8.5,38.5-8.5,38.5
		l-8.5,12.9c0,0-3.6,8.5-13.3,17.6s-12.9,9.8-17.5,11s0.4,6.7,0.4,6.7s2.9,13.6,11.8,17.6c7.6,3.4,24.3,3.8,24.3,3.8
		s-28.3,6.1-54.1,15.2S96.9,460,92.4,461.1s-6.3,1.5-9.7,3.8S62.4,480.7,49.1,483s-20.3,3.7-20.3,3.7l144-250.2L182.1,240.3z"/>
	<path id="shadow_3_" class="st7" d="M312.6,268.3c0,0-2.6,14.5-4.8,23.7c-2.2,9.2-3.3,13.5-6.3,16.9c-3,3.4-7.3,8.3-10.5,12.1
		s-3.9,5.7-9.3,9.3c-5.4,3.7-9.7,4.3-14.4,4.7s-8.6-5.2-8.6-5.2l40.3-68.5h13.8L312.6,268.3z"/>
	<path id="shadow_4_" class="st7" d="M185.3,389.5c0,0,24.7,19.2,40.2,32.8c15.5,13.7,51.8,43.2,51.8,43.2s-9.9-17-16.2-27.4
		c-6.2-10.4-15.5-23.3-15.5-23.3s8.9,4.8,17.7,9.8c8.8,5,15.8,9.8,18.8,10.3c-8.3-9.3-27.1-22.8-38.2-28.8S185.3,389.5,185.3,389.5z
		"/>
	<path id="shadow_5_" class="st7" d="M90.4,541.4c0,0,3-3.4,6.5-4.4c3.2-0.9,4.8-0.7,4.8-0.7l-2.6,5.3L90.4,541.4z"/>
</g>
<path id="handle-connection" class="st8" d="M431,411.4c0,0,3.5-0.1,7.1,1.9s7.3,1.8,12.8,2.4s8,4.9,8,4.9l-8.3,25.1
	c0,0-6.3,0.6-10.3-1.3c-5.1-2.4-21.4-7.5-21.4-7.5L431,411.4z"/>
<g id="vacuum-handle">
	<defs>
		<path id="XMLID_7_" d="M46.2,309.8c0,0-1,4.2-4.9,6.6s-7.6,3-9.9,6.6S29.2,328,29,332s1.9,6.4,7.8,8.1S306,409.8,335,417.3
			s76.6,20.2,83.4,21.7c6.8,1.5,7.3,0.5,11.9,0.5c4.6,0,6.3,0.4,8.4-0.7s5.5-8.8,5.8-12.6c0.3-3.8-3.8-6.5-6.7-9.1
			c-2.8-2.6-4.8-4-4.4-5.6s1.1-1.3-2.9-2.3s-45.8-12.1-45.8-12.1l-150.3-38.5L46.2,309.8z"/>
	</defs>
	<use xlink:href="#XMLID_7_"  style="overflow:visible;fill:#3E3F42;"/>
	<clipPath id="XMLID_19_">
		<use xlink:href="#XMLID_7_"  style="overflow:visible;"/>
	</clipPath>
	<polygon id="hilight_2_" class="st9" points="37.5,315.7 483.3,431 445,432.2 20.7,320.3 	"/>
	<polygon id="wraps-4" class="st10" points="206,348.8 193.9,384.5 275.6,409.8 289.3,363.3 	"/>
	<path id="wraps-3" class="st11" d="M206.8,354.4l15.6,4.1c0,0,4.9,2,7.9,3.1s5.4,1.5,7.9,1.4s4.5-1.3,4.5-1.3s5.1,1.4,13.3,5.3
		s13.3,6,13.3,6l3.8,7.5l-23.8,9.8c0,0-3.4-2.5-6.9-3s-7.8,0.1-7.8,0.1s-8.4-1.6-12.6-2.6s-12-2.6-12-2.6l-7.9-8.9L206.8,354.4z"/>
	<path id="wraps-2" class="st12" d="M196.1,346.3c0,0,1.3,14.8,1.9,21.9s1.8,17.5,1.8,17.5l68.9,19.1c0,0,21.5-13.9,32.6-24.5
		s10.5-11.5,10.5-11.5l-33-3.9c0,0-7,9-18,16.8s-17.9,11.9-22,12.6s-4.1,0.8-4.1,0.8l-20.6-7.8c0,0,0.9-5.6,0.3-11.3
		s-2.3-12.6-2.3-12.6l0.1-15.8L196.1,346.3z"/>
	<path id="wraps-1" class="st13" d="M175.6,377.1l41.3-25.6l66.2,17.7c0,0,2.3,5,5,18.9c2.8,13.9,4,20.3,4,20.3l-22.7-6.6
		c0,0-1.4-10.9-2.6-20.1c-1.2-9.2-3.1-16.9-3.1-16.9l-19.3-4.8c0,0-2.8,8.4-4.3,18.2c-1.6,9.8-1.2,17.7-1.2,17.7l-12.4-5.5
		c0,0,3.1-10.7,5.8-17.3c2.7-6.6,5.3-15,5.3-15l-6.8-1.4c0,0-8.2,5.3-17.2,12.3s-19.8,15.6-19.8,15.6L175.6,377.1z"/>
</g>
<g id="vacuum-head">
	<defs>
		<path id="XMLID_8_" d="M466.8,393.7c-0.8,2-24.9,71.4-25.4,72.8s-0.9,2.1,0.1,2.8s6.4,5.7,8.4,7.9s2.2,4,2.2,6.5s-0.2,4.2,0.3,4.5
			s3.7,4,9.5,10.2s15.7,17.8,16.5,18.4s6.3-0.5,11.1-1.5s6.1-1,7.1-2.4s20.8-33.4,31.9-70.8c11.9-40,12.8-57.3,12.8-57.9
			s-0.2-1.3-1.6-2.5s-10.5-10.3-10.9-10.8s-2-0.6-3.3-0.4s-8.4,1.6-18.7,4c-10.3,2.3-20.8,3.9-21.3,4c-0.5,0.1-1,0.7-1.5,1.8
			c-0.5,1-3.8,4.8-5.9,6.3c-2.1,1.5-6.8,3-8.3,3.4C468.5,390.3,467.9,390.8,466.8,393.7z"/>
	</defs>
	<use xlink:href="#XMLID_8_"  style="overflow:visible;fill:#3E3F42;"/>
	<clipPath id="XMLID_20_">
		<use xlink:href="#XMLID_8_"  style="overflow:visible;"/>
	</clipPath>
	<path id="hilight_3_" class="st14" d="M510.6,371.7c0,0,7.9,1.9,8.6,7.4c0.7,5.5-2,29.4-12.7,61.9c-10.7,32.5-14.8,50.1-22.8,59
		c-8.1,8.9-13.4,6.7-18.8,5.3l9,18.9l16-6l37.2-95l5.7-54.7l-18.8-1.8L510.6,371.7z"/>
	<path id="shadow_12_" class="st15" d="M528.1,366.8c0,0-2.4,31.7-11.1,59.9c-8.6,27.9-19.2,53.3-29,72.9s-12.2,21.8-12.2,21.8
		l25.3-4.2l28.3-43.7l19.3-101L528.1,366.8z"/>
</g>
<g id="head">
	<defs>
		<path id="XMLID_4_" d="M253.8,255.2c0,0-0.5,3.2,1.8,7.3s7,7.8,12.3,15.2s7.6,12.1,9.7,14.6s2.5,3.1,2.5,3.1s4.3-13.1,6.2-20.7
			s1.4-12.6,1.4-12.6s13.1,9.4,20.3,9.1s8.1-0.1,9.4-1.3s4.6-4.8,7.4-7.1s4.3-3.4,6.1-5.9c1.9-2.4,5.4-6.8,5.4-6.8l22.6-48.4
			c0,0,0.8-4.5,1.2-14.4c0.3-9.8-1.3-14.3-4.6-19.6c-3.3-5.3-11.8-15.8-18.6-21.2s-29.4-21.5-49.8-20.7
			c-20.3,0.8-27.1,11.5-33.3,19.9c-6,8.2-11.3,18.2-11.3,18.2c-3-0.5-5.5,46.7-5.5,46.7l2.2,6.5l5.7,4.2c0,0-2.1,1.7-1.2,3.9
			c0.9,2.3,4.4,3.7,7.1,3.8c2.6,0.2,5.9,0.1,5.9,0.1s2.2,3.1,3.4,5.9c1.3,2.8,1.8,5.9,0.7,9.5s-1.2,5.8-3,5.8
			c-1.8-0.1-2.4-1.9-3.2-0.9c-0.8,0.9,2.4,6.3,0.9,6.2S253.8,255.2,253.8,255.2z"/>
	</defs>
	<use xlink:href="#XMLID_4_"  style="overflow:visible;fill:#C6B397;"/>
	<clipPath id="XMLID_21_">
		<use xlink:href="#XMLID_4_"  style="overflow:visible;"/>
	</clipPath>
	<path id="shadow_6_" class="st16" d="M247.4,204.6c-1.5-0.2-6.3,4.5-6.1,8.4s2.4,4.5,3.7,3c1.3-1.5,4-4,6.3-3.8
		c2.3,0.3,2.7,0.5,2.7,0.5S250.1,205,247.4,204.6z"/>
	<path id="shadow_7_" class="st16" d="M253.8,229.4c0,0,5.3-0.4,9.7-0.6c2.8,6.8,11.3,18.8,20.4,24c9.1,5.3,23,8.4,23,8.4
		s0.8-3.2,1.6-3.4s9.6-0.3,11.6-0.4c2-0.2,3-0.1,2.8-1.2c-0.3-1.1-1-6.7-1-6.7l16.8-35.8l-7.6-4.6c0,0-8.3-2.7-13.8-3.1
		c-5.4-0.4-13.5-0.3-13.5-0.3l7.8-6.8l27,0.3c0,0,2.7-1.9,6.6-5.8c3.9-3.9,5.7-8.1,5.7-8.1s0.4,4.5-0.2,8.1
		c-0.6,3.6-0.7,5.8-0.7,5.8s2.3-2.5,3.1-2.5c1.7,0.1,2.3,5.8,2.3,5.8l-3.1,9.7l-3.5,43.9l-17.3,26.7L275,302l-30.5-46.8L253.8,229.4
		z"/>
	<path id="hilight_1_" class="st17" d="M337.3,154.4c-2.4,2,4.8,11.7,7.5,9.5C347.5,161.7,340.9,151.4,337.3,154.4z"/>
</g>
<g id="hair-back">
	<defs>
		<path id="XMLID_5_" d="M280.5,192.1c0,0-3.4-14.1-11.8-27.2c-8.1-12.7-13.3-18.6-13.3-18.6s1.7,4.8,1.4,7.5
			c-5.1-2.5-15-7.8-20.4-9.9c1.5,3,1.4,3.2,1.4,3.2s-12.2-0.4-23.9,0.6s-16.8,1.7-16.8,1.7s6.7,2.7,10.7,5.8c4,3.1,7.1,6.7,7.1,6.7
			s-7.5,1.8-10.3,3.3c1.8,4.7,3.7,5.7,3.7,8.7s-0.6,6.1-0.6,6.1s-5-1.4-8.4-2.5s-4.8-2.7-4.8-2.7s1.6,12.8,11.9,20.6
			c10.4,7.8,19.1,9.5,21,10.8c1.9,1.3,3.1,3.8,7.1,7.5c3.9,3.7,5.5,4.1,5.5,4.1s-2.1-12,2.8-16.6c4.9-4.6,15.1-2.6,17.2-1.6
			s2.4,0.5,3.8-0.7c1.4-1.2,1.6-3.6,5.7-5.2C274.5,191.6,280.5,192.1,280.5,192.1z"/>
	</defs>
	<use xlink:href="#XMLID_5_"  style="overflow:visible;fill:#D5D5D5;"/>
	<clipPath id="XMLID_22_">
		<use xlink:href="#XMLID_5_"  style="overflow:visible;"/>
	</clipPath>
	<path id="shadow_10_" class="st18" d="M198.9,151.4c0,0,8.6,1.5,14.4,2.4c5.8,0.9,9.3,2.8,9.3,2.8l-4.6,1.9c0,0,4.3,1.8,8.2,3.7
		c3.9,1.9,5.6,3.4,5.6,3.4s-1.4,0.6-4.4,1.2s-5.8,0.3-9.6-0.8c-3.8-1.1-13.1-3.6-13.1-3.6L198.9,151.4z"/>
	<path id="shadow_9_" class="st18" d="M206.5,171.6c0,0,2.8,4,5.3,6.1c2.5,2,3.5,2.9,3.5,2.9s-3.8-1.1-6.4-1.8
		c-2.6-0.8-4.2-0.8-4.2-0.8L206.5,171.6z"/>
	<path id="shadow_8_" class="st18" d="M200.6,175.9c0,0,0.9,6.4,3.5,9.9c2.7,3.5,5.6,5.5,6.3,5.7c1.5,0.4,0.7-1.3,0.7-1.3
		s1.6,1.1,4.4,1.5c2.8,0.5,3.6,0.1,3.6,0.1s0-4.3-2.3-7.4c4.4,4.2,6.9,9.6,8.5,12.1s4,3.4,7.6,3.6c3.6,0.3,5.6,0,7.7-2
		s2.5-4.5,7.6-5c5.1-0.5,7.1-0.3,7.1-0.3s-5.2-5.4-7.7-7.7c6.8,2.6,21.7,6.6,26.1,7.9c4.4,1.3-28,33.5-28,33.5l-53.8-33.1l-0.3-23.1
		L200.6,175.9z"/>
</g>
<g id="moustache">
	<defs>
		<path id="XMLID_6_" d="M330.5,224.3c0,0-8.6,0.9-15.8,0.4s-23.5-3.9-23.5-3.9l3.7,2.8c0,0-1.8,3-7.3,4.8s-10.4,2.9-10.4,2.9
			s10.8,3.8,11,5.2c0.3,1.4-3.3,4.2-3.3,4.2s6.5,0.6,6.7,1.8s-4.3,3.4-4.3,3.4s32.3,0,33,0.8c0.7,0.8-3.8,6.5-3.8,6.5
			s6.8-0.8,10.1-1.8s7.3-1.5,7.4-0.6c0.1,0.8-2.5,6.1-2.5,6.1s3.6-0.1,3.5,0.8s-3.5,5.5-3.5,5.5s5.6-0.6,5.4,2.8s-2.6,7.6-2.6,7.6
			s4.5-3.3,4.9-2.1s0.2,6.5,0.2,6.5s4.2-10.4,5.5-10.8s1.7,2.1,1.7,2.1s2.8-6.9,4.3-11.4s1.6-8.2,1.6-8.2l5.7,0.1c0,0-4-3.6-7.1-6.4
			c-4.1-3.8-3.8-8.9-3.8-8.9L330.5,224.3z"/>
	</defs>
	<use xlink:href="#XMLID_6_"  style="overflow:visible;fill:#D5D5D5;"/>
	<clipPath id="XMLID_23_">
		<use xlink:href="#XMLID_6_"  style="overflow:visible;"/>
	</clipPath>
	<path id="shadow_11_" class="st19" d="M289.6,243.3c0,0,3.7-1.4,5.2-2.7c1.5-1.3,1.8-2.1,5.9-3.1s14.5-4.2,14.5-4.2
		s-3.3,2.6-3.3,4.7c0.1,2.1-0.1,1.8,3.6,2c7.1,0.4,13.6-1.2,13.6-1.2s-3.4,4.2-2.3,5.9c2.3,3.6,7.1,1.1,11.6,6.9
		c4.4,5.8,5.6,19.4,5.6,19.4l-4.5,9.2l-57.2-33.1L289.6,243.3z"/>
</g>
<path id="eyebrows" class="st20" d="M358,202.2c-2.6-0.3-2.8-1.3-2.8-1.3s-1.4,2.5-2.9,3.2s-2.6,0.8-2.6,0.8l-9.8-3.9
	c0,0,1.1-1.7-7-5.9c-8.1-4.3-27.2-13.8-27.2-13.8s2.4,2.6,0.9,2.8c-4.2,0.8-16.7-2.3-16.7-2.3s7.8,3.3,7.2,4.1c-0.6,0.8-7,2.1-7,2.1
	s3.8,3.9,7.4,5s5.1,0.6,4.3,2.2c-0.8,1.6-3.5,3.1-3.5,3.1s7.8,1.3,14.2,3.4s11.8,4,16.9,4.4s11.3-1.4,11.3-1.4l14.2,6.2
	c0,0,6.5-1,7.7-4c1.3-3-0.1-12.6-0.1-12.6S360,202.4,358,202.2z"/>
<path id="nouse" class="st21" d="M341.6,200.2c-6.9-0.5-14.9,9.6-14.6,21.3c0.3,9,8.8,14.6,18.2,14.8c7.4,0.1,5.9-1.3,9.9-1.8
	c4-0.4,7.2-4.2,7.7-10.6c0.5-6.4-2.2-10.6-5.8-13.4C351.7,206.2,350.7,200.8,341.6,200.2z"/>
<g id="hand-r">
	<defs>
		<path id="XMLID_10_" d="M109.5,321.1c-9.7-2.8-18.4-5.8-22.2-0.3s-6.6,12.8-8,21.8c-1.4,8.9-0.1,12.6,1.7,13s3.6-0.6,8.5,1.7
			s9.6,5.8,9.6,5.8s-1.1,4.1,0.9,5.1s5.4,1.2,11.5,1.1s12.3-0.1,12.9-0.4s1.9-6,1.9-6l-3.6-1.7c0,0,0.8-5.4,2.6-10.6
			s1.7-12.9,1.7-15.6S126.6,326,109.5,321.1z"/>
	</defs>
	<use xlink:href="#XMLID_10_"  style="overflow:visible;fill:#C6B397;"/>
	<clipPath id="XMLID_24_">
		<use xlink:href="#XMLID_10_"  style="overflow:visible;"/>
	</clipPath>
	<path id="shadow_14_" class="st22" d="M96.7,363.1c0,0,6.5,1,8,0.7s5.1-10,7.6-15.6s4.1-11.3,5-11.3s1.3,3.9-0.3,11
		s-4.6,16.8-4.8,17.3s1.5,1.2,2.6,2.3s4.2,0.9,5.1,0.8s3.9-8.5,3.9-8.5l5.8,1.6l-3.9,10.9l-27.8-2.1L96.7,363.1z"/>
</g>
<g id="hand-r_1_">
	<defs>
		<path id="XMLID_12_" d="M361.5,384.8c-9.3-0.2-12.9-1-16.5,7.6s-5.4,12.8-6.4,17.3s-1.8,7.4-1.8,7.4s-3.1-1.9-5.5,0.6
			s-1.9,4.8,0.3,8.1s6,7.3,9.1,7.7c5.5,0.6,7.5,0.6,8.5-0.3s-1.7-3.3-1.2-3.8s1.6-0.6,2.4,0.1s0.9,1.8,4.7,1.9
			c5.8,0.2,4.6-1.3,8.4-1.3s7.9,0.1,8.8,0s0.6-0.9,1.6-0.9c2.4,0,1.2,0.3,2.9,0.7s4.6,0.9,8.9-2.6s6-11.6,7.6-18.5
			s1.4-10.4-4.8-15.6S371.7,384.9,361.5,384.8z"/>
	</defs>
	<use xlink:href="#XMLID_12_"  style="overflow:visible;fill:#C6B397;"/>
	<clipPath id="XMLID_25_">
		<use xlink:href="#XMLID_12_"  style="overflow:visible;"/>
	</clipPath>
	<path id="shadow_16_" class="st23" d="M333.8,413.4l3,3.6c0,0,1.7,1.4,3.1,2.6c1.4,1.2,1.3,2.4,2.2,2.4c0.9,0,1.7-0.6,5.3-5.6
		c3.6-5,8.7-15.8,8.7-15.8s-1.6,7.8-4.1,13.1c-2.5,5.3-3.8,11.8-3.8,11.8s1.3,0.9,3.7-0.4c2.3-1.3,4.8-1.8,6.5-1.5
		c2.4,0.4,2.3,1.9,3.5,2.3c1.4,0.5,2.4,0.3,4.5,0c2.1-0.3,5.6-3,8-2.8c3.1,0.2,3.9,1.5,6.4,2.9c2.5,1.3,5.8,2,5.8,2l1.4,9.5
		l-53.5-0.8l-11-18.3L333.8,413.4z"/>
</g>
</svg>
